<svg width="20" height="18" viewBox="0 0 20 18" fill="none" xmlns="http://www.w3.org/2000/svg">
<path d="M10 14.5C11.25 14.5 12.3127 14.0623 13.188 13.187C14.0633 12.3117 14.5007 11.2493 14.5 10C14.5 8.75 14.0623 7.68733 13.187 6.812C12.3117 5.93667 11.2493 5.49933 10 5.5C8.75 5.5 7.68734 5.93767 6.812 6.813C5.93667 7.68833 5.49934 8.75067 5.5 10C5.5 11.25 5.93767 12.3127 6.813 13.188C7.68833 14.0633 8.75067 14.5007 10 14.5ZM2 18C1.45 18 0.979002 17.804 0.587002 17.412C0.195002 17.02 -0.000664969 16.5493 1.69779e-06 16V4C1.69779e-06 3.45 0.196002 2.979 0.588002 2.587C0.980002 2.195 1.45067 1.99933 2 2H5.15L7 0H13L14.85 2H18C18.55 2 19.021 2.196 19.413 2.588C19.805 2.98 20.0007 3.45067 20 4V16C20 16.55 19.804 17.021 19.412 17.413C19.02 17.805 18.5493 18.0007 18 18H2Z" fill="#7EA373"/>
</svg>
