<svg width="22" height="22" viewBox="0 0 22 22" fill="none" xmlns="http://www.w3.org/2000/svg">
<path d="M9.46 12.98L7.095 10.615C6.89333 10.4133 6.63667 10.3125 6.325 10.3125C6.01333 10.3125 5.75667 10.4133 5.555 10.615C5.35333 10.8167 5.2525 11.0733 5.2525 11.385C5.2525 11.6967 5.35333 11.9533 5.555 12.155L8.69 15.29C8.91 15.51 9.16667 15.62 9.46 15.62C9.75333 15.62 10.01 15.51 10.23 15.29L16.445 9.075C16.6467 8.87333 16.7475 8.61667 16.7475 8.305C16.7475 7.99333 16.6467 7.73667 16.445 7.535C16.2433 7.33333 15.9867 7.2325 15.675 7.2325C15.3633 7.2325 15.1067 7.33333 14.905 7.535L9.46 12.98ZM11 22C9.47833 22 8.04833 21.7111 6.71 21.1332C5.37167 20.5553 4.2075 19.7718 3.2175 18.7825C2.2275 17.7925 1.44393 16.6283 0.8668 15.29C0.289667 13.9517 0.000733333 12.5217 0 11C0 9.47833 0.288933 8.04833 0.8668 6.71C1.44467 5.37167 2.22823 4.2075 3.2175 3.2175C4.2075 2.2275 5.37167 1.44393 6.71 0.8668C8.04833 0.289667 9.47833 0.000733333 11 0C12.5217 0 13.9517 0.288933 15.29 0.8668C16.6283 1.44467 17.7925 2.22823 18.7825 3.2175C19.7725 4.2075 20.5564 5.37167 21.1343 6.71C21.7122 8.04833 22.0007 9.47833 22 11C22 12.5217 21.7111 13.9517 21.1332 15.29C20.5553 16.6283 19.7718 17.7925 18.7825 18.7825C17.7925 19.7725 16.6283 20.5564 15.29 21.1343C13.9517 21.7122 12.5217 22.0007 11 22Z" fill="#7EA373"/>
</svg>
