<svg width="48" height="48" viewBox="0 0 48 48" fill="none" xmlns="http://www.w3.org/2000/svg">
<circle cx="24" cy="24" r="24" fill="white"/>
<path d="M32.7165 22.6889H18.3799L24.6433 16.257C25.1439 15.743 25.1439 14.8995 24.6433 14.3854C24.5246 14.2633 24.3835 14.1663 24.2283 14.1002C24.073 14.034 23.9065 14 23.7385 14C23.5704 14 23.4039 14.034 23.2486 14.1002C23.0934 14.1663 22.9523 14.2633 22.8336 14.3854L14.3754 23.0711C14.2564 23.193 14.162 23.3379 14.0976 23.4973C14.0332 23.6567 14 23.8277 14 24.0003C14 24.1729 14.0332 24.3438 14.0976 24.5033C14.162 24.6627 14.2564 24.8075 14.3754 24.9295L22.8336 33.6151C22.9524 33.7371 23.0935 33.8339 23.2487 33.9C23.404 33.966 23.5704 34 23.7385 34C23.9065 34 24.0729 33.966 24.2282 33.9C24.3834 33.8339 24.5245 33.7371 24.6433 33.6151C24.7621 33.4931 24.8564 33.3482 24.9207 33.1888C24.985 33.0294 25.0181 32.8585 25.0181 32.6859C25.0181 32.5134 24.985 32.3425 24.9207 32.183C24.8564 32.0236 24.7621 31.8788 24.6433 31.7567L18.3799 25.3249H32.7165C33.4224 25.3249 34 24.7318 34 24.0069C34 23.282 33.4224 22.6889 32.7165 22.6889Z" fill="#B5BBDB"/>
</svg>
