<svg width="21" height="20" viewBox="0 0 21 20" fill="none" xmlns="http://www.w3.org/2000/svg">
<path d="M19.8947 16.6667V17.7778C19.8947 18.3671 19.6618 18.9324 19.2473 19.3491C18.8327 19.7659 18.2705 20 17.6842 20H2.21053C1.62426 20 1.062 19.7659 0.647448 19.3491C0.232894 18.9324 0 18.3671 0 17.7778V2.22222C0 1.63285 0.232894 1.06762 0.647448 0.650874C1.062 0.234126 1.62426 0 2.21053 0H17.6842C18.2705 0 18.8327 0.234126 19.2473 0.650874C19.6618 1.06762 19.8947 1.63285 19.8947 2.22222V3.33333H9.94737C9.3611 3.33333 8.79884 3.56746 8.38429 3.98421C7.96974 4.40095 7.73684 4.96619 7.73684 5.55556V14.4444C7.73684 15.0338 7.96974 15.599 8.38429 16.0158C8.79884 16.4325 9.3611 16.6667 9.94737 16.6667M9.94737 14.4444H21V5.55556H9.94737M14.3684 11.6667C13.9287 11.6667 13.507 11.4911 13.1961 11.1785C12.8852 10.866 12.7105 10.442 12.7105 10C12.7105 9.55797 12.8852 9.13405 13.1961 8.82149C13.507 8.50893 13.9287 8.33333 14.3684 8.33333C14.8081 8.33333 15.2298 8.50893 15.5407 8.82149C15.8516 9.13405 16.0263 9.55797 16.0263 10C16.0263 10.442 15.8516 10.866 15.5407 11.1785C15.2298 11.4911 14.8081 11.6667 14.3684 11.6667Z" fill="#B5BBDB"/>
</svg>
