<svg width="509" height="286" viewBox="0 0 509 286" fill="none" xmlns="http://www.w3.org/2000/svg">
<path d="M176.266 199.083C176.266 199.083 133.636 264.278 154.326 281.204C175.017 298.129 242.719 244.846 242.719 244.846" fill="#E6BEAE"/>
<path d="M176.266 199.083C176.266 199.083 133.636 264.278 154.326 281.204C175.017 298.129 242.719 244.846 242.719 244.846" stroke="#1B2E3F" stroke-miterlimit="10" stroke-linecap="round"/>
<path d="M390.515 199.083C390.515 199.083 433.145 264.278 412.455 281.204C391.765 298.129 324.062 244.846 324.062 244.846" fill="#E6BEAE"/>
<path d="M390.515 199.083C390.515 199.083 433.145 264.278 412.455 281.204C391.765 298.129 324.062 244.846 324.062 244.846" stroke="#1B2E3F" stroke-miterlimit="10" stroke-linecap="round"/>
<path d="M87.9701 193.541C80.7129 195.872 70.3317 197.691 60.0146 194.27C53.1819 192.003 43.794 186.5 37.8584 173.171C34.3339 165.265 35.0629 156.694 35.6957 149.133C35.9761 145.801 36.4406 140.362 35.8639 138.295C35.0148 137.959 32.4035 137.206 26.3879 137.566C18.6581 138.031 12.0176 132.135 11.553 124.413C11.0884 116.684 16.9839 110.051 24.7057 109.579C38.9879 108.722 49.2409 111.709 56.0655 118.702C65.5736 128.443 64.4442 141.763 63.6272 151.488C63.3549 154.74 62.8902 160.195 63.483 161.805C65.5977 166.547 67.9206 167.34 68.8017 167.644C73.5277 169.254 81.0654 166.531 83.9731 164.961L83.885 165.009L97.5743 189.472C96.7493 189.937 93.1527 191.867 87.9621 193.533L87.9701 193.541Z" fill="#E6BEAE" stroke="#1B2E3F" stroke-miterlimit="10" stroke-linecap="round"/>
<path d="M97.5832 200.966C108.404 200.966 117.176 181.037 117.176 156.454C117.176 131.87 108.404 111.941 97.5832 111.941C86.7623 111.941 77.9902 131.87 77.9902 156.454C77.9902 181.037 86.7623 200.966 97.5832 200.966Z" fill="#E6BEAE" stroke="#1B2E3F" stroke-miterlimit="10" stroke-linecap="round"/>
<path d="M369.193 45.4971H410.83C419.065 45.4971 423.334 55.3256 417.711 61.3412L396.788 83.7377" fill="#E6BEAE"/>
<path d="M369.193 45.4971H410.83C419.065 45.4971 423.334 55.3256 417.711 61.3412L396.788 83.7377" stroke="#1B2E3F" stroke-miterlimit="10" stroke-linecap="round"/>
<path d="M412.929 97.4426C411.615 93.87 410.133 90.3535 408.491 86.9172C408.491 86.9012 408.483 86.8852 408.475 86.8772C384.509 36.5172 326.587 1 258.925 1C169.82 1 97.584 62.6063 97.584 138.599C97.584 214.591 169.82 276.198 258.925 276.198C296.653 276.198 331.361 265.152 358.836 246.648C358.836 246.648 358.836 246.648 358.844 246.648C363.185 243.724 367.343 240.608 371.308 237.324C407.249 214.824 450.721 220.631 450.721 220.631V127.961C432.586 128.746 420.723 113.895 412.921 97.4666L412.929 97.4426Z" fill="#E6BEAE" stroke="#1B2E3F" stroke-miterlimit="10" stroke-linecap="round"/>
<path d="M140.051 199.083C140.051 199.083 97.4212 264.278 118.111 281.204C138.802 298.129 206.504 244.846 206.504 244.846" fill="#E6BEAE"/>
<path d="M140.051 199.083C140.051 199.083 97.4212 264.278 118.111 281.204C138.802 298.129 206.504 244.846 206.504 244.846" stroke="#1B2E3F" stroke-miterlimit="10" stroke-linecap="round"/>
<path d="M374.495 199.083C374.495 199.083 417.126 264.278 396.435 281.204C375.745 298.129 308.043 244.846 308.043 244.846" fill="#E6BEAE"/>
<path d="M374.495 199.083C374.495 199.083 417.126 264.278 396.435 281.204C375.745 298.129 308.043 244.846 308.043 244.846" stroke="#1B2E3F" stroke-miterlimit="10" stroke-linecap="round"/>
<path d="M378.429 121.345C382.619 121.345 386.015 113.627 386.015 104.107C386.015 94.5868 382.619 86.8691 378.429 86.8691C374.24 86.8691 370.844 94.5868 370.844 104.107C370.844 113.627 374.24 121.345 378.429 121.345Z" fill="#1B2E3F"/>
<path d="M450.73 220.599C460.108 220.599 467.711 199.856 467.711 174.268C467.711 148.68 460.108 127.937 450.73 127.937C441.351 127.937 433.748 148.68 433.748 174.268C433.748 199.856 441.351 220.599 450.73 220.599Z" fill="#E6BEAE" stroke="#1B2E3F" stroke-miterlimit="10" stroke-linecap="round"/>
<path d="M217.592 19.2232L222.726 34.9312C234.197 32.0235 246.348 30.4535 258.932 30.4535C271.516 30.4535 284.204 32.0956 295.907 35.1314L300.193 19.2072C287.104 15.923 273.263 14.1528 258.932 14.1528C244.602 14.1528 230.704 15.9311 217.592 19.2232Z" fill="#1B2E3F"/>
<path d="M342.533 45.4971H268.759C261.254 45.4971 255.166 51.5848 255.166 59.0903V129.284C255.166 140.818 268.615 147.106 277.474 139.721L355.077 74.9585" fill="#E6BEAE"/>
<path d="M342.533 45.4971H268.759C261.254 45.4971 255.166 51.5848 255.166 59.0903V129.284C255.166 140.818 268.615 147.106 277.474 139.721L355.077 74.9585" stroke="#1B2E3F" stroke-miterlimit="10" stroke-linecap="round"/>
<path d="M458.193 157.391V194.061" stroke="#1B2E3F" stroke-miterlimit="10" stroke-linecap="round"/>
<path d="M447.227 157.391V194.061" stroke="#1B2E3F" stroke-miterlimit="10" stroke-linecap="round"/>
<path d="M66.9138 279.971C49.7066 279.971 35.7573 266.022 35.7573 248.815C35.7573 231.608 49.7066 217.658 66.9138 217.658C84.1211 217.658 98.0703 231.608 98.0703 248.815C98.0703 266.022 84.1211 279.971 66.9138 279.971Z" fill="#B2967D" stroke="#1B2E3F" stroke-miterlimit="10"/>
<path d="M45.3434 248.336C45.3434 260.512 55.2165 270.385 67.3926 270.385" stroke="#1B2E3F" stroke-miterlimit="10"/>
<path d="M88.4824 248.336C88.4824 236.689 79.0386 227.245 67.3919 227.245" stroke="#1B2E3F" stroke-miterlimit="10"/>
<path d="M1.24757 269.426H63.5605V284.765H1.24757V269.426Z" fill="#B2967D" stroke="#1B2E3F" stroke-miterlimit="10"/>
<path d="M5.08008 269.426V284.765" stroke="#1B2E3F" stroke-miterlimit="10"/>
<path d="M13.709 269.426V284.765" stroke="#1B2E3F" stroke-miterlimit="10"/>
<path d="M54.9336 269.426V284.765" stroke="#1B2E3F" stroke-miterlimit="10"/>
<path d="M48.2207 269.426V284.765" stroke="#1B2E3F" stroke-miterlimit="10"/>
<path d="M59.7227 269.426V284.765" stroke="#1B2E3F" stroke-miterlimit="10"/>
<path d="M507.913 237.177H444.6V252.746H507.913V237.177Z" fill="#B2967D" stroke="#1B2E3F" stroke-miterlimit="10"/>
<path d="M507.913 252.745H444.6V269.352H507.913V252.745Z" fill="#B2967D" stroke="#1B2E3F" stroke-miterlimit="10"/>
<path d="M507.913 269.353H444.6V284.921H507.913V269.353Z" fill="#B2967D" stroke="#1B2E3F" stroke-miterlimit="10"/>
<path d="M503.762 237.177V284.922" stroke="#1B2E3F" stroke-miterlimit="10"/>
<path d="M496.496 237.177V284.922" stroke="#1B2E3F" stroke-miterlimit="10"/>
<path d="M452.902 237.177V284.922" stroke="#1B2E3F" stroke-miterlimit="10"/>
<path d="M460.166 237.177V284.922" stroke="#1B2E3F" stroke-miterlimit="10"/>
<path d="M448.752 237.177V284.922" stroke="#1B2E3F" stroke-miterlimit="10"/>
</svg>
