<svg width="48" height="48" viewBox="0 0 48 48" fill="none" xmlns="http://www.w3.org/2000/svg">
<circle cx="24" cy="24" r="24" fill="#7EA373"/>
<path d="M32.6013 15.4123C32.475 15.2858 32.325 15.1854 32.1598 15.1169C31.9946 15.0483 31.8176 15.0131 31.6388 15.0131C31.46 15.0131 31.2829 15.0483 31.1178 15.1169C30.9526 15.1854 30.8026 15.2858 30.6763 15.4123L24 22.0749L17.3237 15.3987C17.1973 15.2723 17.0473 15.172 16.8821 15.1036C16.717 15.0352 16.54 15 16.3612 15C16.1825 15 16.0055 15.0352 15.8403 15.1036C15.6752 15.172 15.5251 15.2723 15.3987 15.3987C15.2723 15.5251 15.172 15.6752 15.1036 15.8403C15.0352 16.0055 15 16.1825 15 16.3612C15 16.54 15.0352 16.717 15.1036 16.8821C15.172 17.0473 15.2723 17.1973 15.3987 17.3237L22.0749 24L15.3987 30.6763C15.2723 30.8027 15.172 30.9527 15.1036 31.1179C15.0352 31.283 15 31.46 15 31.6388C15 31.8175 15.0352 31.9945 15.1036 32.1597C15.172 32.3248 15.2723 32.4749 15.3987 32.6013C15.5251 32.7277 15.6752 32.828 15.8403 32.8964C16.0055 32.9648 16.1825 33 16.3612 33C16.54 33 16.717 32.9648 16.8821 32.8964C17.0473 32.828 17.1973 32.7277 17.3237 32.6013L24 25.9251L30.6763 32.6013C30.8027 32.7277 30.9527 32.828 31.1179 32.8964C31.283 32.9648 31.46 33 31.6388 33C31.8175 33 31.9945 32.9648 32.1597 32.8964C32.3248 32.828 32.4749 32.7277 32.6013 32.6013C32.7277 32.4749 32.828 32.3248 32.8964 32.1597C32.9648 31.9945 33 31.8175 33 31.6388C33 31.46 32.9648 31.283 32.8964 31.1179C32.828 30.9527 32.7277 30.8027 32.6013 30.6763L25.9251 24L32.6013 17.3237C33.1201 16.8049 33.1201 15.9312 32.6013 15.4123Z" fill="white"/>
</svg>
