<svg width="24" height="24" fill="none" xmlns="http://www.w3.org/2000/svg"><g clip-path="url(#a)"><path d="M7.111 14.4c-.346 0-.637-.115-.871-.346a1.146 1.146 0 0 1-.351-.854c0-.34.117-.625.352-.856A1.19 1.19 0 0 1 7.11 12c.346 0 .637.115.872.345.234.23.351.516.35.855 0 .34-.117.625-.352.855a1.19 1.19 0 0 1-.87.345Zm4.889 0c-.346 0-.637-.115-.871-.346a1.146 1.146 0 0 1-.351-.854c0-.34.117-.625.352-.856A1.19 1.19 0 0 1 12 12c.346 0 .637.115.871.345.235.23.352.516.351.855 0 .34-.117.625-.352.855a1.19 1.19 0 0 1-.87.345Zm4.889 0c-.346 0-.637-.115-.872-.346a1.146 1.146 0 0 1-.35-.854c0-.34.117-.625.352-.856a1.19 1.19 0 0 1 .87-.344c.346 0 .637.115.871.345.235.23.352.516.351.855 0 .34-.117.625-.352.855a1.19 1.19 0 0 1-.87.345ZM3.444 24a2.377 2.377 0 0 1-1.727-.706A2.286 2.286 0 0 1 1 21.6V4.8c0-.66.24-1.225.719-1.696A2.371 2.371 0 0 1 3.444 2.4h1.223V0H7.11v2.4h9.778V0h2.444v2.4h1.223a2.38 2.38 0 0 1 1.727.705c.479.47.718 1.036.717 1.695v16.8c0 .66-.24 1.225-.719 1.695a2.37 2.37 0 0 1-1.725.705H3.444Zm0-2.4h17.112v-12H3.444v12Z" fill="#7EA373"/></g><defs><clipPath id="a"><path fill="#fff" d="M0 0h24v24H0z"/></clipPath></defs></svg>