<svg width="24" height="24" viewBox="0 0 24 24" fill="none" xmlns="http://www.w3.org/2000/svg">
<path d="M12 13.54L15.19 16.73C15.3917 16.9317 15.6483 17.0325 15.96 17.0325C16.2717 17.0325 16.5283 16.9317 16.73 16.73C16.9317 16.5283 17.0325 16.2717 17.0325 15.96C17.0325 15.6483 16.9317 15.3917 16.73 15.19L13.54 12L16.73 8.81C16.9317 8.60833 17.0325 8.35167 17.0325 8.04C17.0325 7.72833 16.9317 7.47167 16.73 7.27C16.5283 7.06833 16.2717 6.9675 15.96 6.9675C15.6483 6.9675 15.3917 7.06833 15.19 7.27L12 10.46L8.81 7.27C8.60833 7.06833 8.35167 6.9675 8.04 6.9675C7.72833 6.9675 7.47167 7.06833 7.27 7.27C7.06833 7.47167 6.9675 7.72833 6.9675 8.04C6.9675 8.35167 7.06833 8.60833 7.27 8.81L10.46 12L7.27 15.19C7.06833 15.3917 6.9675 15.6483 6.9675 15.96C6.9675 16.2717 7.06833 16.5283 7.27 16.73C7.47167 16.9317 7.72833 17.0325 8.04 17.0325C8.35167 17.0325 8.60833 16.9317 8.81 16.73L12 13.54ZM12 23C10.4783 23 9.04833 22.7111 7.71 22.1332C6.37167 21.5553 5.2075 20.7718 4.2175 19.7825C3.2275 18.7925 2.44393 17.6283 1.8668 16.29C1.28967 14.9517 1.00073 13.5217 1 12C1 10.4783 1.28893 9.04833 1.8668 7.71C2.44467 6.37167 3.22823 5.2075 4.2175 4.2175C5.2075 3.2275 6.37167 2.44393 7.71 1.8668C9.04833 1.28967 10.4783 1.00073 12 1C13.5217 1 14.9517 1.28893 16.29 1.8668C17.6283 2.44467 18.7925 3.22823 19.7825 4.2175C20.7725 5.2075 21.5564 6.37167 22.1343 7.71C22.7122 9.04833 23.0007 10.4783 23 12C23 13.5217 22.7111 14.9517 22.1332 16.29C21.5553 17.6283 20.7718 18.7925 19.7825 19.7825C18.7925 20.7725 17.6283 21.5564 16.29 22.1343C14.9517 22.7122 13.5217 23.0007 12 23Z" fill="#DF536C"/>
</svg>
