<svg width="22" height="22" viewBox="0 0 22 22" fill="none" xmlns="http://www.w3.org/2000/svg">
<path d="M9.46 12.9801L7.095 10.6151C6.89333 10.4135 6.63667 10.3126 6.325 10.3126C6.01333 10.3126 5.75667 10.4135 5.555 10.6151C5.35333 10.8168 5.2525 11.0735 5.2525 11.3851C5.2525 11.6968 5.35333 11.9535 5.555 12.1551L8.69 15.2901C8.91 15.5101 9.16667 15.6201 9.46 15.6201C9.75333 15.6201 10.01 15.5101 10.23 15.2901L16.445 9.07512C16.6467 8.87346 16.7475 8.61679 16.7475 8.30512C16.7475 7.99345 16.6467 7.73679 16.445 7.53512C16.2433 7.33346 15.9867 7.23262 15.675 7.23262C15.3633 7.23262 15.1067 7.33346 14.905 7.53512L9.46 12.9801ZM11 22.0001C9.47833 22.0001 8.04833 21.7112 6.71 21.1333C5.37167 20.5555 4.2075 19.7719 3.2175 18.7826C2.2275 17.7926 1.44393 16.6285 0.8668 15.2901C0.289667 13.9518 0.000733333 12.5218 0 11.0001C0 9.47845 0.288933 8.04846 0.8668 6.71012C1.44467 5.37179 2.22823 4.20762 3.2175 3.21762C4.2075 2.22762 5.37167 1.44406 6.71 0.866922C8.04833 0.289789 9.47833 0.000855404 11 0.00012207C12.5217 0.00012207 13.9517 0.289055 15.29 0.866922C16.6283 1.44479 17.7925 2.22836 18.7825 3.21762C19.7725 4.20762 20.5564 5.37179 21.1343 6.71012C21.7122 8.04846 22.0007 9.47845 22 11.0001C22 12.5218 21.7111 13.9518 21.1332 15.2901C20.5553 16.6285 19.7718 17.7926 18.7825 18.7826C17.7925 19.7726 16.6283 20.5566 15.29 21.1344C13.9517 21.7123 12.5217 22.0009 11 22.0001Z" fill="#DDE0F0"/>
</svg>
