<svg width="22" height="22" viewBox="0 0 22 22" fill="none" xmlns="http://www.w3.org/2000/svg">
<path d="M12.1 10.78L13.09 11.77C13.2917 11.9717 13.5483 12.0725 13.86 12.0725C14.1717 12.0725 14.4283 11.9717 14.63 11.77C14.8317 11.5683 14.9325 11.3117 14.9325 11C14.9325 10.6883 14.8317 10.4317 14.63 10.23L11.77 7.37C11.55 7.15 11.2933 7.04 11 7.04C10.7067 7.04 10.45 7.15 10.23 7.37L7.37 10.23C7.16833 10.4317 7.0675 10.6883 7.0675 11C7.0675 11.3117 7.16833 11.5683 7.37 11.77C7.57167 11.9717 7.82833 12.0725 8.14 12.0725C8.45167 12.0725 8.70833 11.9717 8.91 11.77L9.9 10.78L9.9 14.3C9.9 14.6117 10.0056 14.8731 10.2168 15.0843C10.428 15.2955 10.6891 15.4007 11 15.4C11.3117 15.4 11.5731 15.2944 11.7843 15.0832C11.9955 14.872 12.1007 14.6109 12.1 14.3L12.1 10.78ZM11 2.85305e-06C12.5217 2.98608e-06 13.9517 0.288938 15.29 0.866804C16.6283 1.44467 17.7925 2.22824 18.7825 3.2175C19.7725 4.2075 20.5561 5.37167 21.1332 6.71C21.7103 8.04834 21.9993 9.47834 22 11C22 12.5217 21.7111 13.9517 21.1332 15.29C20.5553 16.6283 19.7718 17.7925 18.7825 18.7825C17.7925 19.7725 16.6283 20.5561 15.29 21.1332C13.9517 21.7103 12.5217 21.9993 11 22C9.47833 22 8.04833 21.7111 6.71 21.1332C5.37167 20.5553 4.2075 19.7718 3.2175 18.7825C2.2275 17.7925 1.44357 16.6283 0.8657 15.29C0.287835 13.9517 -0.000733501 12.5217 9.6165e-07 11C1.09468e-06 9.47833 0.288934 8.04834 0.866802 6.71C1.44467 5.37167 2.22823 4.2075 3.2175 3.2175C4.2075 2.2275 5.37167 1.44357 6.71 0.865704C8.04834 0.287837 9.47834 -0.000729702 11 2.85305e-06Z" fill="url(#paint0_linear_157_4456)"/>
<defs>
<linearGradient id="paint0_linear_157_4456" x1="11" y1="22" x2="11" y2="9.45698e-07" gradientUnits="userSpaceOnUse">
<stop stop-color="#7EA373"/>
<stop offset="1" stop-color="#BBCBB6"/>
</linearGradient>
</defs>
</svg>
