<svg width="8" height="6" viewBox="0 0 8 6" fill="none" xmlns="http://www.w3.org/2000/svg">
<path d="M7.49996 -4.37147e-08L0.500065 -6.55665e-07C0.364644 -6.67504e-07 0.24742 0.0659273 0.148501 0.197893C0.0496378 0.329822 4.82045e-07 0.486049 4.66259e-07 0.666613C4.50474e-07 0.847176 0.0496101 1.00333 0.148501 1.13544L3.64846 5.80211C3.74735 5.93389 3.8645 6 4 6C4.1355 6 4.25265 5.93389 4.35162 5.80211L7.85158 1.13544C7.95055 1.00348 8 0.847177 8 0.666614C8 0.486087 7.95055 0.329823 7.85158 0.197894C7.7525 0.065928 7.63536 -3.18782e-08 7.49996 -4.37147e-08Z" fill="#B5BBDB"/>
</svg>
