<svg width="16" height="16" viewBox="0 0 16 16" fill="none" xmlns="http://www.w3.org/2000/svg">
<path d="M11.4235 12.0739H9.79389L8.0013 8.97761L6.20871 12.0739H4.57908L7.18649 7.99984L4.57908 3.92576H6.20871L8.0013 7.02206L9.79389 3.92576H11.4235L8.81612 7.99984M13.705 0.666504H2.2976C1.39315 0.666504 0.667969 1.39169 0.667969 2.29613V13.7035C0.667969 14.1357 0.839661 14.5502 1.14528 14.8559C1.45089 15.1615 1.86539 15.3332 2.2976 15.3332H13.705C14.1372 15.3332 14.5517 15.1615 14.8573 14.8559C15.1629 14.5502 15.3346 14.1357 15.3346 13.7035V2.29613C15.3346 1.86393 15.1629 1.44943 14.8573 1.14381C14.5517 0.838196 14.1372 0.666504 13.705 0.666504Z" fill="#7EA373"/>
</svg>
