<svg width="20" height="20" viewBox="0 0 20 20" fill="none" xmlns="http://www.w3.org/2000/svg">
<path d="M5.45455 10.9091V19.0909C5.45455 19.332 5.35877 19.5632 5.18828 19.7337C5.01779 19.9042 4.78656 20 4.54545 20H0.909091C0.667985 20 0.436754 19.9042 0.266267 19.7337C0.0957789 19.5632 0 19.332 0 19.0909V10.9091C0 10.668 0.0957789 10.4368 0.266267 10.2663C0.436754 10.0958 0.667985 10 0.909091 10H4.54545C4.78656 10 5.01779 10.0958 5.18828 10.2663C5.35877 10.4368 5.45455 10.668 5.45455 10.9091ZM11.8182 0H8.18182C7.94071 0 7.70948 0.0957789 7.53899 0.266267C7.36851 0.436754 7.27273 0.667985 7.27273 0.909091V19.0909C7.27273 19.332 7.36851 19.5632 7.53899 19.7337C7.70948 19.9042 7.94071 20 8.18182 20H11.8182C12.0593 20 12.2905 19.9042 12.461 19.7337C12.6315 19.5632 12.7273 19.332 12.7273 19.0909V0.909091C12.7273 0.667985 12.6315 0.436754 12.461 0.266267C12.2905 0.0957789 12.0593 0 11.8182 0ZM19.0909 4.54545H15.4545C15.2134 4.54545 14.9822 4.64123 14.8117 4.81172C14.6412 4.98221 14.5455 5.21344 14.5455 5.45455V19.0909C14.5455 19.332 14.6412 19.5632 14.8117 19.7337C14.9822 19.9042 15.2134 20 15.4545 20H19.0909C19.332 20 19.5632 19.9042 19.7337 19.7337C19.9042 19.5632 20 19.332 20 19.0909V5.45455C20 5.21344 19.9042 4.98221 19.7337 4.81172C19.5632 4.64123 19.332 4.54545 19.0909 4.54545Z" fill="#7EA373"/>
</svg>
