<svg width="22" height="22" viewBox="0 0 22 22" fill="none" xmlns="http://www.w3.org/2000/svg">
<path d="M11 0C17.0753 0 22 4.9247 22 11C22 17.0753 17.0753 22 11 22C4.9247 22 0 17.0753 0 11C0 4.9247 4.9247 0 11 0ZM12.65 4.4H8.8C8.53057 4.40004 8.27053 4.49895 8.06919 4.67799C7.86785 4.85702 7.73922 5.10372 7.7077 5.3713L7.7 5.5V9.9H7.15C6.86963 9.90031 6.59996 10.0077 6.39609 10.2001C6.19222 10.3926 6.06954 10.6556 6.05311 10.9355C6.03668 11.2154 6.12774 11.491 6.30769 11.706C6.48764 11.921 6.7429 12.0592 7.0213 12.0923L7.15 12.1H7.7V13.2H7.15C6.86963 13.2003 6.59996 13.3077 6.39609 13.5001C6.19222 13.6926 6.06954 13.9556 6.05311 14.2355C6.03668 14.5154 6.12774 14.791 6.30769 15.006C6.48764 15.221 6.7429 15.3592 7.0213 15.3923L7.15 15.4H7.7V16.5C7.70031 16.7804 7.80767 17.05 8.00013 17.2539C8.1926 17.4578 8.45565 17.5805 8.73553 17.5969C9.01542 17.6133 9.29102 17.5223 9.50602 17.3423C9.72101 17.1624 9.85919 16.9071 9.8923 16.6287L9.9 16.5V15.4H12.1C12.3804 15.3997 12.65 15.2923 12.8539 15.0999C13.0578 14.9074 13.1805 14.6444 13.1969 14.3645C13.2133 14.0846 13.1223 13.809 12.9423 13.594C12.7624 13.379 12.5071 13.2408 12.2287 13.2077L12.1 13.2H9.9V12.1H12.65C13.6538 12.1014 14.6184 11.7108 15.3383 11.0114C16.0583 10.312 16.4766 9.35901 16.5041 8.35564C16.5316 7.35226 16.1662 6.37781 15.4858 5.63993C14.8053 4.90206 13.8635 4.45911 12.8612 4.4055L12.65 4.4ZM12.65 6.6C13.0737 6.60021 13.4812 6.76343 13.7878 7.05585C14.0945 7.34827 14.2769 7.74746 14.2973 8.17071C14.3176 8.59396 14.1744 9.00881 13.8972 9.32932C13.62 9.64983 13.2302 9.85141 12.8084 9.8923L12.65 9.9H9.9V6.6H12.65Z" fill="#B5BBDB"/>
</svg>
