<svg width="572" height="506" fill="none" xmlns="http://www.w3.org/2000/svg"><path d="M501.165 20.038S464.285 7.314 400.03 40.883c-64.254 33.57-247.792 128.601-247.792 128.601l125.415 239.393s218.464-80.381 234.263-117.131c15.807-36.742-27.81-180.544-27.81-180.544l17.059-91.162Z" fill="#E7D8C9" stroke="#1B2E3F" stroke-miterlimit="10" stroke-linecap="round"/><path d="M521.28 211.233c25.086-.904 46.153 18.743 47.055 43.883.902 25.139-18.702 46.252-43.787 47.156l-87.638 3.159c-25.085.905-46.152-18.742-47.055-43.882-.902-25.139 18.702-46.252 43.788-47.156l87.637-3.16Z" fill="#E7D8C9" stroke="#1B2E3F" stroke-miterlimit="10" stroke-linecap="round"/><path d="M499.299 129.82c23.81-7.966 49.555 4.921 57.503 28.782 7.948 23.862-4.91 49.663-28.72 57.628L444.9 244.058c-23.81 7.965-49.555-4.921-57.503-28.782-7.949-23.862 4.91-49.663 28.72-57.628l83.182-27.828Z" fill="#E7D8C9" stroke="#1B2E3F" stroke-miterlimit="10" stroke-linecap="round"/><path d="m292.421 157.074 29.918 20.002c18.707 12.514 43.689 9.697 59.165-6.662 19.644-20.763 15.977-54.227-7.681-70.23L330.02 70.558c-22.487-15.21-52.138-14.417-73.785 1.99l-103.994 96.943" fill="#E7D8C9"/><path d="m292.421 157.074 29.918 20.002c18.707 12.514 43.689 9.697 59.165-6.662 19.644-20.763 15.977-54.227-7.681-70.23L330.02 70.558c-22.487-15.21-52.138-14.417-73.785 1.99l-103.994 96.943" stroke="#1B2E3F" stroke-miterlimit="10" stroke-linecap="round"/><path d="M383.804 121.36c36.153 0 65.466 29.376 65.466 65.607 0 36.232-29.313 65.608-65.466 65.608-36.154 0-65.466-29.376-65.466-65.608 0-36.231 29.312-65.607 65.466-65.607Zm0 119.186c29.522 0 53.463-23.984 53.463-53.579 0-29.594-23.933-53.578-53.463-53.578s-53.463 23.984-53.463 53.578c0 29.595 23.933 53.579 53.463 53.579Z" fill="#505050" stroke="#1B2E3F" stroke-miterlimit="10"/><path d="M327.733 244.982c4.766-24.049 27.632-40.514 51.888-37.333 26.639 3.497 44.699 28.494 40.047 54.704-3.167 17.849-16.025 31.529-32.18 36.572l-19.773 111.383-13.844-2.469-11.276-26.291a1.653 1.653 0 0 0-.896-.866c-6.099-2.558-9.822-9.091-8.619-15.882a14.482 14.482 0 0 1 10.242-11.389 1.628 1.628 0 0 0 .517-2.898c-4.305-3.165-6.696-8.605-5.694-14.239a14.48 14.48 0 0 1 10.241-11.389 1.628 1.628 0 0 0 .517-2.898c-4.305-3.165-6.696-8.605-5.694-14.23a14.484 14.484 0 0 1 10.137-11.357c-18.739-9.01-29.886-29.886-25.613-51.426v.008Zm42.276 29.449c11.179 1.991 21.857-5.472 23.844-16.675 1.987-11.204-5.46-21.905-16.639-23.896-11.179-1.991-21.857 5.472-23.844 16.675-1.987 11.203 5.46 21.904 16.639 23.896Z" fill="#505050" stroke="#1B2E3F" stroke-miterlimit="10"/><path d="M389.613 293.259c-25.306 4.055-49.198-13.065-53.495-38.442-4.322-25.522 12.826-49.725 38.294-54.056 25.467-4.331 49.618 12.854 53.939 38.377 3.021 17.865-4.475 35.074-17.98 45.282l18.885 111.561-42.381 7.204-3.595-21.24 21.195-3.603-3.594-21.24-21.195 3.602-3.594-21.24 21.194-3.603-7.188-42.464-.485-.146v.008Zm12.899-49.734c-1.898-11.219-12.511-18.771-23.714-16.869-11.203 1.902-18.731 12.538-16.833 23.766 1.898 11.227 12.511 18.771 23.714 16.869 11.195-1.902 18.731-12.538 16.833-23.766Z" fill="#505050" stroke="#1B2E3F" stroke-miterlimit="10"/><path d="M349.689 261.682c-10.266-22.253-1.454-49.054 20.031-60.783 23.594-12.887 52.866-3.327 64.497 20.609 7.924 16.302 5.557 34.936-4.54 48.544l49.417 101.718-12.641 6.168-24.555-14.611a1.622 1.622 0 0 0-1.227-.17c-6.43 1.53-13.279-1.554-16.292-7.755-2.496-5.132-1.688-11.025 1.599-15.25.848-1.093.097-2.647-1.284-2.647a14.455 14.455 0 0 1-12.964-8.152c-2.496-5.132-1.688-11.025 1.599-15.25a1.629 1.629 0 0 0-1.284-2.647 14.46 14.46 0 0 1-12.964-8.143c-2.48-5.1-1.696-10.944 1.527-15.162-20.444 3.772-41.711-6.54-50.903-26.469h-.016Zm51.476-1.126c10.21-4.978 14.458-17.314 9.483-27.546-4.968-10.231-17.278-14.489-27.487-9.503-10.21 4.978-14.458 17.315-9.483 27.546 4.968 10.232 17.277 14.49 27.487 9.503Z" fill="#505050" stroke="#1B2E3F" stroke-miterlimit="10"/><path d="M383.804 240.546c29.522 0 53.463-23.984 53.463-53.579a53.439 53.439 0 0 0-9.814-30.946l8.166-9.155c8.554 11.09 13.651 24.997 13.651 40.101 0 36.232-29.313 65.608-65.466 65.608" fill="#505050"/><path d="M383.804 240.546c29.522 0 53.463-23.984 53.463-53.579a53.439 53.439 0 0 0-9.814-30.946l8.166-9.155c8.554 11.09 13.651 24.997 13.651 40.101 0 36.232-29.313 65.608-65.466 65.608" stroke="#1B2E3F" stroke-miterlimit="10"/><path d="M462.452 34.93c16.784-18.753 45.56-20.32 64.273-3.5 18.713 16.821 20.276 45.66 3.492 64.413L471.75 161.17c-16.785 18.754-45.561 20.321-64.274 3.5-18.712-16.821-20.276-45.659-3.492-64.412l58.468-65.327Z" fill="#E7D8C9" stroke="#1B2E3F" stroke-miterlimit="10" stroke-linecap="round"/><path d="m1.182 246.981 151.06-77.49 129.429 239.676c6.97 12.903 2.237 29.019-10.598 36.086L169.01 501.446c-12.948 7.132-29.207 2.332-36.234-10.685L1.182 246.981Z" fill="#6D6460" stroke="#1B2E3F" stroke-miterlimit="10" stroke-linecap="round"/><path d="M183.435 446.143c-19.432 0-35.184-15.786-35.184-35.26 0-19.474 15.752-35.261 35.184-35.261 19.432 0 35.184 15.787 35.184 35.261 0 19.474-15.752 35.26-35.184 35.26Z" fill="#BBCBB6" stroke="#1B2E3F" stroke-miterlimit="10" stroke-linecap="round"/><path d="M193.709 405.856a5.264 5.264 0 0 1-5.259-5.269 5.265 5.265 0 0 1 5.259-5.27 5.264 5.264 0 0 1 5.258 5.27 5.263 5.263 0 0 1-5.258 5.269Zm-20.549 0a5.264 5.264 0 0 1-5.259-5.269 5.265 5.265 0 0 1 5.259-5.27 5.264 5.264 0 0 1 5.258 5.27 5.263 5.263 0 0 1-5.258 5.269Zm20.549 20.593a5.265 5.265 0 0 1-5.259-5.27 5.264 5.264 0 0 1 5.259-5.269 5.263 5.263 0 0 1 5.258 5.269 5.264 5.264 0 0 1-5.258 5.27Zm-20.549 0a5.265 5.265 0 0 1-5.259-5.27 5.264 5.264 0 0 1 5.259-5.269 5.263 5.263 0 0 1 5.258 5.269 5.264 5.264 0 0 1-5.258 5.27Z" fill="#1B2E3F"/></svg>