<svg width="22" height="24" viewBox="0 0 22 24" fill="none" xmlns="http://www.w3.org/2000/svg">
<path d="M10.9997 13.6921C12.5465 13.6921 13.9762 13.2562 15.12 12.5156C16.0059 11.9484 17.159 12.0421 17.9372 12.7499C20.0981 14.7093 21.3262 17.489 21.3215 20.4093V21.6609C21.3215 22.9546 20.2715 23.9999 18.9778 23.9999H3.02154C1.72779 23.9999 0.677788 22.9546 0.677788 21.6609V20.4093C0.668413 17.4937 1.89654 14.7093 4.05747 12.7546C4.8356 12.0468 5.99341 11.9531 6.87466 12.5203C8.0231 13.2562 9.4481 13.6921 10.9997 13.6921Z" fill="#B5BBDB"/>
<path d="M10.9984 11.6063C14.2034 11.6063 16.8016 9.0081 16.8016 5.80313C16.8016 2.59815 14.2034 0 10.9984 0C7.79346 0 5.19531 2.59815 5.19531 5.80313C5.19531 9.0081 7.79346 11.6063 10.9984 11.6063Z" fill="#B5BBDB"/>
</svg>
