<svg width="22" height="22" viewBox="0 0 22 22" fill="none" xmlns="http://www.w3.org/2000/svg">
<path d="M15.5547 0H6.44531C2.8875 0 0 2.8875 0 6.44531V15.5547C0 19.1125 2.8875 22 6.44531 22H15.5547C19.1125 22 22 19.1125 22 15.5547V6.44531C22 2.8875 19.1125 0 15.5547 0ZM13.2941 11.4559L10.725 14.025C10.3189 14.4311 9.62457 14.1436 9.62457 13.5691V12.375H6.1441C5.78832 12.375 5.49957 12.0863 5.49957 11.7305V10.2695C5.49957 9.91375 5.78832 9.625 6.1441 9.625H9.62457V8.4309C9.62457 7.85684 10.3189 7.56895 10.725 7.975L13.2941 10.5441C13.5459 10.7959 13.5459 11.2041 13.2941 11.4555V11.4559ZM16.5 14.4805C16.5 14.8363 16.2113 15.125 15.8555 15.125H15.082C14.7262 15.125 14.4375 14.8363 14.4375 14.4805V7.51953C14.4375 7.16375 14.7262 6.875 15.082 6.875H15.8555C16.2113 6.875 16.5 7.16375 16.5 7.51953V14.4805Z" fill="#B5BBDB"/>
</svg>
