<svg width="328" height="212" viewBox="0 0 328 212" fill="none" xmlns="http://www.w3.org/2000/svg">
<rect width="328" height="211.378" fill="#F6F8FC"/>
<rect width="327.544" height="211.378" fill="white"/>
<mask id="mask0_458_16833" style="mask-type:alpha" maskUnits="userSpaceOnUse" x="0" y="0" width="328" height="212">
<rect x="327.561" y="211.378" width="327.559" height="211.378" transform="rotate(-180 327.561 211.378)" fill="#F6F8FC"/>
</mask>
<g mask="url(#mask0_458_16833)">
<g filter="url(#filter0_f_458_16833)">
<ellipse cx="51.5825" cy="171.946" rx="33.5054" ry="13.3394" transform="rotate(-180 51.5825 171.946)" fill="url(#paint0_linear_458_16833)"/>
</g>
<g filter="url(#filter1_f_458_16833)">
<ellipse cx="-21.8217" cy="-32.5421" rx="72.9624" ry="15.8313" transform="rotate(-180 -21.8217 -32.5421)" fill="url(#paint1_linear_458_16833)"/>
</g>
<g filter="url(#filter2_f_458_16833)">
<ellipse cx="303.974" cy="-1.90558" rx="61.0591" ry="13.0462" transform="rotate(-180 303.974 -1.90558)" fill="url(#paint2_linear_458_16833)"/>
</g>
<g filter="url(#filter3_f_458_16833)">
<ellipse cx="362.167" cy="180.155" rx="61.0591" ry="21.5482" transform="rotate(-180 362.167 180.155)" fill="url(#paint3_linear_458_16833)"/>
</g>
</g>
<g clip-path="url(#clip0_458_16833)">
<path d="M-65.0879 -48.2133C-65.0879 -48.2133 133.085 49.4387 179.396 69.4202C225.704 89.4016 263.998 75.9328 335.654 -46.6516" stroke="#E7D8C9" stroke-width="12" stroke-miterlimit="10"/>
<path d="M59.6756 13.0624L46.8906 36.8678" stroke="#E7D8C9" stroke-width="12" stroke-miterlimit="10"/>
<path d="M126.246 43.4799L113.461 66.4036" stroke="#E7D8C9" stroke-width="12" stroke-miterlimit="10"/>
<path d="M189.729 74.7791L174.74 106.96" stroke="#E7D8C9" stroke-width="12" stroke-miterlimit="10"/>
<path d="M243.514 66.8441L269.524 75.2205" stroke="#E7D8C9" stroke-width="12" stroke-miterlimit="10"/>
<path d="M228.965 76.5424L229.847 125.475" stroke="#E7D8C9" stroke-width="12" stroke-miterlimit="10"/>
<path d="M49.0512 33.2188L13.0292 33.2628C9.45775 33.2672 6.56604 36.1658 6.5704 39.737L6.62196 81.9431C6.62633 85.5143 9.52511 88.4059 13.0966 88.4015L49.1186 88.3575C52.6901 88.3531 55.5818 85.4545 55.5774 81.8833L55.5258 39.6772C55.5215 36.106 52.6227 33.2144 49.0512 33.2188Z" fill="#E7D8C9"/>
<path d="M43.0176 38.3921L18.957 38.4215C14.5388 38.4269 10.9614 42.013 10.9668 46.4313L10.9962 70.4893C11.0016 74.9076 14.5877 78.485 19.006 78.4796L43.0665 78.4502C47.4848 78.4448 51.0621 74.8587 51.0567 70.4404L51.0273 46.3823C51.0219 41.9641 47.4358 38.3867 43.0176 38.3921Z" fill="#E6BEAE"/>
<path d="M40.9421 40.3064L20.8691 40.3309C16.4509 40.3363 12.8735 43.9224 12.8789 48.3407L12.9034 68.4114C12.9088 72.8297 16.4949 76.407 20.9132 76.4016L40.9861 76.3771C45.4044 76.3717 48.9818 72.7856 48.9764 68.3674L48.9518 48.2966C48.9464 43.8783 45.3604 40.301 40.9421 40.3064Z" fill="#E7D8C9"/>
<path d="M38.104 53.4617L31.2809 53.47C29.511 53.4722 28.0779 54.9087 28.0801 56.6787C28.0822 58.4486 29.5188 59.8816 31.2887 59.8795L38.1118 59.8711C39.8818 59.869 41.3148 58.4324 41.3126 56.6625C41.3105 54.8926 39.8739 53.4595 38.104 53.4617Z" fill="#E6BEAE"/>
<path d="M38.1119 61.5382L31.2887 61.5466C29.5188 61.5487 28.0857 62.9853 28.0879 64.7552C28.0901 66.5251 29.5266 67.9581 31.2965 67.956L38.1197 67.9477C39.8896 67.9455 41.3226 66.5089 41.3205 64.739C41.3183 62.9691 39.8818 61.5361 38.1119 61.5382Z" fill="#E6BEAE"/>
<path d="M21.9078 51.0347L21.9034 47.4704C21.9018 46.1188 20.8048 45.0244 19.4532 45.0261C18.1016 45.0277 17.0072 46.1247 17.0088 47.4763L17.0132 51.0407C17.0149 52.3923 18.1119 53.4866 19.4635 53.485C20.8151 53.4833 21.9094 52.3863 21.9078 51.0347Z" fill="#F6F8FC"/>
<path d="M34.7181 88.3483C37.4705 88.3483 39.7018 86.117 39.7018 83.3646C39.7018 80.6122 37.4705 78.3809 34.7181 78.3809C31.9656 78.3809 29.7344 80.6122 29.7344 83.3646C29.7344 86.117 31.9656 88.3483 34.7181 88.3483Z" fill="#E6BEAE" stroke="white" stroke-miterlimit="10"/>
<path d="M34.72 78.367L29.7363 78.373L29.7424 83.3567L34.7261 83.3507L34.72 78.367Z" fill="#E6BEAE" stroke="white" stroke-miterlimit="10"/>
<path d="M34.7188 83.3647L34.7251 88.3484" stroke="white" stroke-miterlimit="10"/>
<path d="M34.7188 83.3646L39.7025 83.3582" stroke="white" stroke-miterlimit="10"/>
<path d="M34.719 83.3646L31.1992 86.8939" stroke="white" stroke-miterlimit="10"/>
<path d="M38.2385 79.9915L34.7188 83.5176" stroke="white" stroke-miterlimit="10"/>
<path d="M34.7188 83.3647L38.2481 86.8845" stroke="white" stroke-miterlimit="10"/>
<path d="M131.675 78.1635L104.089 54.9999C101.354 52.7033 97.275 53.0587 94.9784 55.7937L67.8369 88.1168C65.5403 90.8518 65.8958 94.9307 68.6308 97.2273L96.2165 120.391C98.9515 122.687 103.03 122.332 105.327 119.597L132.469 87.274C134.765 84.539 134.41 80.4601 131.675 78.1635Z" fill="#E7D8C9"/>
<path d="M123.832 78.2016L105.406 62.7302C102.022 59.8891 96.976 60.3288 94.1347 63.7124L78.6627 82.1373C75.8215 85.5208 76.2612 90.5669 79.6448 93.408L98.0707 108.879C101.454 111.721 106.501 111.281 109.342 107.897L124.814 89.4724C127.655 86.0888 127.215 81.0427 123.832 78.2016Z" fill="#E6BEAE"/>
<path d="M120.931 78.4402L105.558 65.5331C102.175 62.692 97.1283 63.1317 94.287 66.5153L81.3791 81.8864C78.5378 85.2699 78.9775 90.316 82.3612 93.1571L97.7334 106.064C101.117 108.905 106.163 108.466 109.005 105.082L121.913 89.7109C124.754 86.3274 124.314 81.2813 120.931 78.4402Z" fill="#E7D8C9"/>
<path d="M110.26 86.5971L105.034 82.2096C103.679 81.0715 101.657 81.2476 100.519 82.603C99.381 83.9584 99.5571 85.9798 100.913 87.118L106.138 91.5055C107.494 92.6436 109.515 92.4674 110.653 91.112C111.791 89.7566 111.615 87.7352 110.26 86.5971Z" fill="#E6BEAE"/>
<path d="M105.066 92.7843L99.841 88.3968C98.4855 87.2587 96.464 87.4348 95.3258 88.7902C94.1876 90.1456 94.3638 92.167 95.7192 93.3051L100.945 97.6927C102.3 98.8308 104.322 98.6546 105.46 97.2992C106.598 95.9438 106.422 93.9224 105.066 92.7843Z" fill="#E6BEAE"/>
<path d="M99.4333 74.3143L101.725 71.5847C102.595 70.5497 102.46 69.006 101.425 68.1369C100.39 67.2678 98.8462 67.4023 97.977 68.4374L95.6848 71.167C94.8156 72.202 94.9501 73.7456 95.9853 74.6148C97.0204 75.4839 98.5641 75.3494 99.4333 74.3143Z" fill="#F6F8FC"/>
<path d="M88.431 112.276C91.1834 112.276 93.4147 110.045 93.4147 107.292C93.4147 104.54 91.1834 102.309 88.431 102.309C85.6785 102.309 83.4473 104.54 83.4473 107.292C83.4473 110.045 85.6785 112.276 88.431 112.276Z" fill="#E6BEAE" stroke="white" stroke-miterlimit="10"/>
<path d="M87.8162 100.273L84.6113 104.089L88.428 107.294L91.6329 103.477L87.8162 100.273Z" fill="#E6BEAE" stroke="white" stroke-miterlimit="10"/>
<path d="M88.4325 107.292L85.2246 111.111" stroke="white" stroke-miterlimit="10"/>
<path d="M88.4316 107.292L92.2474 110.5" stroke="white" stroke-miterlimit="10"/>
<path d="M88.4287 107.292L83.4609 107.725" stroke="white" stroke-miterlimit="10"/>
<path d="M93.2979 106.98L88.3301 107.413" stroke="white" stroke-miterlimit="10"/>
<path d="M88.4316 107.292L88.8644 112.26" stroke="white" stroke-miterlimit="10"/>
<path d="M186.857 93.9158L151.586 101.233C148.089 101.958 145.842 105.381 146.567 108.878L155.141 150.204C155.867 153.701 159.29 155.947 162.787 155.222L198.058 147.905C201.555 147.18 203.802 143.757 203.076 140.26L194.502 98.9339C193.777 95.4371 190.354 93.1904 186.857 93.9158Z" fill="#E7D8C9"/>
<path d="M182.06 100.338L158.501 105.225C154.175 106.122 151.396 110.357 152.293 114.683L157.18 138.239C158.078 142.565 162.313 145.345 166.639 144.448L190.198 139.56C194.524 138.663 197.303 134.429 196.406 130.102L191.518 106.546C190.621 102.22 186.386 99.4401 182.06 100.338Z" fill="#E6BEAE"/>
<path d="M180.488 102.455L160.833 106.532C156.507 107.429 153.728 111.664 154.625 115.99L158.702 135.642C159.6 139.968 163.835 142.748 168.161 141.851L187.815 137.773C192.141 136.876 194.921 132.641 194.023 128.315L189.946 108.663C189.049 104.337 184.814 101.557 180.488 102.455Z" fill="#E7D8C9"/>
<path d="M180.223 115.955L173.542 117.341C171.809 117.7 170.696 119.397 171.055 121.13C171.415 122.863 173.111 123.976 174.844 123.617L181.525 122.231C183.258 121.871 184.372 120.175 184.012 118.442C183.652 116.709 181.956 115.595 180.223 115.955Z" fill="#E6BEAE"/>
<path d="M181.862 123.861L175.181 125.247C173.448 125.606 172.334 127.303 172.694 129.036C173.054 130.769 174.75 131.882 176.483 131.523L183.164 130.137C184.897 129.777 186.01 128.081 185.651 126.348C185.291 124.615 183.595 123.501 181.862 123.861Z" fill="#E6BEAE"/>
<path d="M163.871 116.847L163.147 113.357C162.873 112.034 161.577 111.183 160.254 111.458C158.93 111.732 158.08 113.028 158.355 114.351L159.079 117.841C159.353 119.165 160.649 120.015 161.972 119.74C163.295 119.466 164.146 118.17 163.871 116.847Z" fill="#F6F8FC"/>
<path d="M182.962 150.873C185.715 150.873 187.946 148.642 187.946 145.89C187.946 143.137 185.715 140.906 182.962 140.906C180.21 140.906 177.979 143.137 177.979 145.89C177.979 148.642 180.21 150.873 182.962 150.873Z" fill="#E6BEAE" stroke="white" stroke-miterlimit="10"/>
<path d="M181.938 141.03L177.059 142.042L178.071 146.922L182.951 145.91L181.938 141.03Z" fill="#E6BEAE" stroke="white" stroke-miterlimit="10"/>
<path d="M182.963 145.889L183.975 150.768" stroke="white" stroke-miterlimit="10"/>
<path d="M182.963 145.89L187.842 144.874" stroke="white" stroke-miterlimit="10"/>
<path d="M182.963 145.889L180.227 150.055" stroke="white" stroke-miterlimit="10"/>
<path d="M185.726 141.873L182.992 146.039" stroke="white" stroke-miterlimit="10"/>
<path d="M182.963 145.889L187.129 148.623" stroke="white" stroke-miterlimit="10"/>
<path d="M206.322 129.932L207.768 165.923C207.911 169.491 210.92 172.268 214.489 172.124L256.664 170.43C260.232 170.287 263.009 167.278 262.866 163.71L261.42 127.719C261.277 124.151 258.267 121.374 254.699 121.517L212.524 123.211C208.956 123.355 206.179 126.363 206.322 129.932Z" fill="#E7D8C9"/>
<path d="M211.629 135.703L212.595 159.742C212.772 164.156 216.495 167.591 220.91 167.414L244.951 166.449C249.365 166.271 252.801 162.549 252.623 158.134L251.658 134.095C251.48 129.681 247.758 126.246 243.343 126.423L219.302 127.388C214.887 127.566 211.452 131.288 211.629 135.703Z" fill="#E6BEAE"/>
<path d="M213.827 137.673L214.632 157.728C214.809 162.142 218.532 165.577 222.947 165.4L243.003 164.595C247.418 164.417 250.853 160.695 250.676 156.28L249.87 136.225C249.693 131.811 245.971 128.376 241.556 128.553L221.499 129.358C217.084 129.536 213.649 133.258 213.827 137.673Z" fill="#E7D8C9"/>
<path d="M226.978 140.085L227.252 146.902C227.323 148.671 228.815 150.047 230.583 149.976C232.351 149.905 233.728 148.413 233.657 146.645L233.383 139.828C233.312 138.059 231.82 136.683 230.052 136.754C228.283 136.825 226.907 138.317 226.978 140.085Z" fill="#E6BEAE"/>
<path d="M235.049 139.764L235.323 146.581C235.394 148.35 236.885 149.726 238.653 149.655C240.422 149.584 241.798 148.092 241.727 146.324L241.453 139.507C241.382 137.738 239.891 136.362 238.122 136.433C236.354 136.504 234.978 137.996 235.049 139.764Z" fill="#E6BEAE"/>
<path d="M225.179 156.36L221.618 156.504C220.268 156.558 219.217 157.697 219.271 159.047C219.325 160.398 220.464 161.448 221.814 161.394L225.376 161.251C226.726 161.197 227.777 160.058 227.723 158.708C227.669 157.357 226.53 156.306 225.179 156.36Z" fill="#F6F8FC"/>
<path d="M272.475 61.7609L259.566 95.3883C258.286 98.7224 259.951 102.463 263.285 103.742L302.69 118.868C306.025 120.148 309.765 118.482 311.045 115.148L323.954 81.5209C325.234 78.1868 323.569 74.4465 320.235 73.1667L280.829 58.0414C277.495 56.7616 273.755 58.4269 272.475 61.7609Z" fill="#E7D8C9"/>
<path d="M272.475 61.7611L259.566 95.3884C258.286 98.7225 259.951 102.463 263.285 103.743L302.69 118.868C306.025 120.148 309.765 118.482 311.045 115.148L323.954 81.521C325.234 78.187 323.569 74.4467 320.235 73.1668L280.829 58.0415C277.495 56.7617 273.755 58.427 272.475 61.7611Z" fill="#E7D8C9"/>
<path d="M275.134 69.2832L266.512 91.7435C264.928 95.8683 266.988 100.496 271.113 102.079L293.576 110.701C297.7 112.284 302.328 110.224 303.911 106.099L312.534 83.6388C314.117 79.514 312.057 74.8867 307.932 73.3034L285.47 64.6814C281.345 63.0981 276.717 65.1584 275.134 69.2832Z" fill="#E6BEAE"/>
<path d="M276.217 71.7369L269.023 90.4747C267.44 94.5995 269.5 99.2268 273.625 100.81L292.365 108.003C296.489 109.586 301.117 107.526 302.7 103.401L309.894 84.6635C311.477 80.5388 309.417 75.9115 305.292 74.3282L286.552 67.1352C282.427 65.5519 277.8 67.6122 276.217 71.7369Z" fill="#E7D8C9"/>
<path d="M287.434 79.2567L284.988 85.6262C284.354 87.2785 285.179 89.1321 286.832 89.7664C288.484 90.4006 290.338 89.5753 290.972 87.923L293.417 81.5535C294.052 79.9012 293.226 78.0475 291.574 77.4133C289.922 76.7791 288.068 77.6044 287.434 79.2567Z" fill="#E6BEAE"/>
<path d="M294.976 82.1511L292.531 88.5206C291.897 90.1729 292.722 92.0265 294.375 92.6608C296.027 93.295 297.881 92.4697 298.515 90.8174L300.96 84.4479C301.595 82.7956 300.769 80.9419 299.117 80.3077C297.465 79.6735 295.611 80.4988 294.976 82.1511Z" fill="#E6BEAE"/>
<path d="M279.347 93.4916L276.019 92.2143C274.758 91.73 273.342 92.3602 272.858 93.6221C272.373 94.8839 273.003 96.2994 274.265 96.7838L277.593 98.0611C278.855 98.5454 280.27 97.9151 280.755 96.6533C281.239 95.3915 280.609 93.9759 279.347 93.4916Z" fill="#F6F8FC"/>
<path d="M314.128 98.1467C316.881 98.1467 319.112 95.9154 319.112 93.163C319.112 90.4106 316.881 88.1793 314.128 88.1793C311.376 88.1793 309.145 90.4106 309.145 93.163C309.145 95.9154 311.376 98.1467 314.128 98.1467Z" fill="#E6BEAE" stroke="white" stroke-miterlimit="10"/>
<path d="M309.46 91.365L307.674 96.0176L312.327 97.8036L314.113 93.1509L309.46 91.365Z" fill="#E6BEAE" stroke="white" stroke-miterlimit="10"/>
<path d="M314.129 93.1628L318.782 94.9481" stroke="white" stroke-miterlimit="10"/>
<path d="M314.129 93.163L315.914 88.5103" stroke="white" stroke-miterlimit="10"/>
<path d="M314.129 93.1628L316.156 97.7169" stroke="white" stroke-miterlimit="10"/>
<path d="M312.244 88.663L314.271 93.2171" stroke="white" stroke-miterlimit="10"/>
<path d="M314.129 93.1629L318.683 91.1357" stroke="white" stroke-miterlimit="10"/>
<path d="M-7.34616 125.043C-2.50745 125.043 1.4151 121.12 1.4151 116.282C1.4151 111.443 -2.50745 107.521 -7.34616 107.521C-12.1849 107.521 -16.1074 111.443 -16.1074 116.282C-16.1074 121.12 -12.1849 125.043 -7.34616 125.043Z" fill="url(#paint4_linear_458_16833)"/>
<path d="M-1.4424 116.715C1.14481 116.715 3.24215 114.618 3.24215 112.031C3.24215 109.443 1.14481 107.346 -1.4424 107.346C-4.02961 107.346 -6.12695 109.443 -6.12695 112.031C-6.12695 114.618 -4.02961 116.715 -1.4424 116.715Z" fill="url(#paint5_linear_458_16833)"/>
<path d="M-4.52638 127.856C-1.93918 127.856 0.15817 125.759 0.15817 123.172C0.15817 120.584 -1.93918 118.487 -4.52638 118.487C-7.11359 118.487 -9.21094 120.584 -9.21094 123.172C-9.21094 125.759 -7.11359 127.856 -4.52638 127.856Z" fill="url(#paint6_linear_458_16833)"/>
<path d="M36.3232 141.406C43.786 141.406 49.8358 135.356 49.8358 127.894C49.8358 120.432 43.786 114.382 36.3232 114.382C28.8604 114.382 22.8105 120.432 22.8105 127.894C22.8105 135.356 28.8604 141.406 36.3232 141.406Z" fill="#BBCBB6"/>
<path d="M22.9089 132.575C26.9005 132.575 30.1363 129.339 30.1363 125.348C30.1363 121.357 26.9005 118.121 22.9089 118.121C18.9174 118.121 15.6816 121.357 15.6816 125.348C15.6816 129.339 18.9174 132.575 22.9089 132.575Z" fill="#BBCBB6"/>
<path d="M43.2879 123.614C47.2794 123.614 50.5152 120.378 50.5152 116.387C50.5152 112.395 47.2794 109.16 43.2879 109.16C39.2963 109.16 36.0605 112.395 36.0605 116.387C36.0605 120.378 39.2963 123.614 43.2879 123.614Z" fill="#BBCBB6"/>
<path d="M47.4675 133.829C51.4591 133.829 54.6949 130.593 54.6949 126.602C54.6949 122.611 51.4591 119.375 47.4675 119.375C43.476 119.375 40.2402 122.611 40.2402 126.602C40.2402 130.593 43.476 133.829 47.4675 133.829Z" fill="#BBCBB6"/>
<path d="M31.28 126.599C35.2716 126.599 38.5074 123.363 38.5074 119.372C38.5074 115.38 35.2716 112.145 31.28 112.145C27.2885 112.145 24.0527 115.38 24.0527 119.372C24.0527 123.363 27.2885 126.599 31.28 126.599Z" fill="#BBCBB6"/>
<path d="M42.6101 145.352C46.6017 145.352 49.8375 142.116 49.8375 138.125C49.8375 134.133 46.6017 130.898 42.6101 130.898C38.6186 130.898 35.3828 134.133 35.3828 138.125C35.3828 142.116 38.6186 145.352 42.6101 145.352Z" fill="#BBCBB6"/>
<path d="M30.1355 144.273C34.1271 144.273 37.3628 141.037 37.3628 137.046C37.3628 133.055 34.1271 129.819 30.1355 129.819C26.144 129.819 22.9082 133.055 22.9082 137.046C22.9082 141.037 26.144 144.273 30.1355 144.273Z" fill="#BBCBB6"/>
<path d="M151.976 86.3437C157.953 86.3437 162.799 81.498 162.799 75.5207C162.799 69.5433 157.953 64.6977 151.976 64.6977C145.998 64.6977 141.152 69.5433 141.152 75.5207C141.152 81.498 145.998 86.3437 151.976 86.3437Z" fill="url(#paint7_linear_458_16833)"/>
<path d="M141.232 79.2693C144.429 79.2693 147.021 76.6777 147.021 73.4807C147.021 70.2838 144.429 67.6921 141.232 67.6921C138.035 67.6921 135.443 70.2838 135.443 73.4807C135.443 76.6777 138.035 79.2693 141.232 79.2693Z" fill="url(#paint8_linear_458_16833)"/>
<path d="M157.553 72.0933C160.75 72.0933 163.341 69.5017 163.341 66.3047C163.341 63.1078 160.75 60.5161 157.553 60.5161C154.355 60.5161 151.764 63.1078 151.764 66.3047C151.764 69.5017 154.355 72.0933 157.553 72.0933Z" fill="url(#paint9_linear_458_16833)"/>
<path d="M160.898 80.2717C164.095 80.2717 166.687 77.68 166.687 74.4831C166.687 71.2861 164.095 68.6945 160.898 68.6945C157.701 68.6945 155.109 71.2861 155.109 74.4831C155.109 77.68 157.701 80.2717 160.898 80.2717Z" fill="url(#paint10_linear_458_16833)"/>
<path d="M147.933 74.4833C151.13 74.4833 153.722 71.8917 153.722 68.6947C153.722 65.4978 151.13 62.9061 147.933 62.9061C144.736 62.9061 142.145 65.4978 142.145 68.6947C142.145 71.8917 144.736 74.4833 147.933 74.4833Z" fill="url(#paint11_linear_458_16833)"/>
<path d="M157.01 89.5033C160.207 89.5033 162.798 86.9117 162.798 83.7147C162.798 80.5178 160.207 77.9261 157.01 77.9261C153.812 77.9261 151.221 80.5178 151.221 83.7147C151.221 86.9117 153.812 89.5033 157.01 89.5033Z" fill="url(#paint12_linear_458_16833)"/>
<path d="M147.023 88.6378C150.22 88.6378 152.812 86.0462 152.812 82.8492C152.812 79.6522 150.22 77.0606 147.023 77.0606C143.826 77.0606 141.234 79.6522 141.234 82.8492C141.234 86.0462 143.826 88.6378 147.023 88.6378Z" fill="url(#paint13_linear_458_16833)"/>
<path d="M82.6672 1.10082C88.6449 1.10082 93.4907 -3.7448 93.4907 -9.72218C93.4907 -15.6996 88.6449 -20.5452 82.6672 -20.5452C76.6896 -20.5452 71.8438 -15.6996 71.8438 -9.72218C71.8438 -3.7448 76.6896 1.10082 82.6672 1.10082Z" fill="url(#paint14_linear_458_16833)"/>
<path d="M87.701 4.26066C90.8981 4.26066 93.4898 1.66902 93.4898 -1.52794C93.4898 -4.72489 90.8981 -7.31653 87.701 -7.31653C84.5039 -7.31653 81.9121 -4.72489 81.9121 -1.52794C81.9121 1.66902 84.5039 4.26066 87.701 4.26066Z" fill="url(#paint15_linear_458_16833)"/>
<path d="M77.7146 3.39824C80.9117 3.39824 83.5035 0.806596 83.5035 -2.39036C83.5035 -5.58731 80.9117 -8.17896 77.7146 -8.17896C74.5175 -8.17896 71.9258 -5.58731 71.9258 -2.39036C71.9258 0.806596 74.5175 3.39824 77.7146 3.39824Z" fill="url(#paint16_linear_458_16833)"/>
<path d="M99.5813 6.16057C105.559 6.16057 110.405 1.31495 110.405 -4.66242C110.405 -10.6398 105.559 -15.4854 99.5813 -15.4854C93.6037 -15.4854 88.7578 -10.6398 88.7578 -4.66242C88.7578 1.31495 93.6037 6.16057 99.5813 6.16057Z" fill="url(#paint17_linear_458_16833)"/>
<path d="M108.508 0.0917826C111.705 0.0917826 114.296 -2.49986 114.296 -5.69682C114.296 -8.89377 111.705 -11.4854 108.508 -11.4854C105.311 -11.4854 102.719 -8.89377 102.719 -5.69682C102.719 -2.49986 105.311 0.0917826 108.508 0.0917826Z" fill="url(#paint18_linear_458_16833)"/>
<path d="M104.619 9.32036C107.816 9.32036 110.408 6.72871 110.408 3.53176C110.408 0.334808 107.816 -2.25684 104.619 -2.25684C101.422 -2.25684 98.8301 0.334808 98.8301 3.53176C98.8301 6.72871 101.422 9.32036 104.619 9.32036Z" fill="url(#paint19_linear_458_16833)"/>
<path d="M94.6326 8.45787C97.8297 8.45787 100.421 5.86623 100.421 2.66927C100.421 -0.52768 97.8297 -3.11932 94.6326 -3.11932C91.4355 -3.11932 88.8438 -0.52768 88.8438 2.66927C88.8438 5.86623 91.4355 8.45787 94.6326 8.45787Z" fill="url(#paint20_linear_458_16833)"/>
<path d="M43.7942 158.577C49.7718 158.577 54.6177 153.732 54.6177 147.754C54.6177 141.777 49.7718 136.931 43.7942 136.931C37.8165 136.931 32.9707 141.777 32.9707 147.754C32.9707 153.732 37.8165 158.577 43.7942 158.577Z" fill="url(#paint21_linear_458_16833)"/>
<path d="M33.0506 151.503C36.2477 151.503 38.8394 148.911 38.8394 145.714C38.8394 142.517 36.2477 139.926 33.0506 139.926C29.8535 139.926 27.2617 142.517 27.2617 145.714C27.2617 148.911 29.8535 151.503 33.0506 151.503Z" fill="url(#paint22_linear_458_16833)"/>
<path d="M49.3709 144.327C52.568 144.327 55.1598 141.735 55.1598 138.538C55.1598 135.342 52.568 132.75 49.3709 132.75C46.1738 132.75 43.582 135.342 43.582 138.538C43.582 141.735 46.1738 144.327 49.3709 144.327Z" fill="url(#paint23_linear_458_16833)"/>
<path d="M52.7205 152.505C55.9176 152.505 58.5094 149.914 58.5094 146.717C58.5094 143.52 55.9176 140.928 52.7205 140.928C49.5234 140.928 46.9316 143.52 46.9316 146.717C46.9316 149.914 49.5234 152.505 52.7205 152.505Z" fill="url(#paint24_linear_458_16833)"/>
<path d="M39.7576 146.717C42.9547 146.717 45.5465 144.126 45.5465 140.929C45.5465 137.732 42.9547 135.14 39.7576 135.14C36.5605 135.14 33.9688 137.732 33.9688 140.929C33.9688 144.126 36.5605 146.717 39.7576 146.717Z" fill="url(#paint25_linear_458_16833)"/>
<path d="M48.8279 161.737C52.025 161.737 54.6168 159.145 54.6168 155.949C54.6168 152.752 52.025 150.16 48.8279 150.16C45.6308 150.16 43.0391 152.752 43.0391 155.949C43.0391 159.145 45.6308 161.737 48.8279 161.737Z" fill="url(#paint26_linear_458_16833)"/>
<path d="M38.8416 160.872C42.0387 160.872 44.6305 158.28 44.6305 155.083C44.6305 151.886 42.0387 149.294 38.8416 149.294C35.6445 149.294 33.0527 151.886 33.0527 155.083C33.0527 158.28 35.6445 160.872 38.8416 160.872Z" fill="url(#paint27_linear_458_16833)"/>
<path d="M142.689 170.562C148.666 170.562 153.512 165.716 153.512 159.739C153.512 153.761 148.666 148.916 142.689 148.916C136.711 148.916 131.865 153.761 131.865 159.739C131.865 165.716 136.711 170.562 142.689 170.562Z" fill="url(#paint28_linear_458_16833)"/>
<path d="M131.945 163.487C135.142 163.487 137.734 160.896 137.734 157.699C137.734 154.502 135.142 151.91 131.945 151.91C128.748 151.91 126.156 154.502 126.156 157.699C126.156 160.896 128.748 163.487 131.945 163.487Z" fill="url(#paint29_linear_458_16833)"/>
<path d="M148.265 156.311C151.463 156.311 154.054 153.72 154.054 150.523C154.054 147.326 151.463 144.734 148.265 144.734C145.068 144.734 142.477 147.326 142.477 150.523C142.477 153.72 145.068 156.311 148.265 156.311Z" fill="url(#paint30_linear_458_16833)"/>
<path d="M151.615 164.49C154.812 164.49 157.404 161.898 157.404 158.701C157.404 155.504 154.812 152.913 151.615 152.913C148.418 152.913 145.826 155.504 145.826 158.701C145.826 161.898 148.418 164.49 151.615 164.49Z" fill="url(#paint31_linear_458_16833)"/>
<path d="M138.652 158.701C141.849 158.701 144.441 156.11 144.441 152.913C144.441 149.716 141.849 147.124 138.652 147.124C135.455 147.124 132.863 149.716 132.863 152.913C132.863 156.11 135.455 158.701 138.652 158.701Z" fill="url(#paint32_linear_458_16833)"/>
<path d="M147.722 173.721C150.92 173.721 153.511 171.13 153.511 167.933C153.511 164.736 150.92 162.144 147.722 162.144C144.525 162.144 141.934 164.736 141.934 167.933C141.934 171.13 144.525 173.721 147.722 173.721Z" fill="url(#paint33_linear_458_16833)"/>
<path d="M137.736 172.856C140.933 172.856 143.525 170.264 143.525 167.067C143.525 163.87 140.933 161.279 137.736 161.279C134.539 161.279 131.947 163.87 131.947 167.067C131.947 170.264 134.539 172.856 137.736 172.856Z" fill="url(#paint34_linear_458_16833)"/>
<path d="M325.947 155.484C331.924 155.484 336.77 150.638 336.77 144.661C336.77 138.684 331.924 133.838 325.947 133.838C319.969 133.838 315.123 138.684 315.123 144.661C315.123 150.638 319.969 155.484 325.947 155.484Z" fill="#BBCBB6"/>
<path d="M315.203 148.41C318.4 148.41 320.992 145.818 320.992 142.621C320.992 139.424 318.4 136.833 315.203 136.833C312.006 136.833 309.414 139.424 309.414 142.621C309.414 145.818 312.006 148.41 315.203 148.41Z" fill="#BBCBB6"/>
<path d="M331.523 141.234C334.72 141.234 337.312 138.642 337.312 135.445C337.312 132.248 334.72 129.657 331.523 129.657C328.326 129.657 325.734 132.248 325.734 135.445C325.734 138.642 328.326 141.234 331.523 141.234Z" fill="#BBCBB6"/>
<path d="M321.91 143.624C325.107 143.624 327.699 141.032 327.699 137.835C327.699 134.638 325.107 132.047 321.91 132.047C318.713 132.047 316.121 134.638 316.121 137.835C316.121 141.032 318.713 143.624 321.91 143.624Z" fill="#BBCBB6"/>
<path d="M330.98 158.644C334.177 158.644 336.769 156.052 336.769 152.855C336.769 149.658 334.177 147.067 330.98 147.067C327.783 147.067 325.191 149.658 325.191 152.855C325.191 156.052 327.783 158.644 330.98 158.644Z" fill="#BBCBB6"/>
<path d="M320.994 157.778C324.191 157.778 326.783 155.187 326.783 151.99C326.783 148.793 324.191 146.201 320.994 146.201C317.797 146.201 315.205 148.793 315.205 151.99C315.205 155.187 317.797 157.778 320.994 157.778Z" fill="#BBCBB6"/>
<path d="M297.997 194.094C303.975 194.094 308.821 189.249 308.821 183.271C308.821 177.294 303.975 172.448 297.997 172.448C292.02 172.448 287.174 177.294 287.174 183.271C287.174 189.249 292.02 194.094 297.997 194.094Z" fill="#BBCBB6"/>
<path d="M287.254 187.02C290.451 187.02 293.043 184.428 293.043 181.231C293.043 178.034 290.451 175.443 287.254 175.443C284.057 175.443 281.465 178.034 281.465 181.231C281.465 184.428 284.057 187.02 287.254 187.02Z" fill="#BBCBB6"/>
<path d="M303.574 179.844C306.771 179.844 309.363 177.252 309.363 174.056C309.363 170.859 306.771 168.267 303.574 168.267C300.377 168.267 297.785 170.859 297.785 174.056C297.785 177.252 300.377 179.844 303.574 179.844Z" fill="#BBCBB6"/>
<path d="M306.92 188.022C310.117 188.022 312.709 185.431 312.709 182.234C312.709 179.037 310.117 176.445 306.92 176.445C303.723 176.445 301.131 179.037 301.131 182.234C301.131 185.431 303.723 188.022 306.92 188.022Z" fill="#BBCBB6"/>
<path d="M293.961 182.234C297.158 182.234 299.75 179.642 299.75 176.446C299.75 173.249 297.158 170.657 293.961 170.657C290.764 170.657 288.172 173.249 288.172 176.446C288.172 179.642 290.764 182.234 293.961 182.234Z" fill="#BBCBB6"/>
<path d="M303.031 197.254C306.228 197.254 308.82 194.663 308.82 191.466C308.82 188.269 306.228 185.677 303.031 185.677C299.834 185.677 297.242 188.269 297.242 191.466C297.242 194.663 299.834 197.254 303.031 197.254Z" fill="#BBCBB6"/>
<path d="M293.045 196.389C296.242 196.389 298.834 193.797 298.834 190.6C298.834 187.403 296.242 184.811 293.045 184.811C289.848 184.811 287.256 187.403 287.256 190.6C287.256 193.797 289.848 196.389 293.045 196.389Z" fill="#BBCBB6"/>
<path d="M237.679 38.9376C243.657 38.9376 248.502 34.092 248.502 28.1146C248.502 22.1372 243.657 17.2916 237.679 17.2916C231.701 17.2916 226.855 22.1372 226.855 28.1146C226.855 34.092 231.701 38.9376 237.679 38.9376Z" fill="#BBCBB6"/>
<path d="M226.935 31.8634C230.132 31.8634 232.724 29.2718 232.724 26.0749C232.724 22.8779 230.132 20.2863 226.935 20.2863C223.738 20.2863 221.146 22.8779 221.146 26.0749C221.146 29.2718 223.738 31.8634 226.935 31.8634Z" fill="#BBCBB6"/>
<path d="M243.256 24.6905C246.453 24.6905 249.045 22.0989 249.045 18.9019C249.045 15.705 246.453 13.1133 243.256 13.1133C240.059 13.1133 237.467 15.705 237.467 18.9019C237.467 22.0989 240.059 24.6905 243.256 24.6905Z" fill="#BBCBB6"/>
<path d="M246.601 32.8689C249.798 32.8689 252.39 30.2772 252.39 27.0803C252.39 23.8833 249.798 21.2917 246.601 21.2917C243.404 21.2917 240.812 23.8833 240.812 27.0803C240.812 30.2772 243.404 32.8689 246.601 32.8689Z" fill="#BBCBB6"/>
<path d="M233.642 27.0806C236.839 27.0806 239.431 24.4889 239.431 21.292C239.431 18.095 236.839 15.5034 233.642 15.5034C230.445 15.5034 227.854 18.095 227.854 21.292C227.854 24.4889 230.445 27.0806 233.642 27.0806Z" fill="#BBCBB6"/>
<path d="M242.713 42.0975C245.91 42.0975 248.502 39.5058 248.502 36.3089C248.502 33.1119 245.91 30.5203 242.713 30.5203C239.516 30.5203 236.924 33.1119 236.924 36.3089C236.924 39.5058 239.516 42.0975 242.713 42.0975Z" fill="#BBCBB6"/>
<path d="M232.726 41.235C235.923 41.235 238.515 38.6434 238.515 35.4464C238.515 32.2495 235.923 29.6578 232.726 29.6578C229.529 29.6578 226.938 32.2495 226.938 35.4464C226.938 38.6434 229.529 41.235 232.726 41.235Z" fill="#BBCBB6"/>
<path d="M24.134 163.713C30.1117 163.713 34.9575 158.868 34.9575 152.89C34.9575 146.913 30.1117 142.068 24.134 142.068C18.1564 142.068 13.3105 146.913 13.3105 152.89C13.3105 158.868 18.1564 163.713 24.134 163.713Z" fill="url(#paint35_linear_458_16833)"/>
<path d="M13.3904 156.639C16.5875 156.639 19.1793 154.048 19.1793 150.851C19.1793 147.654 16.5875 145.062 13.3904 145.062C10.1933 145.062 7.60156 147.654 7.60156 150.851C7.60156 154.048 10.1933 156.639 13.3904 156.639Z" fill="url(#paint36_linear_458_16833)"/>
<path d="M29.7107 149.463C32.9078 149.463 35.4996 146.872 35.4996 143.675C35.4996 140.478 32.9078 137.886 29.7107 137.886C26.5136 137.886 23.9219 140.478 23.9219 143.675C23.9219 146.872 26.5136 149.463 29.7107 149.463Z" fill="url(#paint37_linear_458_16833)"/>
<path d="M33.0564 157.642C36.2535 157.642 38.8453 155.05 38.8453 151.853C38.8453 148.656 36.2535 146.064 33.0564 146.064C29.8593 146.064 27.2676 148.656 27.2676 151.853C27.2676 155.05 29.8593 157.642 33.0564 157.642Z" fill="url(#paint38_linear_458_16833)"/>
<path d="M20.0975 151.853C23.2946 151.853 25.8863 149.262 25.8863 146.065C25.8863 142.868 23.2946 140.276 20.0975 140.276C16.9004 140.276 14.3086 142.868 14.3086 146.065C14.3086 149.262 16.9004 151.853 20.0975 151.853Z" fill="url(#paint39_linear_458_16833)"/>
<path d="M29.1677 166.873C32.3648 166.873 34.9566 164.282 34.9566 161.085C34.9566 157.888 32.3648 155.296 29.1677 155.296C25.9706 155.296 23.3789 157.888 23.3789 161.085C23.3789 164.282 25.9706 166.873 29.1677 166.873Z" fill="url(#paint40_linear_458_16833)"/>
<path d="M19.1814 166.008C22.3785 166.008 24.9703 163.416 24.9703 160.219C24.9703 157.022 22.3785 154.43 19.1814 154.43C15.9843 154.43 13.3926 157.022 13.3926 160.219C13.3926 163.416 15.9843 166.008 19.1814 166.008Z" fill="url(#paint41_linear_458_16833)"/>
<path d="M251.55 52.3381C257.528 52.3381 262.374 47.4924 262.374 41.5151C262.374 35.5377 257.528 30.6921 251.55 30.6921C245.572 30.6921 240.727 35.5377 240.727 41.5151C240.727 47.4924 245.572 52.3381 251.55 52.3381Z" fill="url(#paint42_linear_458_16833)"/>
<path d="M240.806 45.2638C244.004 45.2638 246.595 42.6722 246.595 39.4752C246.595 36.2783 244.004 33.6866 240.806 33.6866C237.609 33.6866 235.018 36.2783 235.018 39.4752C235.018 42.6722 237.609 45.2638 240.806 45.2638Z" fill="url(#paint43_linear_458_16833)"/>
<path d="M257.129 38.0878C260.326 38.0878 262.918 35.4962 262.918 32.2992C262.918 29.1023 260.326 26.5106 257.129 26.5106C253.932 26.5106 251.34 29.1023 251.34 32.2992C251.34 35.4962 253.932 38.0878 257.129 38.0878Z" fill="url(#paint44_linear_458_16833)"/>
<path d="M260.476 46.2662C263.673 46.2662 266.265 43.6745 266.265 40.4776C266.265 37.2806 263.673 34.689 260.476 34.689C257.279 34.689 254.688 37.2806 254.688 40.4776C254.688 43.6745 257.279 46.2662 260.476 46.2662Z" fill="url(#paint45_linear_458_16833)"/>
<path d="M247.513 40.4778C250.711 40.4778 253.302 37.8862 253.302 34.6892C253.302 31.4923 250.711 28.9006 247.513 28.9006C244.316 28.9006 241.725 31.4923 241.725 34.6892C241.725 37.8862 244.316 40.4778 247.513 40.4778Z" fill="url(#paint46_linear_458_16833)"/>
<path d="M256.588 55.4979C259.785 55.4979 262.377 52.9063 262.377 49.7093C262.377 46.5124 259.785 43.9207 256.588 43.9207C253.391 43.9207 250.799 46.5124 250.799 49.7093C250.799 52.9063 253.391 55.4979 256.588 55.4979Z" fill="url(#paint47_linear_458_16833)"/>
<path d="M246.599 54.6323C249.796 54.6323 252.388 52.0407 252.388 48.8437C252.388 45.6468 249.796 43.0551 246.599 43.0551C243.402 43.0551 240.811 45.6468 240.811 48.8437C240.811 52.0407 243.402 54.6323 246.599 54.6323Z" fill="url(#paint48_linear_458_16833)"/>
<path d="M184.198 8.30196C193.549 8.30196 201.129 0.722343 201.129 -8.62759C201.129 -17.9775 193.549 -25.5571 184.198 -25.5571C174.848 -25.5571 167.268 -17.9775 167.268 -8.62759C167.268 0.722343 174.848 8.30196 184.198 8.30196Z" fill="url(#paint49_linear_458_16833)"/>
<path d="M197.431 5.16128C202.431 5.16128 206.485 1.10783 206.485 -3.89235C206.485 -8.89254 202.431 -12.946 197.431 -12.946C192.431 -12.946 188.377 -8.89254 188.377 -3.89235C188.377 1.10783 192.431 5.16128 197.431 5.16128Z" fill="url(#paint50_linear_458_16833)"/>
<path d="M185.576 15.4081C190.576 15.4081 194.63 11.3547 194.63 6.35447C194.63 1.35429 190.576 -2.69916 185.576 -2.69916C180.575 -2.69916 176.521 1.35429 176.521 6.35447C176.521 11.3547 180.575 15.4081 185.576 15.4081Z" fill="url(#paint51_linear_458_16833)"/>
<path d="M172.167 7.27109C177.168 7.27109 181.221 3.21764 181.221 -1.78254C181.221 -6.78273 177.168 -10.8362 172.167 -10.8362C167.167 -10.8362 163.113 -6.78273 163.113 -1.78254C163.113 3.21764 167.167 7.27109 172.167 7.27109Z" fill="url(#paint52_linear_458_16833)"/>
<path d="M203.204 62.1648C207.513 62.1648 211.007 58.6713 211.007 54.3618C211.007 50.0524 207.513 46.5588 203.204 46.5588C198.894 46.5588 195.4 50.0524 195.4 54.3618C195.4 58.6713 198.894 62.1648 203.204 62.1648Z" fill="#BBCBB6"/>
<path d="M195.463 57.064C197.767 57.064 199.635 55.1961 199.635 52.8919C199.635 50.5876 197.767 48.7197 195.463 48.7197C193.159 48.7197 191.291 50.5876 191.291 52.8919C191.291 55.1961 193.159 57.064 195.463 57.064Z" fill="#BBCBB6"/>
<path d="M207.229 51.8928C209.533 51.8928 211.401 50.0248 211.401 47.7206C211.401 45.4164 209.533 43.5484 207.229 43.5484C204.925 43.5484 203.057 45.4164 203.057 47.7206C203.057 50.0248 204.925 51.8928 207.229 51.8928Z" fill="#BBCBB6"/>
<path d="M209.643 57.7896C211.947 57.7896 213.815 55.9216 213.815 53.6174C213.815 51.3131 211.947 49.4452 209.643 49.4452C207.339 49.4452 205.471 51.3131 205.471 53.6174C205.471 55.9216 207.339 57.7896 209.643 57.7896Z" fill="#BBCBB6"/>
<path d="M200.295 53.6144C202.599 53.6144 204.467 51.7465 204.467 49.4423C204.467 47.138 202.599 45.2701 200.295 45.2701C197.991 45.2701 196.123 47.138 196.123 49.4423C196.123 51.7465 197.991 53.6144 200.295 53.6144Z" fill="#BBCBB6"/>
<path d="M206.838 64.4435C209.142 64.4435 211.01 62.5756 211.01 60.2714C211.01 57.9671 209.142 56.0992 206.838 56.0992C204.534 56.0992 202.666 57.9671 202.666 60.2714C202.666 62.5756 204.534 64.4435 206.838 64.4435Z" fill="#BBCBB6"/>
<path d="M199.637 63.8198C201.941 63.8198 203.809 61.9519 203.809 59.6476C203.809 57.3434 201.941 55.4755 199.637 55.4755C197.333 55.4755 195.465 57.3434 195.465 59.6476C195.465 61.9519 197.333 63.8198 199.637 63.8198Z" fill="#BBCBB6"/>
<path d="M169.151 22.5108C173.461 22.5108 176.954 19.0173 176.954 14.7078C176.954 10.3984 173.461 6.90485 169.151 6.90485C164.841 6.90485 161.348 10.3984 161.348 14.7078C161.348 19.0173 164.841 22.5108 169.151 22.5108Z" fill="#BBCBB6"/>
<path d="M161.407 17.41C163.711 17.41 165.579 15.5421 165.579 13.2379C165.579 10.9336 163.711 9.06567 161.407 9.06567C159.102 9.06567 157.234 10.9336 157.234 13.2379C157.234 15.5421 159.102 17.41 161.407 17.41Z" fill="#BBCBB6"/>
<path d="M173.172 12.2356C175.476 12.2356 177.344 10.3676 177.344 8.06342C177.344 5.75918 175.476 3.89124 173.172 3.89124C170.868 3.89124 169 5.75918 169 8.06342C169 10.3676 170.868 12.2356 173.172 12.2356Z" fill="#BBCBB6"/>
<path d="M175.588 18.1324C177.892 18.1324 179.76 16.2645 179.76 13.9603C179.76 11.656 177.892 9.78809 175.588 9.78809C173.284 9.78809 171.416 11.656 171.416 13.9603C171.416 16.2645 173.284 18.1324 175.588 18.1324Z" fill="#BBCBB6"/>
<path d="M166.241 13.9573C168.545 13.9573 170.413 12.0893 170.413 9.7851C170.413 7.48086 168.545 5.61292 166.241 5.61292C163.936 5.61292 162.068 7.48086 162.068 9.7851C162.068 12.0893 163.936 13.9573 166.241 13.9573Z" fill="#BBCBB6"/>
<path d="M172.782 24.7864C175.086 24.7864 176.954 22.9184 176.954 20.6142C176.954 18.31 175.086 16.442 172.782 16.442C170.477 16.442 168.609 18.31 168.609 20.6142C168.609 22.9184 170.477 24.7864 172.782 24.7864Z" fill="#BBCBB6"/>
<path d="M165.58 24.1626C167.885 24.1626 169.753 22.2946 169.753 19.9904C169.753 17.6862 167.885 15.8182 165.58 15.8182C163.276 15.8182 161.408 17.6862 161.408 19.9904C161.408 22.2946 163.276 24.1626 165.58 24.1626Z" fill="#BBCBB6"/>
<path d="M119.87 24.9389C124.179 24.9389 127.673 21.4454 127.673 17.1359C127.673 12.8265 124.179 9.33295 119.87 9.33295C115.56 9.33295 112.066 12.8265 112.066 17.1359C112.066 21.4454 115.56 24.9389 119.87 24.9389Z" fill="#BBCBB6"/>
<path d="M115.338 14.8578C117.642 14.8578 119.51 12.9898 119.51 10.6856C119.51 8.38138 117.642 6.51343 115.338 6.51343C113.034 6.51343 111.166 8.38138 111.166 10.6856C111.166 12.9898 113.034 14.8578 115.338 14.8578Z" fill="#BBCBB6"/>
<path d="M127.383 19.348C129.687 19.348 131.555 17.4801 131.555 15.1758C131.555 12.8716 129.687 11.0037 127.383 11.0037C125.079 11.0037 123.211 12.8716 123.211 15.1758C123.211 17.4801 125.079 19.348 127.383 19.348Z" fill="#BBCBB6"/>
<path d="M125.002 25.2574C127.306 25.2574 129.174 23.3894 129.174 21.0852C129.174 18.781 127.306 16.913 125.002 16.913C122.698 16.913 120.83 18.781 120.83 21.0852C120.83 23.3894 122.698 25.2574 125.002 25.2574Z" fill="#BBCBB6"/>
<path d="M121.209 15.752C123.514 15.752 125.381 13.8841 125.381 11.5798C125.381 9.2756 123.514 7.40765 121.209 7.40765C118.905 7.40765 117.037 9.2756 117.037 11.5798C117.037 13.8841 118.905 15.752 121.209 15.752Z" fill="#BBCBB6"/>
<path d="M118.356 28.0769C120.66 28.0769 122.528 26.209 122.528 23.9047C122.528 21.6005 120.66 19.7325 118.356 19.7325C116.052 19.7325 114.184 21.6005 114.184 23.9047C114.184 26.209 116.052 28.0769 118.356 28.0769Z" fill="#BBCBB6"/>
<path d="M113.625 22.6097C115.93 22.6097 117.797 20.7418 117.797 18.4376C117.797 16.1333 115.93 14.2654 113.625 14.2654C111.321 14.2654 109.453 16.1333 109.453 18.4376C109.453 20.7418 111.321 22.6097 113.625 22.6097Z" fill="#BBCBB6"/>
<path d="M137.433 203.795C136.317 207.958 138.788 212.236 142.95 213.352C147.113 214.467 151.392 211.997 152.508 207.834C153.623 203.671 151.153 199.393 146.99 198.277C142.827 197.162 138.548 199.632 137.433 203.795Z" fill="#BBCBB6"/>
<path d="M148.344 202.029C147.748 204.254 149.069 206.542 151.294 207.138C153.52 207.735 155.808 206.414 156.404 204.188C157.001 201.963 155.68 199.675 153.454 199.078C151.229 198.482 148.941 199.803 148.344 202.029Z" fill="#BBCBB6"/>
<path d="M140.889 212.499C140.293 214.725 141.614 217.012 143.839 217.609C146.065 218.205 148.353 216.884 148.949 214.659C149.546 212.433 148.225 210.145 145.999 209.549C143.774 208.952 141.486 210.273 140.889 212.499Z" fill="#BBCBB6"/>
<path d="M135.797 208.671C135.201 210.897 136.522 213.184 138.748 213.781C140.973 214.377 143.261 213.056 143.858 210.83C144.454 208.605 143.133 206.317 140.907 205.721C138.682 205.124 136.394 206.445 135.797 208.671Z" fill="#BBCBB6"/>
<path d="M145.96 207.468C145.363 209.693 146.684 211.981 148.91 212.577C151.135 213.174 153.423 211.853 154.02 209.627C154.616 207.401 153.295 205.114 151.07 204.517C148.844 203.921 146.556 205.242 145.96 207.468Z" fill="#BBCBB6"/>
<path d="M134.794 201.521C134.197 203.746 135.518 206.034 137.744 206.63C139.969 207.227 142.257 205.906 142.854 203.68C143.45 201.455 142.129 199.167 139.904 198.57C137.678 197.974 135.39 199.295 134.794 201.521Z" fill="#BBCBB6"/>
<path d="M141.299 198.367C140.703 200.593 142.024 202.881 144.25 203.477C146.475 204.073 148.763 202.753 149.36 200.527C149.956 198.301 148.635 196.013 146.409 195.417C144.184 194.821 141.896 196.142 141.299 198.367Z" fill="#BBCBB6"/>
<path d="M286.532 160.057C290.842 160.057 294.335 156.564 294.335 152.254C294.335 147.945 290.842 144.451 286.532 144.451C282.222 144.451 278.729 147.945 278.729 152.254C278.729 156.564 282.222 160.057 286.532 160.057Z" fill="#BBCBB6"/>
<path d="M282 149.973C284.305 149.973 286.173 148.105 286.173 145.801C286.173 143.496 284.305 141.628 282 141.628C279.696 141.628 277.828 143.496 277.828 145.801C277.828 148.105 279.696 149.973 282 149.973Z" fill="#BBCBB6"/>
<path d="M294.045 154.466C296.349 154.466 298.217 152.598 298.217 150.294C298.217 147.99 296.349 146.122 294.045 146.122C291.741 146.122 289.873 147.99 289.873 150.294C289.873 152.598 291.741 154.466 294.045 154.466Z" fill="#BBCBB6"/>
<path d="M291.664 160.375C293.969 160.375 295.837 158.507 295.837 156.203C295.837 153.899 293.969 152.031 291.664 152.031C289.36 152.031 287.492 153.899 287.492 156.203C287.492 158.507 289.36 160.375 291.664 160.375Z" fill="#BBCBB6"/>
<path d="M287.873 150.87C290.178 150.87 292.046 149.002 292.046 146.698C292.046 144.394 290.178 142.526 287.873 142.526C285.569 142.526 283.701 144.394 283.701 146.698C283.701 149.002 285.569 150.87 287.873 150.87Z" fill="#BBCBB6"/>
<path d="M285.018 163.192C287.322 163.192 289.19 161.324 289.19 159.02C289.19 156.715 287.322 154.847 285.018 154.847C282.714 154.847 280.846 156.715 280.846 159.02C280.846 161.324 282.714 163.192 285.018 163.192Z" fill="#BBCBB6"/>
<path d="M280.287 157.728C282.592 157.728 284.46 155.86 284.46 153.556C284.46 151.251 282.592 149.383 280.287 149.383C277.983 149.383 276.115 151.251 276.115 153.556C276.115 155.86 277.983 157.728 280.287 157.728Z" fill="#BBCBB6"/>
<path d="M58.0054 143.258C62.8441 143.258 66.7667 139.336 66.7667 134.497C66.7667 129.659 62.8441 125.736 58.0054 125.736C53.1667 125.736 49.2441 129.659 49.2441 134.497C49.2441 139.336 53.1667 143.258 58.0054 143.258Z" fill="url(#paint53_linear_458_16833)"/>
<path d="M64.2978 132.954C66.885 132.954 68.9824 130.857 68.9824 128.27C68.9824 125.682 66.885 123.585 64.2978 123.585C61.7106 123.585 59.6133 125.682 59.6133 128.27C59.6133 130.857 61.7106 132.954 64.2978 132.954Z" fill="url(#paint54_linear_458_16833)"/>
<path d="M61.5927 147.131C64.18 147.131 66.2773 145.034 66.2773 142.447C66.2773 139.859 64.18 137.762 61.5927 137.762C59.0055 137.762 56.9082 139.859 56.9082 142.447C56.9082 145.034 59.0055 147.131 61.5927 147.131Z" fill="url(#paint55_linear_458_16833)"/>
<path d="M54.6006 145.607C57.1878 145.607 59.2851 143.509 59.2851 140.922C59.2851 138.335 57.1878 136.238 54.6006 136.238C52.0134 136.238 49.916 138.335 49.916 140.922C49.916 143.509 52.0134 145.607 54.6006 145.607Z" fill="url(#paint56_linear_458_16833)"/>
<path d="M52.4267 134.256C55.0139 134.256 57.1113 132.158 57.1113 129.571C57.1113 126.984 55.0139 124.887 52.4267 124.887C49.8395 124.887 47.7422 126.984 47.7422 129.571C47.7422 132.158 49.8395 134.256 52.4267 134.256Z" fill="url(#paint57_linear_458_16833)"/>
<path d="M192.131 197.286C194.858 191.967 192.757 185.445 187.437 182.718C182.118 179.991 175.595 182.092 172.868 187.411C170.141 192.73 172.242 199.252 177.561 201.98C182.88 204.707 189.403 202.605 192.131 197.286Z" fill="#BBCBB6"/>
<path d="M178.758 188.625C180.217 185.78 179.093 182.291 176.248 180.832C173.403 179.374 169.914 180.498 168.456 183.343C166.997 186.188 168.121 189.676 170.966 191.135C173.811 192.593 177.3 191.47 178.758 188.625Z" fill="#BBCBB6"/>
<path d="M196.585 188.97C198.043 186.125 196.919 182.636 194.074 181.178C191.229 179.719 187.741 180.843 186.282 183.688C184.823 186.533 185.947 190.021 188.792 191.48C191.637 192.939 195.126 191.815 196.585 188.97Z" fill="#BBCBB6"/>
<path d="M196.186 197.798C197.645 194.953 196.521 191.465 193.676 190.006C190.831 188.548 187.342 189.672 185.883 192.517C184.425 195.361 185.549 198.85 188.394 200.309C191.239 201.767 194.727 200.643 196.186 197.798Z" fill="#BBCBB6"/>
<path d="M186.854 187.1C188.313 184.255 187.189 180.766 184.344 179.307C181.499 177.849 178.01 178.973 176.551 181.818C175.093 184.663 176.216 188.151 179.061 189.61C181.906 191.068 185.395 189.945 186.854 187.1Z" fill="#BBCBB6"/>
<path d="M188.778 204.539C190.237 201.694 189.113 198.206 186.268 196.747C183.423 195.288 179.934 196.412 178.475 199.257C177.017 202.102 178.14 205.591 180.985 207.049C183.83 208.508 187.319 207.384 188.778 204.539Z" fill="#BBCBB6"/>
<path d="M180.079 199.56C181.537 196.715 180.414 193.226 177.569 191.767C174.724 190.309 171.235 191.433 169.776 194.278C168.317 197.123 169.441 200.611 172.286 202.07C175.131 203.528 178.62 202.404 180.079 199.56Z" fill="#BBCBB6"/>
<path d="M93.2067 191.776C95.934 186.457 93.8329 179.934 88.5137 177.207C83.1944 174.48 76.6714 176.581 73.9441 181.901C71.2168 187.22 73.3179 193.742 78.6372 196.469C83.9564 199.196 90.4794 197.095 93.2067 191.776Z" fill="#BBCBB6"/>
<path d="M79.8346 183.114C81.2933 180.269 80.1695 176.781 77.3245 175.322C74.4795 173.864 70.9906 174.987 69.5319 177.832C68.0732 180.677 69.197 184.166 72.042 185.625C74.887 187.083 78.3758 185.959 79.8346 183.114Z" fill="#BBCBB6"/>
<path d="M97.6588 183.463C99.1175 180.618 97.9937 177.129 95.1487 175.67C92.3037 174.212 88.8148 175.336 87.3561 178.181C85.8974 181.026 87.0212 184.514 89.8662 185.973C92.7112 187.431 96.2 186.307 97.6588 183.463Z" fill="#BBCBB6"/>
<path d="M97.2623 192.288C98.721 189.443 97.5972 185.955 94.7522 184.496C91.9072 183.037 88.4183 184.161 86.9596 187.006C85.5009 189.851 86.6247 193.34 89.4697 194.798C92.3147 196.257 95.8036 195.133 97.2623 192.288Z" fill="#BBCBB6"/>
<path d="M87.9322 181.59C89.3909 178.745 88.2671 175.256 85.4221 173.798C82.5771 172.339 79.0883 173.463 77.6295 176.308C76.1708 179.153 77.2946 182.641 80.1396 184.1C82.9846 185.558 86.4735 184.435 87.9322 181.59Z" fill="#BBCBB6"/>
<path d="M89.854 199.032C91.3128 196.187 90.1889 192.698 87.3439 191.24C84.4989 189.781 81.0101 190.905 79.5514 193.75C78.0927 196.595 79.2165 200.084 82.0615 201.542C84.9065 203.001 88.3953 201.877 89.854 199.032Z" fill="#BBCBB6"/>
<path d="M81.1509 194.049C82.6096 191.205 81.4858 187.716 78.6408 186.257C75.7958 184.799 72.307 185.923 70.8483 188.767C69.3896 191.612 70.5134 195.101 73.3584 196.56C76.2034 198.018 79.6922 196.894 81.1509 194.049Z" fill="#BBCBB6"/>
<path d="M208.764 190.286C210.972 185.98 209.271 180.7 204.965 178.493C200.659 176.285 195.379 177.986 193.171 182.292C190.964 186.598 192.664 191.878 196.97 194.085C201.276 196.292 206.556 194.592 208.764 190.286Z" fill="#BBCBB6"/>
<path d="M213.463 185.418C214.643 183.115 213.734 180.292 211.432 179.112C209.129 177.932 206.306 178.841 205.126 181.143C203.945 183.446 204.855 186.269 207.157 187.449C209.459 188.629 212.283 187.72 213.463 185.418Z" fill="#BBCBB6"/>
<path d="M205.047 197.145C206.227 194.843 205.318 192.02 203.016 190.84C200.713 189.659 197.89 190.569 196.71 192.871C195.529 195.173 196.439 197.996 198.741 199.177C201.043 200.357 203.866 199.448 205.047 197.145Z" fill="#BBCBB6"/>
<path d="M199.344 192.826C200.524 190.524 199.615 187.701 197.313 186.521C195.01 185.34 192.187 186.25 191.007 188.552C189.826 190.854 190.736 193.677 193.038 194.858C195.34 196.038 198.163 195.128 199.344 192.826Z" fill="#BBCBB6"/>
<path d="M202.143 181.613C203.323 179.311 202.414 176.488 200.111 175.307C197.809 174.127 194.986 175.036 193.805 177.339C192.625 179.641 193.534 182.464 195.837 183.644C198.139 184.825 200.962 183.915 202.143 181.613Z" fill="#BBCBB6"/>
<path d="M337.577 52.3889C343.555 52.3889 348.401 47.5433 348.401 41.5659C348.401 35.5885 343.555 30.7429 337.577 30.7429C331.6 30.7429 326.754 35.5885 326.754 41.5659C326.754 47.5433 331.6 52.3889 337.577 52.3889Z" fill="#BBCBB6"/>
<path d="M326.834 45.3147C330.031 45.3147 332.623 42.7231 332.623 39.5261C332.623 36.3292 330.031 33.7375 326.834 33.7375C323.637 33.7375 321.045 36.3292 321.045 39.5261C321.045 42.7231 323.637 45.3147 326.834 45.3147Z" fill="#BBCBB6"/>
<path d="M333.541 40.5286C336.738 40.5286 339.33 37.937 339.33 34.74C339.33 31.5431 336.738 28.9514 333.541 28.9514C330.344 28.9514 327.752 31.5431 327.752 34.74C327.752 37.937 330.344 40.5286 333.541 40.5286Z" fill="#BBCBB6"/>
<path d="M332.625 54.6863C335.822 54.6863 338.414 52.0947 338.414 48.8977C338.414 45.7008 335.822 43.1091 332.625 43.1091C329.428 43.1091 326.836 45.7008 326.836 48.8977C326.836 52.0947 329.428 54.6863 332.625 54.6863Z" fill="#BBCBB6"/>
<path d="M335.384 12.9451C340.223 12.9451 344.146 9.02275 344.146 4.18426C344.146 -0.654228 340.223 -4.5766 335.384 -4.5766C330.546 -4.5766 326.623 -0.654228 326.623 4.18426C326.623 9.02275 330.546 12.9451 335.384 12.9451Z" fill="#BBCBB6"/>
<path d="M327.97 9.49576C330.557 9.49576 332.654 7.39841 332.654 4.8112C332.654 2.22399 330.557 0.126648 327.97 0.126648C325.382 0.126648 323.285 2.22399 323.285 4.8112C323.285 7.39841 325.382 9.49576 327.97 9.49576Z" fill="#BBCBB6"/>
<path d="M160.564 38.1102C165.403 38.1102 169.325 34.1878 169.325 29.3493C169.325 24.5108 165.403 20.5884 160.564 20.5884C155.725 20.5884 151.803 24.5108 151.803 29.3493C151.803 34.1878 155.725 38.1102 160.564 38.1102Z" fill="url(#paint58_linear_458_16833)"/>
<path d="M166.856 27.8062C169.444 27.8062 171.541 25.7089 171.541 23.1217C171.541 20.5345 169.444 18.4371 166.856 18.4371C164.269 18.4371 162.172 20.5345 162.172 23.1217C162.172 25.7089 164.269 27.8062 166.856 27.8062Z" fill="url(#paint59_linear_458_16833)"/>
<path d="M164.151 41.9831C166.739 41.9831 168.836 39.8858 168.836 37.2986C168.836 34.7114 166.739 32.614 164.151 32.614C161.564 32.614 159.467 34.7114 159.467 37.2986C159.467 39.8858 161.564 41.9831 164.151 41.9831Z" fill="url(#paint60_linear_458_16833)"/>
<path d="M157.159 40.462C159.746 40.462 161.844 38.3647 161.844 35.7774C161.844 33.1902 159.746 31.0929 157.159 31.0929C154.572 31.0929 152.475 33.1902 152.475 35.7774C152.475 38.3647 154.572 40.462 157.159 40.462Z" fill="url(#paint61_linear_458_16833)"/>
<path d="M154.985 29.1079C157.573 29.1079 159.67 27.0105 159.67 24.4233C159.67 21.8361 157.573 19.7388 154.985 19.7388C152.398 19.7388 150.301 21.8361 150.301 24.4233C150.301 27.0105 152.398 29.1079 154.985 29.1079Z" fill="url(#paint62_linear_458_16833)"/>
<path d="M2.01543 18.7462C7.25663 18.7462 11.5055 14.4976 11.5055 9.25664C11.5055 4.01567 7.25663 -0.232971 2.01543 -0.232971C-3.22577 -0.232971 -7.47461 4.01567 -7.47461 9.25664C-7.47461 14.4976 -3.22577 18.7462 2.01543 18.7462Z" fill="#BBCBB6"/>
<path d="M11.5096 12.9677C14.313 12.9677 16.5856 10.6951 16.5856 7.89167C16.5856 5.08827 14.313 2.81567 11.5096 2.81567C8.7062 2.81567 6.43359 5.08827 6.43359 7.89167C6.43359 10.6951 8.7062 12.9677 11.5096 12.9677Z" fill="#BBCBB6"/>
<path d="M0.0115438 23.5645C2.81494 23.5645 5.08753 21.2919 5.08753 18.4885C5.08753 15.6851 2.81494 13.4125 0.0115438 13.4125C-2.79185 13.4125 -5.06445 15.6851 -5.06445 18.4885C-5.06445 21.2919 -2.79185 23.5645 0.0115438 23.5645Z" fill="#BBCBB6"/>
<path d="M0.331846 6.44715C3.13524 6.44715 5.40784 4.17455 5.40784 1.37116C5.40784 -1.43224 3.13524 -3.70483 0.331846 -3.70483C-2.47155 -3.70483 -4.74414 -1.43224 -4.74414 1.37116C-4.74414 4.17455 -2.47155 6.44715 0.331846 6.44715Z" fill="#BBCBB6"/>
<path d="M102.262 161.966C107.503 161.966 111.752 157.718 111.752 152.477C111.752 147.236 107.503 142.987 102.262 142.987C97.0203 142.987 92.7715 147.236 92.7715 152.477C92.7715 157.718 97.0203 161.966 102.262 161.966Z" fill="#BBCBB6"/>
<path d="M108.498 164.837C111.301 164.837 113.574 162.564 113.574 159.761C113.574 156.958 111.301 154.685 108.498 154.685C105.694 154.685 103.422 156.958 103.422 159.761C103.422 162.564 105.694 164.837 108.498 164.837Z" fill="#BBCBB6"/>
<path d="M93.3944 160.805C96.1977 160.805 98.4703 158.533 98.4703 155.729C98.4703 152.926 96.1977 150.653 93.3944 150.653C90.591 150.653 88.3184 152.926 88.3184 155.729C88.3184 158.533 90.591 160.805 93.3944 160.805Z" fill="#BBCBB6"/>
<path d="M95.5838 153.368C98.3872 153.368 100.66 151.096 100.66 148.292C100.66 145.489 98.3872 143.216 95.5838 143.216C92.7804 143.216 90.5078 145.489 90.5078 148.292C90.5078 151.096 92.7804 153.368 95.5838 153.368Z" fill="#BBCBB6"/>
<path d="M108.021 151.911C110.825 151.911 113.097 149.638 113.097 146.835C113.097 144.031 110.825 141.759 108.021 141.759C105.218 141.759 102.945 144.031 102.945 146.835C102.945 149.638 105.218 151.911 108.021 151.911Z" fill="#BBCBB6"/>
<path d="M31.8924 24.6908C37.1336 24.6908 41.3824 20.4421 41.3824 15.2012C41.3824 9.96019 37.1336 5.71155 31.8924 5.71155C26.6512 5.71155 22.4023 9.96019 22.4023 15.2012C22.4023 20.4421 26.6512 24.6908 31.8924 24.6908Z" fill="url(#paint63_linear_458_16833)"/>
<path d="M27.6346 28.8693C30.438 28.8693 32.7106 26.5967 32.7106 23.7933C32.7106 20.9899 30.438 18.7173 27.6346 18.7173C24.8312 18.7173 22.5586 20.9899 22.5586 23.7933C22.5586 26.5967 24.8312 28.8693 27.6346 28.8693Z" fill="url(#paint64_linear_458_16833)"/>
<path d="M25.4256 13.3909C28.229 13.3909 30.5016 11.1183 30.5016 8.31488C30.5016 5.51149 28.229 3.23889 25.4256 3.23889C22.6222 3.23889 20.3496 5.51149 20.3496 8.31488C20.3496 11.1183 22.6222 13.3909 25.4256 13.3909Z" fill="url(#paint65_linear_458_16833)"/>
<path d="M33.1248 12.4934C35.9282 12.4934 38.2008 10.2208 38.2008 7.41742C38.2008 4.61403 35.9282 2.34143 33.1248 2.34143C30.3214 2.34143 28.0488 4.61403 28.0488 7.41742C28.0488 10.2208 30.3214 12.4934 33.1248 12.4934Z" fill="url(#paint66_linear_458_16833)"/>
<path d="M39.3397 23.364C42.1431 23.364 44.4157 21.0914 44.4157 18.288C44.4157 15.4846 42.1431 13.212 39.3397 13.212C36.5363 13.212 34.2637 15.4846 34.2637 18.288C34.2637 21.0914 36.5363 23.364 39.3397 23.364Z" fill="url(#paint67_linear_458_16833)"/>
<path d="M76.5283 48.5797C80.7044 48.5797 84.0897 45.1945 84.0897 41.0186C84.0897 36.8427 80.7044 33.4575 76.5283 33.4575C72.3522 33.4575 68.9668 36.8427 68.9668 41.0186C68.9668 45.1945 72.3522 48.5797 76.5283 48.5797Z" fill="url(#paint68_linear_458_16833)"/>
<path d="M73.1367 51.9118C75.3706 51.9118 77.1816 50.1008 77.1816 47.8669C77.1816 45.633 75.3706 43.822 73.1367 43.822C70.9028 43.822 69.0918 45.633 69.0918 47.8669C69.0918 50.1008 70.9028 51.9118 73.1367 51.9118Z" fill="url(#paint69_linear_458_16833)"/>
<path d="M71.3769 39.5805C73.6108 39.5805 75.4218 37.7696 75.4218 35.5357C75.4218 33.3017 73.6108 31.4908 71.3769 31.4908C69.143 31.4908 67.332 33.3017 67.332 35.5357C67.332 37.7696 69.143 39.5805 71.3769 39.5805Z" fill="url(#paint70_linear_458_16833)"/>
<path d="M77.5097 38.8645C79.7437 38.8645 81.5546 37.0536 81.5546 34.8197C81.5546 32.5857 79.7437 30.7748 77.5097 30.7748C75.2758 30.7748 73.4648 32.5857 73.4648 34.8197C73.4648 37.0536 75.2758 38.8645 77.5097 38.8645Z" fill="url(#paint71_linear_458_16833)"/>
<path d="M82.4648 47.5234C84.6987 47.5234 86.5097 45.7125 86.5097 43.4785C86.5097 41.2446 84.6987 39.4337 82.4648 39.4337C80.2309 39.4337 78.4199 41.2446 78.4199 43.4785C78.4199 45.7125 80.2309 47.5234 82.4648 47.5234Z" fill="url(#paint72_linear_458_16833)"/>
</g>
<defs>
<filter id="filter0_f_458_16833" x="-335.924" y="-195.393" width="775.012" height="734.679" filterUnits="userSpaceOnUse" color-interpolation-filters="sRGB">
<feFlood flood-opacity="0" result="BackgroundImageFix"/>
<feBlend mode="normal" in="SourceGraphic" in2="BackgroundImageFix" result="shape"/>
<feGaussianBlur stdDeviation="177" result="effect1_foregroundBlur_458_16833"/>
</filter>
<filter id="filter1_f_458_16833" x="-538.783" y="-492.373" width="1033.92" height="919.663" filterUnits="userSpaceOnUse" color-interpolation-filters="sRGB">
<feFlood flood-opacity="0" result="BackgroundImageFix"/>
<feBlend mode="normal" in="SourceGraphic" in2="BackgroundImageFix" result="shape"/>
<feGaussianBlur stdDeviation="222" result="effect1_foregroundBlur_458_16833"/>
</filter>
<filter id="filter2_f_458_16833" x="-201.086" y="-458.952" width="1010.12" height="914.092" filterUnits="userSpaceOnUse" color-interpolation-filters="sRGB">
<feFlood flood-opacity="0" result="BackgroundImageFix"/>
<feBlend mode="normal" in="SourceGraphic" in2="BackgroundImageFix" result="shape"/>
<feGaussianBlur stdDeviation="222" result="effect1_foregroundBlur_458_16833"/>
</filter>
<filter id="filter3_f_458_16833" x="-142.893" y="-285.393" width="1010.12" height="931.096" filterUnits="userSpaceOnUse" color-interpolation-filters="sRGB">
<feFlood flood-opacity="0" result="BackgroundImageFix"/>
<feBlend mode="normal" in="SourceGraphic" in2="BackgroundImageFix" result="shape"/>
<feGaussianBlur stdDeviation="222" result="effect1_foregroundBlur_458_16833"/>
</filter>
<linearGradient id="paint0_linear_458_16833" x1="51.5825" y1="158.607" x2="51.5825" y2="185.285" gradientUnits="userSpaceOnUse">
<stop stop-color="#7EA373"/>
<stop offset="1" stop-color="#A6FA8C"/>
</linearGradient>
<linearGradient id="paint1_linear_458_16833" x1="-21.8217" y1="-48.3734" x2="-21.8217" y2="-16.7108" gradientUnits="userSpaceOnUse">
<stop stop-color="#7EA373"/>
<stop offset="1" stop-color="#A6FA8C"/>
</linearGradient>
<linearGradient id="paint2_linear_458_16833" x1="303.974" y1="-14.9518" x2="303.974" y2="11.1406" gradientUnits="userSpaceOnUse">
<stop stop-color="#E7D8C9"/>
<stop offset="1" stop-color="#E6BEAE"/>
</linearGradient>
<linearGradient id="paint3_linear_458_16833" x1="362.167" y1="158.607" x2="362.167" y2="201.703" gradientUnits="userSpaceOnUse">
<stop stop-color="#E7D8C9"/>
<stop offset="1" stop-color="#E6BEAE"/>
</linearGradient>
<linearGradient id="paint4_linear_458_16833" x1="-7.34616" y1="107.521" x2="-7.34616" y2="125.043" gradientUnits="userSpaceOnUse">
<stop stop-color="#ECF0EA"/>
<stop offset="1" stop-color="#ECF0EA"/>
</linearGradient>
<linearGradient id="paint5_linear_458_16833" x1="-1.4424" y1="107.346" x2="-1.4424" y2="116.715" gradientUnits="userSpaceOnUse">
<stop stop-color="#ECF0EA"/>
<stop offset="1" stop-color="#ECF0EA"/>
</linearGradient>
<linearGradient id="paint6_linear_458_16833" x1="-4.52638" y1="118.487" x2="-4.52638" y2="127.856" gradientUnits="userSpaceOnUse">
<stop stop-color="#ECF0EA"/>
<stop offset="1" stop-color="#ECF0EA"/>
</linearGradient>
<linearGradient id="paint7_linear_458_16833" x1="151.976" y1="64.6977" x2="151.976" y2="86.3437" gradientUnits="userSpaceOnUse">
<stop stop-color="#ECF0EA"/>
<stop offset="1" stop-color="#ECF0EA"/>
</linearGradient>
<linearGradient id="paint8_linear_458_16833" x1="141.232" y1="67.6921" x2="141.232" y2="79.2693" gradientUnits="userSpaceOnUse">
<stop stop-color="#ECF0EA"/>
<stop offset="1" stop-color="#ECF0EA"/>
</linearGradient>
<linearGradient id="paint9_linear_458_16833" x1="157.553" y1="60.5161" x2="157.553" y2="72.0933" gradientUnits="userSpaceOnUse">
<stop stop-color="#ECF0EA"/>
<stop offset="1" stop-color="#ECF0EA"/>
</linearGradient>
<linearGradient id="paint10_linear_458_16833" x1="160.898" y1="68.6945" x2="160.898" y2="80.2717" gradientUnits="userSpaceOnUse">
<stop stop-color="#ECF0EA"/>
<stop offset="1" stop-color="#ECF0EA"/>
</linearGradient>
<linearGradient id="paint11_linear_458_16833" x1="147.933" y1="62.9061" x2="147.933" y2="74.4833" gradientUnits="userSpaceOnUse">
<stop stop-color="#ECF0EA"/>
<stop offset="1" stop-color="#ECF0EA"/>
</linearGradient>
<linearGradient id="paint12_linear_458_16833" x1="157.01" y1="77.9261" x2="157.01" y2="89.5033" gradientUnits="userSpaceOnUse">
<stop stop-color="#ECF0EA"/>
<stop offset="1" stop-color="#ECF0EA"/>
</linearGradient>
<linearGradient id="paint13_linear_458_16833" x1="147.023" y1="77.0606" x2="147.023" y2="88.6378" gradientUnits="userSpaceOnUse">
<stop stop-color="#ECF0EA"/>
<stop offset="1" stop-color="#ECF0EA"/>
</linearGradient>
<linearGradient id="paint14_linear_458_16833" x1="82.6672" y1="-20.5452" x2="82.6672" y2="1.10081" gradientUnits="userSpaceOnUse">
<stop stop-color="#ECF0EA"/>
<stop offset="1" stop-color="#ECF0EA"/>
</linearGradient>
<linearGradient id="paint15_linear_458_16833" x1="87.701" y1="-7.31653" x2="87.701" y2="4.26066" gradientUnits="userSpaceOnUse">
<stop stop-color="#ECF0EA"/>
<stop offset="1" stop-color="#ECF0EA"/>
</linearGradient>
<linearGradient id="paint16_linear_458_16833" x1="77.7146" y1="-8.17896" x2="77.7146" y2="3.39824" gradientUnits="userSpaceOnUse">
<stop stop-color="#ECF0EA"/>
<stop offset="1" stop-color="#ECF0EA"/>
</linearGradient>
<linearGradient id="paint17_linear_458_16833" x1="99.5813" y1="-15.4854" x2="99.5813" y2="6.16057" gradientUnits="userSpaceOnUse">
<stop stop-color="#ECF0EA"/>
<stop offset="1" stop-color="#ECF0EA"/>
</linearGradient>
<linearGradient id="paint18_linear_458_16833" x1="108.508" y1="-11.4854" x2="108.508" y2="0.0917826" gradientUnits="userSpaceOnUse">
<stop stop-color="#ECF0EA"/>
<stop offset="1" stop-color="#ECF0EA"/>
</linearGradient>
<linearGradient id="paint19_linear_458_16833" x1="104.619" y1="-2.25684" x2="104.619" y2="9.32036" gradientUnits="userSpaceOnUse">
<stop stop-color="#ECF0EA"/>
<stop offset="1" stop-color="#ECF0EA"/>
</linearGradient>
<linearGradient id="paint20_linear_458_16833" x1="94.6326" y1="-3.11932" x2="94.6326" y2="8.45787" gradientUnits="userSpaceOnUse">
<stop stop-color="#ECF0EA"/>
<stop offset="1" stop-color="#ECF0EA"/>
</linearGradient>
<linearGradient id="paint21_linear_458_16833" x1="43.7942" y1="136.931" x2="43.7942" y2="158.577" gradientUnits="userSpaceOnUse">
<stop stop-color="#ECF0EA"/>
<stop offset="1" stop-color="#ECF0EA"/>
</linearGradient>
<linearGradient id="paint22_linear_458_16833" x1="33.0506" y1="139.926" x2="33.0506" y2="151.503" gradientUnits="userSpaceOnUse">
<stop stop-color="#ECF0EA"/>
<stop offset="1" stop-color="#ECF0EA"/>
</linearGradient>
<linearGradient id="paint23_linear_458_16833" x1="49.3709" y1="132.75" x2="49.3709" y2="144.327" gradientUnits="userSpaceOnUse">
<stop stop-color="#ECF0EA"/>
<stop offset="1" stop-color="#ECF0EA"/>
</linearGradient>
<linearGradient id="paint24_linear_458_16833" x1="52.7205" y1="140.928" x2="52.7205" y2="152.505" gradientUnits="userSpaceOnUse">
<stop stop-color="#ECF0EA"/>
<stop offset="1" stop-color="#ECF0EA"/>
</linearGradient>
<linearGradient id="paint25_linear_458_16833" x1="39.7576" y1="135.14" x2="39.7576" y2="146.717" gradientUnits="userSpaceOnUse">
<stop stop-color="#ECF0EA"/>
<stop offset="1" stop-color="#ECF0EA"/>
</linearGradient>
<linearGradient id="paint26_linear_458_16833" x1="48.8279" y1="150.16" x2="48.8279" y2="161.737" gradientUnits="userSpaceOnUse">
<stop stop-color="#ECF0EA"/>
<stop offset="1" stop-color="#ECF0EA"/>
</linearGradient>
<linearGradient id="paint27_linear_458_16833" x1="38.8416" y1="149.294" x2="38.8416" y2="160.872" gradientUnits="userSpaceOnUse">
<stop stop-color="#ECF0EA"/>
<stop offset="1" stop-color="#ECF0EA"/>
</linearGradient>
<linearGradient id="paint28_linear_458_16833" x1="142.689" y1="148.916" x2="142.689" y2="170.562" gradientUnits="userSpaceOnUse">
<stop stop-color="#ECF0EA"/>
<stop offset="1" stop-color="#ECF0EA"/>
</linearGradient>
<linearGradient id="paint29_linear_458_16833" x1="131.945" y1="151.91" x2="131.945" y2="163.487" gradientUnits="userSpaceOnUse">
<stop stop-color="#ECF0EA"/>
<stop offset="1" stop-color="#ECF0EA"/>
</linearGradient>
<linearGradient id="paint30_linear_458_16833" x1="148.265" y1="144.734" x2="148.265" y2="156.311" gradientUnits="userSpaceOnUse">
<stop stop-color="#ECF0EA"/>
<stop offset="1" stop-color="#ECF0EA"/>
</linearGradient>
<linearGradient id="paint31_linear_458_16833" x1="151.615" y1="152.913" x2="151.615" y2="164.49" gradientUnits="userSpaceOnUse">
<stop stop-color="#ECF0EA"/>
<stop offset="1" stop-color="#ECF0EA"/>
</linearGradient>
<linearGradient id="paint32_linear_458_16833" x1="138.652" y1="147.124" x2="138.652" y2="158.701" gradientUnits="userSpaceOnUse">
<stop stop-color="#ECF0EA"/>
<stop offset="1" stop-color="#ECF0EA"/>
</linearGradient>
<linearGradient id="paint33_linear_458_16833" x1="147.722" y1="162.144" x2="147.722" y2="173.721" gradientUnits="userSpaceOnUse">
<stop stop-color="#ECF0EA"/>
<stop offset="1" stop-color="#ECF0EA"/>
</linearGradient>
<linearGradient id="paint34_linear_458_16833" x1="137.736" y1="161.279" x2="137.736" y2="172.856" gradientUnits="userSpaceOnUse">
<stop stop-color="#ECF0EA"/>
<stop offset="1" stop-color="#ECF0EA"/>
</linearGradient>
<linearGradient id="paint35_linear_458_16833" x1="24.134" y1="142.068" x2="24.134" y2="163.713" gradientUnits="userSpaceOnUse">
<stop stop-color="#ECF0EA"/>
<stop offset="1" stop-color="#ECF0EA"/>
</linearGradient>
<linearGradient id="paint36_linear_458_16833" x1="13.3904" y1="145.062" x2="13.3904" y2="156.639" gradientUnits="userSpaceOnUse">
<stop stop-color="#ECF0EA"/>
<stop offset="1" stop-color="#ECF0EA"/>
</linearGradient>
<linearGradient id="paint37_linear_458_16833" x1="29.7107" y1="137.886" x2="29.7107" y2="149.463" gradientUnits="userSpaceOnUse">
<stop stop-color="#ECF0EA"/>
<stop offset="1" stop-color="#ECF0EA"/>
</linearGradient>
<linearGradient id="paint38_linear_458_16833" x1="33.0564" y1="146.064" x2="33.0564" y2="157.642" gradientUnits="userSpaceOnUse">
<stop stop-color="#ECF0EA"/>
<stop offset="1" stop-color="#ECF0EA"/>
</linearGradient>
<linearGradient id="paint39_linear_458_16833" x1="20.0975" y1="140.276" x2="20.0975" y2="151.853" gradientUnits="userSpaceOnUse">
<stop stop-color="#ECF0EA"/>
<stop offset="1" stop-color="#ECF0EA"/>
</linearGradient>
<linearGradient id="paint40_linear_458_16833" x1="29.1678" y1="155.296" x2="29.1678" y2="166.873" gradientUnits="userSpaceOnUse">
<stop stop-color="#ECF0EA"/>
<stop offset="1" stop-color="#ECF0EA"/>
</linearGradient>
<linearGradient id="paint41_linear_458_16833" x1="19.1814" y1="154.43" x2="19.1814" y2="166.008" gradientUnits="userSpaceOnUse">
<stop stop-color="#ECF0EA"/>
<stop offset="1" stop-color="#ECF0EA"/>
</linearGradient>
<linearGradient id="paint42_linear_458_16833" x1="251.55" y1="30.6921" x2="251.55" y2="52.3381" gradientUnits="userSpaceOnUse">
<stop stop-color="#ECF0EA"/>
<stop offset="1" stop-color="#ECF0EA"/>
</linearGradient>
<linearGradient id="paint43_linear_458_16833" x1="240.806" y1="33.6866" x2="240.806" y2="45.2638" gradientUnits="userSpaceOnUse">
<stop stop-color="#ECF0EA"/>
<stop offset="1" stop-color="#ECF0EA"/>
</linearGradient>
<linearGradient id="paint44_linear_458_16833" x1="257.129" y1="26.5106" x2="257.129" y2="38.0878" gradientUnits="userSpaceOnUse">
<stop stop-color="#ECF0EA"/>
<stop offset="1" stop-color="#ECF0EA"/>
</linearGradient>
<linearGradient id="paint45_linear_458_16833" x1="260.476" y1="34.689" x2="260.476" y2="46.2662" gradientUnits="userSpaceOnUse">
<stop stop-color="#ECF0EA"/>
<stop offset="1" stop-color="#ECF0EA"/>
</linearGradient>
<linearGradient id="paint46_linear_458_16833" x1="247.513" y1="28.9006" x2="247.513" y2="40.4778" gradientUnits="userSpaceOnUse">
<stop stop-color="#ECF0EA"/>
<stop offset="1" stop-color="#ECF0EA"/>
</linearGradient>
<linearGradient id="paint47_linear_458_16833" x1="256.588" y1="43.9207" x2="256.588" y2="55.4979" gradientUnits="userSpaceOnUse">
<stop stop-color="#ECF0EA"/>
<stop offset="1" stop-color="#ECF0EA"/>
</linearGradient>
<linearGradient id="paint48_linear_458_16833" x1="246.599" y1="43.0551" x2="246.599" y2="54.6323" gradientUnits="userSpaceOnUse">
<stop stop-color="#ECF0EA"/>
<stop offset="1" stop-color="#ECF0EA"/>
</linearGradient>
<linearGradient id="paint49_linear_458_16833" x1="184.198" y1="-25.5571" x2="184.198" y2="8.30196" gradientUnits="userSpaceOnUse">
<stop stop-color="#ECF0EA"/>
<stop offset="1" stop-color="#ECF0EA"/>
</linearGradient>
<linearGradient id="paint50_linear_458_16833" x1="197.431" y1="-12.946" x2="197.431" y2="5.16128" gradientUnits="userSpaceOnUse">
<stop stop-color="#ECF0EA"/>
<stop offset="1" stop-color="#ECF0EA"/>
</linearGradient>
<linearGradient id="paint51_linear_458_16833" x1="185.576" y1="-2.69916" x2="185.576" y2="15.4081" gradientUnits="userSpaceOnUse">
<stop stop-color="#ECF0EA"/>
<stop offset="1" stop-color="#ECF0EA"/>
</linearGradient>
<linearGradient id="paint52_linear_458_16833" x1="172.167" y1="-10.8362" x2="172.167" y2="7.27109" gradientUnits="userSpaceOnUse">
<stop stop-color="#ECF0EA"/>
<stop offset="1" stop-color="#ECF0EA"/>
</linearGradient>
<linearGradient id="paint53_linear_458_16833" x1="58.0054" y1="125.736" x2="58.0054" y2="143.258" gradientUnits="userSpaceOnUse">
<stop stop-color="#ECF0EA"/>
<stop offset="1" stop-color="#ECF0EA"/>
</linearGradient>
<linearGradient id="paint54_linear_458_16833" x1="64.2978" y1="123.585" x2="64.2978" y2="132.954" gradientUnits="userSpaceOnUse">
<stop stop-color="#ECF0EA"/>
<stop offset="1" stop-color="#ECF0EA"/>
</linearGradient>
<linearGradient id="paint55_linear_458_16833" x1="61.5928" y1="137.762" x2="61.5928" y2="147.131" gradientUnits="userSpaceOnUse">
<stop stop-color="#ECF0EA"/>
<stop offset="1" stop-color="#ECF0EA"/>
</linearGradient>
<linearGradient id="paint56_linear_458_16833" x1="54.6006" y1="136.238" x2="54.6006" y2="145.607" gradientUnits="userSpaceOnUse">
<stop stop-color="#ECF0EA"/>
<stop offset="1" stop-color="#ECF0EA"/>
</linearGradient>
<linearGradient id="paint57_linear_458_16833" x1="52.4267" y1="124.887" x2="52.4267" y2="134.256" gradientUnits="userSpaceOnUse">
<stop stop-color="#ECF0EA"/>
<stop offset="1" stop-color="#ECF0EA"/>
</linearGradient>
<linearGradient id="paint58_linear_458_16833" x1="160.564" y1="20.5884" x2="160.564" y2="38.1102" gradientUnits="userSpaceOnUse">
<stop stop-color="#ECF0EA"/>
<stop offset="1" stop-color="#ECF0EA"/>
</linearGradient>
<linearGradient id="paint59_linear_458_16833" x1="166.856" y1="18.4371" x2="166.856" y2="27.8062" gradientUnits="userSpaceOnUse">
<stop stop-color="#ECF0EA"/>
<stop offset="1" stop-color="#ECF0EA"/>
</linearGradient>
<linearGradient id="paint60_linear_458_16833" x1="164.151" y1="32.614" x2="164.151" y2="41.9831" gradientUnits="userSpaceOnUse">
<stop stop-color="#ECF0EA"/>
<stop offset="1" stop-color="#ECF0EA"/>
</linearGradient>
<linearGradient id="paint61_linear_458_16833" x1="157.159" y1="31.0929" x2="157.159" y2="40.462" gradientUnits="userSpaceOnUse">
<stop stop-color="#ECF0EA"/>
<stop offset="1" stop-color="#ECF0EA"/>
</linearGradient>
<linearGradient id="paint62_linear_458_16833" x1="154.985" y1="19.7388" x2="154.985" y2="29.1079" gradientUnits="userSpaceOnUse">
<stop stop-color="#ECF0EA"/>
<stop offset="1" stop-color="#ECF0EA"/>
</linearGradient>
<linearGradient id="paint63_linear_458_16833" x1="31.8924" y1="5.71155" x2="31.8924" y2="24.6908" gradientUnits="userSpaceOnUse">
<stop stop-color="#ECF0EA"/>
<stop offset="1" stop-color="#ECF0EA"/>
</linearGradient>
<linearGradient id="paint64_linear_458_16833" x1="27.6346" y1="18.7173" x2="27.6346" y2="28.8693" gradientUnits="userSpaceOnUse">
<stop stop-color="#ECF0EA"/>
<stop offset="1" stop-color="#ECF0EA"/>
</linearGradient>
<linearGradient id="paint65_linear_458_16833" x1="25.4256" y1="3.23889" x2="25.4256" y2="13.3909" gradientUnits="userSpaceOnUse">
<stop stop-color="#ECF0EA"/>
<stop offset="1" stop-color="#ECF0EA"/>
</linearGradient>
<linearGradient id="paint66_linear_458_16833" x1="33.1248" y1="2.34143" x2="33.1248" y2="12.4934" gradientUnits="userSpaceOnUse">
<stop stop-color="#ECF0EA"/>
<stop offset="1" stop-color="#ECF0EA"/>
</linearGradient>
<linearGradient id="paint67_linear_458_16833" x1="39.3397" y1="13.212" x2="39.3397" y2="23.364" gradientUnits="userSpaceOnUse">
<stop stop-color="#ECF0EA"/>
<stop offset="1" stop-color="#ECF0EA"/>
</linearGradient>
<linearGradient id="paint68_linear_458_16833" x1="76.5283" y1="33.4575" x2="76.5283" y2="48.5797" gradientUnits="userSpaceOnUse">
<stop stop-color="#ECF0EA"/>
<stop offset="1" stop-color="#ECF0EA"/>
</linearGradient>
<linearGradient id="paint69_linear_458_16833" x1="73.1367" y1="43.822" x2="73.1367" y2="51.9118" gradientUnits="userSpaceOnUse">
<stop stop-color="#ECF0EA"/>
<stop offset="1" stop-color="#ECF0EA"/>
</linearGradient>
<linearGradient id="paint70_linear_458_16833" x1="71.3769" y1="31.4908" x2="71.3769" y2="39.5805" gradientUnits="userSpaceOnUse">
<stop stop-color="#ECF0EA"/>
<stop offset="1" stop-color="#ECF0EA"/>
</linearGradient>
<linearGradient id="paint71_linear_458_16833" x1="77.5097" y1="30.7748" x2="77.5097" y2="38.8645" gradientUnits="userSpaceOnUse">
<stop stop-color="#ECF0EA"/>
<stop offset="1" stop-color="#ECF0EA"/>
</linearGradient>
<linearGradient id="paint72_linear_458_16833" x1="82.4648" y1="39.4337" x2="82.4648" y2="47.5234" gradientUnits="userSpaceOnUse">
<stop stop-color="#ECF0EA"/>
<stop offset="1" stop-color="#ECF0EA"/>
</linearGradient>
<clipPath id="clip0_458_16833">
<rect width="328" height="211.378" fill="white"/>
</clipPath>
</defs>
</svg>
