<svg width="328" height="212" fill="none" xmlns="http://www.w3.org/2000/svg"><path fill="#F6F8FC" d="M0 0h328v211.378H0z"/><path fill="#fff" d="M0 0h327.544v211.378H0z"/><mask id="a" style="mask-type:alpha" maskUnits="userSpaceOnUse" x="0" y="0" width="328" height="212"><path transform="rotate(-180 327.561 211.378)" fill="#F6F8FC" d="M327.561 211.378H655.12v211.378H327.561z"/></mask><g mask="url(#a)"><g filter="url(#b)"><ellipse cx="51.583" cy="171.946" rx="33.505" ry="13.339" transform="rotate(-180 51.583 171.946)" fill="url(#c)"/></g><g filter="url(#d)"><ellipse cx="-21.822" cy="-32.542" rx="72.962" ry="15.831" transform="rotate(-180 -21.822 -32.542)" fill="url(#e)"/></g><g filter="url(#f)"><ellipse cx="303.974" cy="-1.906" rx="61.059" ry="13.046" transform="rotate(-180 303.974 -1.906)" fill="url(#g)"/></g><g filter="url(#h)"><ellipse cx="362.167" cy="180.155" rx="61.059" ry="21.548" transform="rotate(-180 362.167 180.155)" fill="url(#i)"/></g></g><g clip-path="url(#j)"><path d="M-65.088-48.213S133.085 49.439 179.396 69.42c46.308 19.982 84.602 6.513 156.258-116.072M59.676 13.062 46.89 36.868m79.356 6.612-12.785 22.924m76.268 8.376-14.989 32.18m68.774-40.116 26.01 8.377m-40.559 1.321.882 48.933" stroke="#E7D8C9" stroke-width="12" stroke-miterlimit="10"/><path d="m49.051 33.219-36.022.044a6.467 6.467 0 0 0-6.459 6.474l.052 42.206a6.467 6.467 0 0 0 6.475 6.459l36.022-.044a6.467 6.467 0 0 0 6.458-6.475l-.051-42.206a6.466 6.466 0 0 0-6.475-6.458Z" fill="#E7D8C9"/><path d="m43.018 38.392-24.061.03a8 8 0 0 0-7.99 8.01l.03 24.057a8 8 0 0 0 8.009 7.99l24.06-.029a8 8 0 0 0 7.99-8.01l-.029-24.058a8 8 0 0 0-8.01-7.99Z" fill="#E6BEAE"/><path d="m40.942 40.306-20.073.025a8 8 0 0 0-7.99 8.01l.024 20.07a8 8 0 0 0 8.01 7.99l20.073-.024a8 8 0 0 0 7.99-8.01l-.024-20.07a8 8 0 0 0-8.01-7.99Z" fill="#E7D8C9"/><path d="m38.104 53.462-6.823.008a3.205 3.205 0 0 0 .008 6.41l6.823-.009a3.205 3.205 0 1 0-.008-6.41Zm.008 8.076-6.823.009a3.205 3.205 0 1 0 .008 6.409l6.823-.008a3.205 3.205 0 0 0-.008-6.41Z" fill="#E6BEAE"/><path d="m21.908 51.035-.005-3.565a2.447 2.447 0 1 0-4.894.006l.004 3.565a2.447 2.447 0 0 0 4.895-.006Z" fill="#F6F8FC"/><path d="M34.718 88.348a4.984 4.984 0 1 0 0-9.967 4.984 4.984 0 0 0 0 9.967Z" fill="#E6BEAE" stroke="#fff" stroke-miterlimit="10"/><path d="m34.72 78.367-4.984.006.006 4.984 4.984-.006-.006-4.984Z" fill="#E6BEAE" stroke="#fff" stroke-miterlimit="10"/><path d="m34.719 83.365.006 4.983m-.006-4.983 4.983-.007m-4.983.007-3.52 3.529m7.04-6.902-3.52 3.526m0-.153 3.53 3.52" stroke="#fff" stroke-miterlimit="10"/><path d="M131.675 78.163 104.089 55a6.467 6.467 0 0 0-9.11.794L67.836 88.117a6.467 6.467 0 0 0 .794 9.11l27.585 23.164a6.467 6.467 0 0 0 9.111-.794l27.142-32.323a6.467 6.467 0 0 0-.794-9.11Z" fill="#E7D8C9"/><path d="M123.832 78.202 105.406 62.73a8 8 0 0 0-11.271.982L78.663 82.137a8 8 0 0 0 .982 11.271l18.426 15.471a8 8 0 0 0 11.271-.982l15.472-18.425a8 8 0 0 0-.982-11.27Z" fill="#E6BEAE"/><path d="m120.931 78.44-15.373-12.907a8 8 0 0 0-11.271.982L81.379 81.886a8 8 0 0 0 .982 11.271l15.372 12.907a8 8 0 0 0 11.272-.982l12.908-15.371a8 8 0 0 0-.982-11.27Z" fill="#E7D8C9"/><path d="m110.26 86.597-5.226-4.387a3.205 3.205 0 1 0-4.121 4.908l5.225 4.388a3.205 3.205 0 0 0 4.122-4.909Zm-5.194 6.187-5.225-4.387a3.205 3.205 0 0 0-4.122 4.908l5.226 4.388a3.205 3.205 0 1 0 4.121-4.909Z" fill="#E6BEAE"/><path d="m99.433 74.314 2.292-2.73a2.446 2.446 0 1 0-3.748-3.147l-2.292 2.73a2.447 2.447 0 1 0 3.748 3.147Z" fill="#F6F8FC"/><path d="M88.431 112.276a4.984 4.984 0 1 0 0-9.967 4.984 4.984 0 0 0 0 9.967Z" fill="#E6BEAE" stroke="#fff" stroke-miterlimit="10"/><path d="m87.816 100.273-3.205 3.816 3.817 3.205 3.205-3.817-3.817-3.204Z" fill="#E6BEAE" stroke="#fff" stroke-miterlimit="10"/><path d="m88.433 107.292-3.208 3.819m3.207-3.819 3.815 3.208m-3.818-3.208-4.968.433m9.837-.745-4.968.433m.102-.121.432 4.968" stroke="#fff" stroke-miterlimit="10"/><path d="m186.857 93.916-35.271 7.317a6.467 6.467 0 0 0-5.019 7.645l8.574 41.326a6.468 6.468 0 0 0 7.646 5.018l35.271-7.317a6.465 6.465 0 0 0 5.018-7.645l-8.574-41.326a6.466 6.466 0 0 0-7.645-5.018Z" fill="#E7D8C9"/><path d="m182.06 100.338-23.559 4.887a8 8 0 0 0-6.208 9.458l4.887 23.556a8.002 8.002 0 0 0 9.459 6.209l23.559-4.888a8 8 0 0 0 6.208-9.458l-4.888-23.556a8 8 0 0 0-9.458-6.208Z" fill="#E6BEAE"/><path d="m180.488 102.455-19.655 4.077a8 8 0 0 0-6.208 9.458l4.077 19.652a8.002 8.002 0 0 0 9.459 6.209l19.654-4.078a8 8 0 0 0 6.208-9.458l-4.077-19.652a8 8 0 0 0-9.458-6.208Z" fill="#E7D8C9"/><path d="m180.223 115.955-6.681 1.386a3.205 3.205 0 0 0 1.302 6.276l6.681-1.386a3.205 3.205 0 1 0-1.302-6.276Zm1.639 7.906-6.681 1.386a3.204 3.204 0 1 0 1.302 6.276l6.681-1.386a3.206 3.206 0 0 0-1.302-6.276Z" fill="#E6BEAE"/><path d="m163.871 116.847-.724-3.49a2.447 2.447 0 1 0-4.792.994l.724 3.49a2.446 2.446 0 1 0 4.792-.994Z" fill="#F6F8FC"/><path d="M182.962 150.873a4.983 4.983 0 1 0 .001-9.967 4.983 4.983 0 0 0-.001 9.967Z" fill="#E6BEAE" stroke="#fff" stroke-miterlimit="10"/><path d="m181.938 141.03-4.879 1.012 1.012 4.88 4.88-1.012-1.013-4.88Z" fill="#E6BEAE" stroke="#fff" stroke-miterlimit="10"/><path d="m182.963 145.889 1.012 4.879m-1.012-4.878 4.879-1.016m-4.879 1.015-2.736 4.166m5.499-8.182-2.734 4.166m-.029-.15 4.166 2.734" stroke="#fff" stroke-miterlimit="10"/><path d="m206.322 129.932 1.446 35.991a6.465 6.465 0 0 0 6.721 6.201l42.175-1.694a6.467 6.467 0 0 0 6.202-6.72l-1.446-35.991a6.467 6.467 0 0 0-6.721-6.202l-42.175 1.694a6.467 6.467 0 0 0-6.202 6.721Z" fill="#E7D8C9"/><path d="m211.629 135.703.966 24.039a8 8 0 0 0 8.315 7.672l24.041-.965a8 8 0 0 0 7.672-8.315l-.965-24.039a8 8 0 0 0-8.315-7.672l-24.041.965a8.001 8.001 0 0 0-7.673 8.315Z" fill="#E6BEAE"/><path d="m213.827 137.673.805 20.055a8 8 0 0 0 8.315 7.672l20.056-.805a8.001 8.001 0 0 0 7.673-8.315l-.806-20.055a8 8 0 0 0-8.314-7.672l-20.057.805a8 8 0 0 0-7.672 8.315Z" fill="#E7D8C9"/><path d="m226.978 140.085.274 6.817a3.205 3.205 0 0 0 6.405-.257l-.274-6.817a3.205 3.205 0 0 0-6.405.257Zm8.071-.321.274 6.817a3.204 3.204 0 1 0 6.404-.257l-.274-6.817a3.205 3.205 0 1 0-6.404.257Z" fill="#E6BEAE"/><path d="m225.179 156.36-3.561.144a2.447 2.447 0 0 0 .196 4.89l3.562-.143a2.447 2.447 0 1 0-.197-4.891Z" fill="#F6F8FC"/><path d="m272.475 61.76-12.909 33.628a6.465 6.465 0 0 0 3.719 8.354l39.405 15.126a6.467 6.467 0 0 0 8.355-3.72l12.909-33.627a6.466 6.466 0 0 0-3.719-8.354L280.829 58.04a6.466 6.466 0 0 0-8.354 3.72Z" fill="#E7D8C9"/><path d="m272.475 61.761-12.909 33.627a6.467 6.467 0 0 0 3.719 8.355l39.405 15.125a6.467 6.467 0 0 0 8.355-3.72l12.909-33.627a6.466 6.466 0 0 0-3.719-8.354L280.829 58.04a6.466 6.466 0 0 0-8.354 3.72Z" fill="#E7D8C9"/><path d="m275.134 69.283-8.622 22.46a7.999 7.999 0 0 0 4.601 10.336l22.463 8.622a8 8 0 0 0 10.335-4.602l8.623-22.46a8 8 0 0 0-4.602-10.336l-22.462-8.622a8 8 0 0 0-10.336 4.602Z" fill="#E6BEAE"/><path d="m276.217 71.737-7.194 18.738a8 8 0 0 0 4.602 10.335l18.74 7.193a8 8 0 0 0 10.335-4.602l7.194-18.737a8 8 0 0 0-4.602-10.336l-18.74-7.193a8 8 0 0 0-10.335 4.602Z" fill="#E7D8C9"/><path d="m287.434 79.257-2.446 6.37a3.205 3.205 0 0 0 5.984 2.296l2.445-6.37a3.204 3.204 0 1 0-5.983-2.296Zm7.542 2.894-2.445 6.37a3.205 3.205 0 0 0 5.984 2.296l2.445-6.37a3.204 3.204 0 1 0-5.984-2.296Z" fill="#E6BEAE"/><path d="m279.347 93.492-3.328-1.278a2.447 2.447 0 0 0-1.754 4.57l3.328 1.277a2.448 2.448 0 0 0 1.754-4.57Z" fill="#F6F8FC"/><path d="M314.128 98.147a4.984 4.984 0 1 0 0-9.967 4.984 4.984 0 0 0 0 9.967Z" fill="#E6BEAE" stroke="#fff" stroke-miterlimit="10"/><path d="m309.46 91.365-1.786 4.653 4.653 1.786 1.786-4.653-4.653-1.786Z" fill="#E6BEAE" stroke="#fff" stroke-miterlimit="10"/><path d="m314.129 93.163 4.653 1.785m-4.653-1.785 1.785-4.653m-1.785 4.653 2.027 4.554m-3.912-9.054 2.027 4.554m-.142-.054 4.554-2.027" stroke="#fff" stroke-miterlimit="10"/><path d="M-7.346 125.043a8.761 8.761 0 1 0 0-17.523 8.761 8.761 0 0 0 0 17.523Z" fill="url(#k)"/><path d="M-1.442 116.715a4.684 4.684 0 1 0 0-9.368 4.684 4.684 0 0 0 0 9.368Z" fill="url(#l)"/><path d="M-4.526 127.856a4.684 4.684 0 1 0 0-9.368 4.684 4.684 0 0 0 0 9.368Z" fill="url(#m)"/><path d="M36.323 141.406c7.463 0 13.513-6.05 13.513-13.512 0-7.462-6.05-13.512-13.513-13.512s-13.512 6.05-13.512 13.512c0 7.462 6.05 13.512 13.512 13.512Z" fill="#BBCBB6"/><path d="M22.909 132.575a7.227 7.227 0 1 0 0-14.455 7.227 7.227 0 0 0 0 14.455Zm20.379-8.961a7.227 7.227 0 1 0 0-14.455 7.227 7.227 0 0 0 0 14.455Z" fill="#BBCBB6"/><path d="M47.468 133.829a7.227 7.227 0 1 0 0-14.455 7.227 7.227 0 0 0 0 14.455Zm-16.188-7.23a7.227 7.227 0 1 0 0-14.455 7.227 7.227 0 0 0 0 14.455Z" fill="#BBCBB6"/><path d="M42.61 145.352a7.227 7.227 0 1 0 0-14.455 7.227 7.227 0 0 0 0 14.455Z" fill="#BBCBB6"/><path d="M30.136 144.273a7.227 7.227 0 1 0 0-14.455 7.227 7.227 0 0 0 0 14.455Z" fill="#BBCBB6"/><path d="M151.976 86.344c5.977 0 10.823-4.846 10.823-10.823 0-5.978-4.846-10.823-10.823-10.823-5.978 0-10.824 4.845-10.824 10.823 0 5.977 4.846 10.823 10.824 10.823Z" fill="url(#n)"/><path d="M141.232 79.27a5.789 5.789 0 1 0 0-11.578 5.789 5.789 0 0 0 0 11.577Z" fill="url(#o)"/><path d="M157.553 72.093a5.788 5.788 0 1 0-5.789-5.789 5.788 5.788 0 0 0 5.789 5.79Z" fill="url(#p)"/><path d="M160.898 80.272a5.789 5.789 0 1 0 0-11.578 5.789 5.789 0 0 0 0 11.578Z" fill="url(#q)"/><path d="M147.933 74.483a5.789 5.789 0 1 0 0-11.577 5.789 5.789 0 0 0 0 11.577Z" fill="url(#r)"/><path d="M157.01 89.503a5.788 5.788 0 1 0-5.789-5.789 5.788 5.788 0 0 0 5.789 5.79Z" fill="url(#s)"/><path d="M147.023 88.638a5.789 5.789 0 1 0 0-11.578 5.789 5.789 0 0 0 0 11.578Z" fill="url(#t)"/><path d="M82.667 1.1c5.978 0 10.824-4.845 10.824-10.822 0-5.978-4.846-10.823-10.824-10.823-5.977 0-10.823 4.845-10.823 10.823C71.844-3.745 76.69 1.1 82.667 1.1Z" fill="url(#u)"/><path d="M87.701 4.26a5.789 5.789 0 1 0 0-11.577 5.789 5.789 0 0 0 0 11.578Z" fill="url(#v)"/><path d="M77.715 3.398a5.789 5.789 0 1 0 0-11.577 5.789 5.789 0 0 0 0 11.577Z" fill="url(#w)"/><path d="M99.581 6.16c5.978 0 10.824-4.845 10.824-10.822 0-5.978-4.846-10.823-10.824-10.823-5.977 0-10.823 4.845-10.823 10.823 0 5.977 4.846 10.823 10.823 10.823Z" fill="url(#x)"/><path d="M108.508.092a5.788 5.788 0 0 0 5.788-5.789 5.788 5.788 0 1 0-11.577 0 5.789 5.789 0 0 0 5.789 5.789Z" fill="url(#y)"/><path d="M104.619 9.32a5.789 5.789 0 1 0 0-11.577 5.789 5.789 0 0 0 0 11.577Z" fill="url(#z)"/><path d="M94.633 8.458a5.788 5.788 0 1 0 0-11.577 5.788 5.788 0 0 0 0 11.577Z" fill="url(#A)"/><path d="M43.794 158.577c5.978 0 10.824-4.845 10.824-10.823 0-5.977-4.846-10.823-10.824-10.823-5.977 0-10.823 4.846-10.823 10.823 0 5.978 4.846 10.823 10.823 10.823Z" fill="url(#B)"/><path d="M33.05 151.503a5.789 5.789 0 1 0 0-11.578 5.789 5.789 0 0 0 0 11.578Z" fill="url(#C)"/><path d="M49.37 144.327a5.79 5.79 0 1 0 0-11.578 5.79 5.79 0 0 0 0 11.578Z" fill="url(#D)"/><path d="M52.72 152.505a5.788 5.788 0 1 0 0-11.577 5.79 5.79 0 0 0 0 11.577Z" fill="url(#E)"/><path d="M39.758 146.717a5.788 5.788 0 1 0 0-11.577 5.789 5.789 0 0 0 0 11.577Z" fill="url(#F)"/><path d="M48.828 161.737a5.789 5.789 0 1 0 0-11.578 5.789 5.789 0 0 0 0 11.578Z" fill="url(#G)"/><path d="M38.842 160.872a5.79 5.79 0 1 0 0-11.578 5.79 5.79 0 0 0 0 11.578Z" fill="url(#H)"/><path d="M142.689 170.562c5.977 0 10.823-4.846 10.823-10.823 0-5.978-4.846-10.823-10.823-10.823-5.978 0-10.824 4.845-10.824 10.823 0 5.977 4.846 10.823 10.824 10.823Z" fill="url(#I)"/><path d="M131.945 163.487a5.788 5.788 0 1 0 0-11.577 5.79 5.79 0 0 0 0 11.577Z" fill="url(#J)"/><path d="M148.265 156.311a5.789 5.789 0 1 0 0-11.577 5.789 5.789 0 0 0 0 11.577Z" fill="url(#K)"/><path d="M151.615 164.49a5.79 5.79 0 1 0 0-11.578 5.79 5.79 0 0 0 0 11.578Z" fill="url(#L)"/><path d="M138.652 158.701a5.788 5.788 0 1 0 0-11.577 5.79 5.79 0 0 0 0 11.577Z" fill="url(#M)"/><path d="M147.722 173.721a5.789 5.789 0 1 0 0-11.577 5.789 5.789 0 0 0 0 11.577Z" fill="url(#N)"/><path d="M137.736 172.856a5.79 5.79 0 1 0 0-11.578 5.79 5.79 0 0 0 0 11.578Z" fill="url(#O)"/><path d="M325.947 155.484c5.977 0 10.823-4.846 10.823-10.823s-4.846-10.823-10.823-10.823c-5.978 0-10.824 4.846-10.824 10.823s4.846 10.823 10.824 10.823Z" fill="#BBCBB6"/><path d="M315.203 148.41a5.79 5.79 0 1 0 0-11.578 5.79 5.79 0 0 0 0 11.578Zm16.32-7.176a5.79 5.79 0 1 0 0-11.578 5.79 5.79 0 0 0 0 11.578Z" fill="#BBCBB6"/><path d="M321.91 143.624a5.79 5.79 0 1 0 0-11.578 5.79 5.79 0 0 0 0 11.578Zm9.07 15.02a5.79 5.79 0 1 0 0-11.578 5.79 5.79 0 0 0 0 11.578Z" fill="#BBCBB6"/><path d="M320.994 157.778a5.788 5.788 0 1 0 0-11.577 5.79 5.79 0 0 0 0 11.577Zm-22.997 36.316c5.978 0 10.824-4.845 10.824-10.823 0-5.977-4.846-10.823-10.824-10.823-5.977 0-10.823 4.846-10.823 10.823 0 5.978 4.846 10.823 10.823 10.823Z" fill="#BBCBB6"/><path d="M287.254 187.02a5.79 5.79 0 1 0 0-11.578 5.79 5.79 0 0 0 0 11.578Zm16.32-7.176a5.789 5.789 0 1 0 0-11.578 5.789 5.789 0 0 0 0 11.578Z" fill="#BBCBB6"/><path d="M306.92 188.022a5.788 5.788 0 1 0 0-11.577 5.79 5.79 0 0 0 0 11.577Zm-12.959-5.788a5.789 5.789 0 1 0 0-11.578 5.789 5.789 0 0 0 0 11.578Z" fill="#BBCBB6"/><path d="M303.031 197.254a5.788 5.788 0 1 0 0-11.577 5.79 5.79 0 0 0 0 11.577Z" fill="#BBCBB6"/><path d="M293.045 196.389a5.79 5.79 0 1 0 0-11.578 5.79 5.79 0 0 0 0 11.578ZM237.679 38.938c5.978 0 10.823-4.846 10.823-10.823 0-5.978-4.845-10.823-10.823-10.823-5.978 0-10.824 4.845-10.824 10.823 0 5.977 4.846 10.823 10.824 10.823Z" fill="#BBCBB6"/><path d="M226.935 31.863a5.789 5.789 0 1 0 0-11.577 5.789 5.789 0 0 0 0 11.577Zm16.321-7.173a5.789 5.789 0 1 0 0-11.577 5.789 5.789 0 0 0 0 11.578Z" fill="#BBCBB6"/><path d="M246.601 32.869a5.789 5.789 0 1 0 0-11.578 5.789 5.789 0 0 0 0 11.578Zm-12.959-5.789a5.789 5.789 0 1 0 0-11.577 5.789 5.789 0 0 0 0 11.578Z" fill="#BBCBB6"/><path d="M242.713 42.097a5.789 5.789 0 1 0 0-11.577 5.789 5.789 0 0 0 0 11.577Z" fill="#BBCBB6"/><path d="M232.726 41.235a5.789 5.789 0 1 0 0-11.578 5.789 5.789 0 0 0 0 11.578Z" fill="#BBCBB6"/><path d="M24.134 163.713c5.978 0 10.824-4.845 10.824-10.823 0-5.977-4.846-10.822-10.824-10.822S13.31 146.913 13.31 152.89c0 5.978 4.846 10.823 10.824 10.823Z" fill="url(#P)"/><path d="M13.39 156.639a5.788 5.788 0 1 0 0-11.577 5.789 5.789 0 0 0 0 11.577Z" fill="url(#Q)"/><path d="M29.71 149.463a5.788 5.788 0 1 0 0-11.577 5.789 5.789 0 0 0 0 11.577Z" fill="url(#R)"/><path d="M33.056 157.642a5.79 5.79 0 1 0 0-11.578 5.79 5.79 0 0 0 0 11.578Z" fill="url(#S)"/><path d="M20.098 151.853a5.788 5.788 0 1 0 0-11.577 5.79 5.79 0 0 0 0 11.577Z" fill="url(#T)"/><path d="M29.168 166.873a5.788 5.788 0 1 0 0-11.577 5.789 5.789 0 0 0 0 11.577Z" fill="url(#U)"/><path d="M19.181 166.008a5.79 5.79 0 1 0 0-11.578 5.79 5.79 0 0 0 0 11.578Z" fill="url(#V)"/><path d="M251.55 52.338c5.978 0 10.824-4.846 10.824-10.823s-4.846-10.823-10.824-10.823-10.823 4.846-10.823 10.823 4.845 10.823 10.823 10.823Z" fill="url(#W)"/><path d="M240.806 45.264a5.788 5.788 0 1 0 .002-11.577 5.788 5.788 0 0 0-.002 11.577Z" fill="url(#X)"/><path d="M257.129 38.088a5.789 5.789 0 1 0 0-11.578 5.789 5.789 0 0 0 0 11.578Z" fill="url(#Y)"/><path d="M260.476 46.266a5.789 5.789 0 1 0 0-11.578 5.789 5.789 0 0 0 0 11.578Z" fill="url(#Z)"/><path d="M247.513 40.478a5.788 5.788 0 1 0 .002-11.577 5.788 5.788 0 0 0-.002 11.577Z" fill="url(#aa)"/><path d="M256.588 55.498a5.789 5.789 0 1 0 0-11.578 5.789 5.789 0 0 0 0 11.578Z" fill="url(#ab)"/><path d="M246.599 54.632a5.789 5.789 0 1 0 0-11.577 5.789 5.789 0 0 0 0 11.577Z" fill="url(#ac)"/><path d="M184.198 8.302c9.351 0 16.931-7.58 16.931-16.93s-7.58-16.93-16.931-16.93c-9.35 0-16.93 7.58-16.93 16.93s7.58 16.93 16.93 16.93Z" fill="url(#ad)"/><path d="M197.431 5.161a9.054 9.054 0 1 0 0-18.108 9.054 9.054 0 0 0 0 18.108Z" fill="url(#ae)"/><path d="M185.576 15.408a9.054 9.054 0 0 0 0-18.107 9.054 9.054 0 1 0 0 18.107Z" fill="url(#af)"/><path d="M172.167 7.271a9.053 9.053 0 0 0 9.054-9.054c0-5-4.053-9.053-9.054-9.053a9.054 9.054 0 0 0 0 18.107Z" fill="url(#ag)"/><path d="M203.204 62.165a7.803 7.803 0 1 0 0-15.607 7.803 7.803 0 0 0 0 15.607Z" fill="#BBCBB6"/><path d="M195.463 57.064a4.172 4.172 0 1 0 0-8.344 4.172 4.172 0 0 0 0 8.344Zm11.766-5.171a4.172 4.172 0 1 0 0-8.345 4.172 4.172 0 0 0 0 8.345Z" fill="#BBCBB6"/><path d="M209.643 57.79a4.172 4.172 0 1 0 0-8.345 4.172 4.172 0 0 0 0 8.345Zm-9.348-4.176a4.172 4.172 0 1 0 0-8.344 4.172 4.172 0 0 0 0 8.344Z" fill="#BBCBB6"/><path d="M206.838 64.444a4.172 4.172 0 1 0 0-8.345 4.172 4.172 0 0 0 0 8.345Z" fill="#BBCBB6"/><path d="M199.637 63.82a4.172 4.172 0 1 0 0-8.344 4.172 4.172 0 0 0 0 8.344Zm-30.486-41.31a7.803 7.803 0 0 0 7.803-7.802 7.803 7.803 0 0 0-7.803-7.803 7.803 7.803 0 0 0-7.803 7.803 7.803 7.803 0 0 0 7.803 7.803Z" fill="#BBCBB6"/><path d="M161.407 17.41a4.172 4.172 0 1 0 0-8.344 4.172 4.172 0 0 0 0 8.344Zm11.765-5.174a4.172 4.172 0 1 0 0-8.345 4.172 4.172 0 0 0 0 8.345Z" fill="#BBCBB6"/><path d="M175.588 18.132a4.172 4.172 0 1 0 0-8.344 4.172 4.172 0 0 0 0 8.344Zm-9.347-4.175a4.172 4.172 0 1 0 0-8.344 4.172 4.172 0 0 0 0 8.344Z" fill="#BBCBB6"/><path d="M172.782 24.786a4.172 4.172 0 1 0 0-8.344 4.172 4.172 0 0 0 0 8.344Z" fill="#BBCBB6"/><path d="M165.58 24.163a4.172 4.172 0 1 0 .001-8.345 4.172 4.172 0 0 0-.001 8.345Zm-45.71.776a7.803 7.803 0 1 0 0-15.607 7.803 7.803 0 0 0 0 15.607Z" fill="#BBCBB6"/><path d="M115.338 14.858a4.172 4.172 0 1 0 0-8.345 4.172 4.172 0 0 0 0 8.345Zm12.045 4.49a4.172 4.172 0 1 0 0-8.344 4.172 4.172 0 0 0 0 8.344Z" fill="#BBCBB6"/><path d="M125.002 25.257a4.172 4.172 0 1 0 0-8.344 4.172 4.172 0 0 0 0 8.344Zm-3.793-9.505a4.172 4.172 0 1 0 0-8.344 4.172 4.172 0 0 0 0 8.344Z" fill="#BBCBB6"/><path d="M118.356 28.077a4.172 4.172 0 1 0 0-8.344 4.172 4.172 0 0 0 0 8.344Z" fill="#BBCBB6"/><path d="M113.625 22.61a4.171 4.171 0 1 0 0-8.345 4.172 4.172 0 0 0 0 8.345Zm23.808 181.185a7.803 7.803 0 1 0 15.075 4.039 7.804 7.804 0 0 0-15.075-4.039Z" fill="#BBCBB6"/><path d="M148.344 202.029a4.172 4.172 0 1 0 8.06 2.158 4.172 4.172 0 0 0-8.06-2.158Zm-7.455 10.47a4.173 4.173 0 1 0 8.063 2.159 4.173 4.173 0 0 0-8.063-2.159Z" fill="#BBCBB6"/><path d="M135.797 208.671a4.173 4.173 0 1 0 8.062 2.158 4.173 4.173 0 0 0-8.062-2.158Zm10.163-1.203a4.172 4.172 0 1 0 8.06 2.158 4.172 4.172 0 0 0-8.06-2.158Z" fill="#BBCBB6"/><path d="M134.794 201.521a4.172 4.172 0 1 0 8.06 2.158 4.172 4.172 0 0 0-8.06-2.158Z" fill="#BBCBB6"/><path d="M141.299 198.367a4.173 4.173 0 1 0 8.061 2.159 4.173 4.173 0 0 0-8.061-2.159Zm145.233-38.31a7.803 7.803 0 1 0 0-15.606 7.803 7.803 0 0 0 0 15.606Z" fill="#BBCBB6"/><path d="M282 149.973a4.172 4.172 0 1 0 .001-8.345 4.172 4.172 0 0 0-.001 8.345Zm12.045 4.493a4.172 4.172 0 1 0 0-8.344 4.172 4.172 0 0 0 0 8.344Z" fill="#BBCBB6"/><path d="M291.664 160.375a4.172 4.172 0 1 0 .001-8.345 4.172 4.172 0 0 0-.001 8.345Zm-3.791-9.505a4.172 4.172 0 1 0 .001-8.345 4.172 4.172 0 0 0-.001 8.345Z" fill="#BBCBB6"/><path d="M285.018 163.192a4.172 4.172 0 1 0 0-8.344 4.172 4.172 0 0 0 0 8.344Z" fill="#BBCBB6"/><path d="M280.287 157.728a4.172 4.172 0 1 0 .001-8.345 4.172 4.172 0 0 0-.001 8.345Z" fill="#BBCBB6"/><path d="M58.005 143.258a8.76 8.76 0 1 0 0-17.522 8.762 8.762 0 0 0 0 17.522Z" fill="url(#ah)"/><path d="M64.298 132.954a4.684 4.684 0 1 0 0-9.369 4.684 4.684 0 0 0 0 9.369Z" fill="url(#ai)"/><path d="M61.593 147.131a4.684 4.684 0 1 0 0-9.368 4.684 4.684 0 0 0 0 9.368Z" fill="url(#aj)"/><path d="M54.6 145.607a4.685 4.685 0 1 0 0-9.37 4.685 4.685 0 0 0 0 9.37Z" fill="url(#ak)"/><path d="M52.427 134.256a4.685 4.685 0 1 0-.001-9.37 4.685 4.685 0 0 0 0 9.37Z" fill="url(#al)"/><path d="M192.131 197.286c2.727-5.319.626-11.841-4.694-14.568-5.319-2.727-11.842-.626-14.569 4.693-2.727 5.319-.626 11.841 4.693 14.569 5.319 2.727 11.842.625 14.57-4.694Z" fill="#BBCBB6"/><path d="M178.758 188.625a5.79 5.79 0 1 0-10.303-5.283 5.79 5.79 0 0 0 10.303 5.283Zm17.827.345a5.79 5.79 0 1 0-10.304-5.28 5.79 5.79 0 0 0 10.304 5.28Z" fill="#BBCBB6"/><path d="M196.186 197.798a5.788 5.788 0 1 0-10.303-5.281 5.79 5.79 0 0 0 10.303 5.281Zm-9.332-10.698a5.79 5.79 0 1 0-10.303-5.283 5.79 5.79 0 0 0 10.303 5.283Z" fill="#BBCBB6"/><path d="M188.778 204.539a5.79 5.79 0 1 0-10.303-5.28 5.79 5.79 0 0 0 10.303 5.28Z" fill="#BBCBB6"/><path d="M180.079 199.56a5.79 5.79 0 1 0-10.305-5.282 5.79 5.79 0 0 0 10.305 5.282Zm-86.872-7.784c2.727-5.319.626-11.842-4.693-14.569-5.32-2.727-11.843-.626-14.57 4.694-2.727 5.319-.626 11.841 4.693 14.568 5.32 2.727 11.842.626 14.57-4.693Z" fill="#BBCBB6"/><path d="M79.835 183.114a5.788 5.788 0 1 0-10.303-5.282 5.79 5.79 0 1 0 10.303 5.282Zm17.824.349a5.79 5.79 0 1 0-10.304-5.283 5.79 5.79 0 0 0 10.304 5.283Z" fill="#BBCBB6"/><path d="M97.262 192.288a5.788 5.788 0 1 0-10.302-5.282 5.789 5.789 0 0 0 10.303 5.282Zm-9.33-10.698a5.789 5.789 0 1 0-10.303-5.282 5.789 5.789 0 0 0 10.303 5.282Z" fill="#BBCBB6"/><path d="M89.854 199.032a5.789 5.789 0 1 0-10.303-5.282 5.789 5.789 0 0 0 10.303 5.282Z" fill="#BBCBB6"/><path d="M81.15 194.049a5.789 5.789 0 1 0-10.301-5.282 5.789 5.789 0 0 0 10.302 5.282Zm127.614-3.763a8.76 8.76 0 0 0-3.799-11.793 8.761 8.761 0 1 0 3.799 11.793Z" fill="#BBCBB6"/><path d="M213.463 185.418a4.685 4.685 0 1 0-8.338-4.275 4.685 4.685 0 0 0 8.338 4.275Zm-8.416 11.727a4.684 4.684 0 1 0-8.336-4.274 4.684 4.684 0 0 0 8.336 4.274Z" fill="#BBCBB6"/><path d="M199.344 192.826a4.684 4.684 0 1 0-8.336-4.274 4.684 4.684 0 0 0 8.336 4.274Zm2.799-11.213a4.685 4.685 0 1 0-8.338-4.274 4.685 4.685 0 0 0 8.338 4.274ZM337.577 52.389c5.978 0 10.824-4.846 10.824-10.823s-4.846-10.823-10.824-10.823c-5.977 0-10.823 4.846-10.823 10.823s4.846 10.823 10.823 10.823Z" fill="#BBCBB6"/><path d="M326.834 45.315a5.789 5.789 0 1 0 0-11.578 5.789 5.789 0 0 0 0 11.578Z" fill="#BBCBB6"/><path d="M333.541 40.529a5.789 5.789 0 1 0 0-11.578 5.789 5.789 0 0 0 0 11.578Zm-.916 14.157a5.789 5.789 0 1 0 0-11.577 5.789 5.789 0 0 0 0 11.577Zm2.759-41.741a8.761 8.761 0 1 0 .001-17.523 8.761 8.761 0 0 0-.001 17.523Z" fill="#BBCBB6"/><path d="M327.97 9.496a4.684 4.684 0 1 0 0-9.369 4.684 4.684 0 0 0 0 9.369Z" fill="#BBCBB6"/><path d="M160.564 38.11a8.76 8.76 0 0 0 8.761-8.76 8.76 8.76 0 0 0-8.761-8.762 8.76 8.76 0 0 0-8.761 8.761 8.76 8.76 0 0 0 8.761 8.761Z" fill="url(#am)"/><path d="M166.856 27.806a4.684 4.684 0 1 0 .001-9.369 4.684 4.684 0 0 0-.001 9.37Z" fill="url(#an)"/><path d="M164.151 41.983a4.684 4.684 0 1 0 .001-9.369 4.684 4.684 0 0 0-.001 9.37Z" fill="url(#ao)"/><path d="M157.159 40.462a4.685 4.685 0 1 0 0-9.37 4.685 4.685 0 0 0 0 9.37Z" fill="url(#ap)"/><path d="M154.985 29.108a4.684 4.684 0 1 0 .001-9.369 4.684 4.684 0 0 0-.001 9.369Z" fill="url(#aq)"/><path d="M2.015 18.746a9.49 9.49 0 1 0 0-18.979 9.49 9.49 0 1 0 0 18.98Z" fill="#BBCBB6"/><path d="M11.51 12.968a5.076 5.076 0 1 0 0-10.152 5.076 5.076 0 0 0 0 10.152ZM.012 23.564a5.076 5.076 0 1 0 0-10.151 5.076 5.076 0 0 0 0 10.151Zm.32-17.117a5.076 5.076 0 1 0 0-10.152 5.076 5.076 0 0 0 0 10.152Zm101.93 155.519a9.49 9.49 0 0 0 0-18.979 9.49 9.49 0 1 0 0 18.979Z" fill="#BBCBB6"/><path d="M108.498 164.837a5.077 5.077 0 1 0-.001-10.153 5.077 5.077 0 0 0 .001 10.153Zm-15.104-4.032a5.076 5.076 0 1 0 .001-10.151 5.076 5.076 0 0 0 0 10.151Z" fill="#BBCBB6"/><path d="M95.584 153.368a5.076 5.076 0 1 0 0-10.152 5.076 5.076 0 0 0 0 10.152Zm12.437-1.457a5.076 5.076 0 1 0 0-10.152 5.076 5.076 0 0 0 0 10.152Z" fill="#BBCBB6"/><path d="M31.892 24.69a9.49 9.49 0 1 0 0-18.978 9.49 9.49 0 1 0 0 18.979Z" fill="url(#ar)"/><path d="M27.635 28.87a5.076 5.076 0 1 0 0-10.153 5.076 5.076 0 0 0 0 10.152Z" fill="url(#as)"/><path d="M25.426 13.39a5.076 5.076 0 1 0 0-10.151 5.076 5.076 0 0 0 0 10.152Z" fill="url(#at)"/><path d="M33.125 12.493a5.076 5.076 0 1 0 0-10.152 5.076 5.076 0 0 0 0 10.152Z" fill="url(#au)"/><path d="M39.34 23.364a5.076 5.076 0 1 0 0-10.152 5.076 5.076 0 0 0 0 10.152Z" fill="url(#av)"/><path d="M76.528 48.58a7.561 7.561 0 1 0 0-15.123 7.561 7.561 0 0 0 0 15.123Z" fill="url(#aw)"/><path d="M73.137 51.912a4.045 4.045 0 1 0 0-8.09 4.045 4.045 0 0 0 0 8.09Z" fill="url(#ax)"/><path d="M71.377 39.58a4.045 4.045 0 1 0 0-8.09 4.045 4.045 0 0 0 0 8.09Z" fill="url(#ay)"/><path d="M77.51 38.864a4.045 4.045 0 1 0 0-8.09 4.045 4.045 0 0 0 0 8.09Z" fill="url(#az)"/><path d="M82.465 47.523a4.045 4.045 0 1 0 0-8.09 4.045 4.045 0 0 0 0 8.09Z" fill="url(#aA)"/></g><defs><linearGradient id="c" x1="51.583" y1="158.607" x2="51.583" y2="185.285" gradientUnits="userSpaceOnUse"><stop stop-color="#7EA373"/><stop offset="1" stop-color="#A6FA8C"/></linearGradient><linearGradient id="e" x1="-21.822" y1="-48.373" x2="-21.822" y2="-16.711" gradientUnits="userSpaceOnUse"><stop stop-color="#7EA373"/><stop offset="1" stop-color="#A6FA8C"/></linearGradient><linearGradient id="g" x1="303.974" y1="-14.952" x2="303.974" y2="11.141" gradientUnits="userSpaceOnUse"><stop stop-color="#E7D8C9"/><stop offset="1" stop-color="#E6BEAE"/></linearGradient><linearGradient id="i" x1="362.167" y1="158.607" x2="362.167" y2="201.703" gradientUnits="userSpaceOnUse"><stop stop-color="#E7D8C9"/><stop offset="1" stop-color="#E6BEAE"/></linearGradient><linearGradient id="k" x1="-7.346" y1="107.521" x2="-7.346" y2="125.043" gradientUnits="userSpaceOnUse"><stop stop-color="#ECF0EA"/><stop offset="1" stop-color="#ECF0EA"/></linearGradient><linearGradient id="l" x1="-1.442" y1="107.346" x2="-1.442" y2="116.715" gradientUnits="userSpaceOnUse"><stop stop-color="#ECF0EA"/><stop offset="1" stop-color="#ECF0EA"/></linearGradient><linearGradient id="m" x1="-4.526" y1="118.487" x2="-4.526" y2="127.856" gradientUnits="userSpaceOnUse"><stop stop-color="#ECF0EA"/><stop offset="1" stop-color="#ECF0EA"/></linearGradient><linearGradient id="n" x1="151.976" y1="64.698" x2="151.976" y2="86.344" gradientUnits="userSpaceOnUse"><stop stop-color="#ECF0EA"/><stop offset="1" stop-color="#ECF0EA"/></linearGradient><linearGradient id="o" x1="141.232" y1="67.692" x2="141.232" y2="79.269" gradientUnits="userSpaceOnUse"><stop stop-color="#ECF0EA"/><stop offset="1" stop-color="#ECF0EA"/></linearGradient><linearGradient id="p" x1="157.553" y1="60.516" x2="157.553" y2="72.093" gradientUnits="userSpaceOnUse"><stop stop-color="#ECF0EA"/><stop offset="1" stop-color="#ECF0EA"/></linearGradient><linearGradient id="q" x1="160.898" y1="68.695" x2="160.898" y2="80.272" gradientUnits="userSpaceOnUse"><stop stop-color="#ECF0EA"/><stop offset="1" stop-color="#ECF0EA"/></linearGradient><linearGradient id="r" x1="147.933" y1="62.906" x2="147.933" y2="74.483" gradientUnits="userSpaceOnUse"><stop stop-color="#ECF0EA"/><stop offset="1" stop-color="#ECF0EA"/></linearGradient><linearGradient id="s" x1="157.01" y1="77.926" x2="157.01" y2="89.503" gradientUnits="userSpaceOnUse"><stop stop-color="#ECF0EA"/><stop offset="1" stop-color="#ECF0EA"/></linearGradient><linearGradient id="t" x1="147.023" y1="77.061" x2="147.023" y2="88.638" gradientUnits="userSpaceOnUse"><stop stop-color="#ECF0EA"/><stop offset="1" stop-color="#ECF0EA"/></linearGradient><linearGradient id="u" x1="82.667" y1="-20.545" x2="82.667" y2="1.101" gradientUnits="userSpaceOnUse"><stop stop-color="#ECF0EA"/><stop offset="1" stop-color="#ECF0EA"/></linearGradient><linearGradient id="v" x1="87.701" y1="-7.317" x2="87.701" y2="4.261" gradientUnits="userSpaceOnUse"><stop stop-color="#ECF0EA"/><stop offset="1" stop-color="#ECF0EA"/></linearGradient><linearGradient id="w" x1="77.715" y1="-8.179" x2="77.715" y2="3.398" gradientUnits="userSpaceOnUse"><stop stop-color="#ECF0EA"/><stop offset="1" stop-color="#ECF0EA"/></linearGradient><linearGradient id="x" x1="99.581" y1="-15.485" x2="99.581" y2="6.161" gradientUnits="userSpaceOnUse"><stop stop-color="#ECF0EA"/><stop offset="1" stop-color="#ECF0EA"/></linearGradient><linearGradient id="y" x1="108.508" y1="-11.485" x2="108.508" y2=".092" gradientUnits="userSpaceOnUse"><stop stop-color="#ECF0EA"/><stop offset="1" stop-color="#ECF0EA"/></linearGradient><linearGradient id="z" x1="104.619" y1="-2.257" x2="104.619" y2="9.32" gradientUnits="userSpaceOnUse"><stop stop-color="#ECF0EA"/><stop offset="1" stop-color="#ECF0EA"/></linearGradient><linearGradient id="A" x1="94.633" y1="-3.119" x2="94.633" y2="8.458" gradientUnits="userSpaceOnUse"><stop stop-color="#ECF0EA"/><stop offset="1" stop-color="#ECF0EA"/></linearGradient><linearGradient id="B" x1="43.794" y1="136.931" x2="43.794" y2="158.577" gradientUnits="userSpaceOnUse"><stop stop-color="#ECF0EA"/><stop offset="1" stop-color="#ECF0EA"/></linearGradient><linearGradient id="C" x1="33.051" y1="139.926" x2="33.051" y2="151.503" gradientUnits="userSpaceOnUse"><stop stop-color="#ECF0EA"/><stop offset="1" stop-color="#ECF0EA"/></linearGradient><linearGradient id="D" x1="49.371" y1="132.75" x2="49.371" y2="144.327" gradientUnits="userSpaceOnUse"><stop stop-color="#ECF0EA"/><stop offset="1" stop-color="#ECF0EA"/></linearGradient><linearGradient id="E" x1="52.721" y1="140.928" x2="52.721" y2="152.505" gradientUnits="userSpaceOnUse"><stop stop-color="#ECF0EA"/><stop offset="1" stop-color="#ECF0EA"/></linearGradient><linearGradient id="F" x1="39.758" y1="135.14" x2="39.758" y2="146.717" gradientUnits="userSpaceOnUse"><stop stop-color="#ECF0EA"/><stop offset="1" stop-color="#ECF0EA"/></linearGradient><linearGradient id="G" x1="48.828" y1="150.16" x2="48.828" y2="161.737" gradientUnits="userSpaceOnUse"><stop stop-color="#ECF0EA"/><stop offset="1" stop-color="#ECF0EA"/></linearGradient><linearGradient id="H" x1="38.842" y1="149.294" x2="38.842" y2="160.872" gradientUnits="userSpaceOnUse"><stop stop-color="#ECF0EA"/><stop offset="1" stop-color="#ECF0EA"/></linearGradient><linearGradient id="I" x1="142.689" y1="148.916" x2="142.689" y2="170.562" gradientUnits="userSpaceOnUse"><stop stop-color="#ECF0EA"/><stop offset="1" stop-color="#ECF0EA"/></linearGradient><linearGradient id="J" x1="131.945" y1="151.91" x2="131.945" y2="163.487" gradientUnits="userSpaceOnUse"><stop stop-color="#ECF0EA"/><stop offset="1" stop-color="#ECF0EA"/></linearGradient><linearGradient id="K" x1="148.265" y1="144.734" x2="148.265" y2="156.311" gradientUnits="userSpaceOnUse"><stop stop-color="#ECF0EA"/><stop offset="1" stop-color="#ECF0EA"/></linearGradient><linearGradient id="L" x1="151.615" y1="152.913" x2="151.615" y2="164.49" gradientUnits="userSpaceOnUse"><stop stop-color="#ECF0EA"/><stop offset="1" stop-color="#ECF0EA"/></linearGradient><linearGradient id="M" x1="138.652" y1="147.124" x2="138.652" y2="158.701" gradientUnits="userSpaceOnUse"><stop stop-color="#ECF0EA"/><stop offset="1" stop-color="#ECF0EA"/></linearGradient><linearGradient id="N" x1="147.722" y1="162.144" x2="147.722" y2="173.721" gradientUnits="userSpaceOnUse"><stop stop-color="#ECF0EA"/><stop offset="1" stop-color="#ECF0EA"/></linearGradient><linearGradient id="O" x1="137.736" y1="161.279" x2="137.736" y2="172.856" gradientUnits="userSpaceOnUse"><stop stop-color="#ECF0EA"/><stop offset="1" stop-color="#ECF0EA"/></linearGradient><linearGradient id="P" x1="24.134" y1="142.068" x2="24.134" y2="163.713" gradientUnits="userSpaceOnUse"><stop stop-color="#ECF0EA"/><stop offset="1" stop-color="#ECF0EA"/></linearGradient><linearGradient id="Q" x1="13.39" y1="145.062" x2="13.39" y2="156.639" gradientUnits="userSpaceOnUse"><stop stop-color="#ECF0EA"/><stop offset="1" stop-color="#ECF0EA"/></linearGradient><linearGradient id="R" x1="29.711" y1="137.886" x2="29.711" y2="149.463" gradientUnits="userSpaceOnUse"><stop stop-color="#ECF0EA"/><stop offset="1" stop-color="#ECF0EA"/></linearGradient><linearGradient id="S" x1="33.056" y1="146.064" x2="33.056" y2="157.642" gradientUnits="userSpaceOnUse"><stop stop-color="#ECF0EA"/><stop offset="1" stop-color="#ECF0EA"/></linearGradient><linearGradient id="T" x1="20.098" y1="140.276" x2="20.098" y2="151.853" gradientUnits="userSpaceOnUse"><stop stop-color="#ECF0EA"/><stop offset="1" stop-color="#ECF0EA"/></linearGradient><linearGradient id="U" x1="29.168" y1="155.296" x2="29.168" y2="166.873" gradientUnits="userSpaceOnUse"><stop stop-color="#ECF0EA"/><stop offset="1" stop-color="#ECF0EA"/></linearGradient><linearGradient id="V" x1="19.181" y1="154.43" x2="19.181" y2="166.008" gradientUnits="userSpaceOnUse"><stop stop-color="#ECF0EA"/><stop offset="1" stop-color="#ECF0EA"/></linearGradient><linearGradient id="W" x1="251.55" y1="30.692" x2="251.55" y2="52.338" gradientUnits="userSpaceOnUse"><stop stop-color="#ECF0EA"/><stop offset="1" stop-color="#ECF0EA"/></linearGradient><linearGradient id="X" x1="240.806" y1="33.687" x2="240.806" y2="45.264" gradientUnits="userSpaceOnUse"><stop stop-color="#ECF0EA"/><stop offset="1" stop-color="#ECF0EA"/></linearGradient><linearGradient id="Y" x1="257.129" y1="26.511" x2="257.129" y2="38.088" gradientUnits="userSpaceOnUse"><stop stop-color="#ECF0EA"/><stop offset="1" stop-color="#ECF0EA"/></linearGradient><linearGradient id="Z" x1="260.476" y1="34.689" x2="260.476" y2="46.266" gradientUnits="userSpaceOnUse"><stop stop-color="#ECF0EA"/><stop offset="1" stop-color="#ECF0EA"/></linearGradient><linearGradient id="aa" x1="247.513" y1="28.901" x2="247.513" y2="40.478" gradientUnits="userSpaceOnUse"><stop stop-color="#ECF0EA"/><stop offset="1" stop-color="#ECF0EA"/></linearGradient><linearGradient id="ab" x1="256.588" y1="43.921" x2="256.588" y2="55.498" gradientUnits="userSpaceOnUse"><stop stop-color="#ECF0EA"/><stop offset="1" stop-color="#ECF0EA"/></linearGradient><linearGradient id="ac" x1="246.599" y1="43.055" x2="246.599" y2="54.632" gradientUnits="userSpaceOnUse"><stop stop-color="#ECF0EA"/><stop offset="1" stop-color="#ECF0EA"/></linearGradient><linearGradient id="ad" x1="184.198" y1="-25.557" x2="184.198" y2="8.302" gradientUnits="userSpaceOnUse"><stop stop-color="#ECF0EA"/><stop offset="1" stop-color="#ECF0EA"/></linearGradient><linearGradient id="ae" x1="197.431" y1="-12.946" x2="197.431" y2="5.161" gradientUnits="userSpaceOnUse"><stop stop-color="#ECF0EA"/><stop offset="1" stop-color="#ECF0EA"/></linearGradient><linearGradient id="af" x1="185.576" y1="-2.699" x2="185.576" y2="15.408" gradientUnits="userSpaceOnUse"><stop stop-color="#ECF0EA"/><stop offset="1" stop-color="#ECF0EA"/></linearGradient><linearGradient id="ag" x1="172.167" y1="-10.836" x2="172.167" y2="7.271" gradientUnits="userSpaceOnUse"><stop stop-color="#ECF0EA"/><stop offset="1" stop-color="#ECF0EA"/></linearGradient><linearGradient id="ah" x1="58.005" y1="125.736" x2="58.005" y2="143.258" gradientUnits="userSpaceOnUse"><stop stop-color="#ECF0EA"/><stop offset="1" stop-color="#ECF0EA"/></linearGradient><linearGradient id="ai" x1="64.298" y1="123.585" x2="64.298" y2="132.954" gradientUnits="userSpaceOnUse"><stop stop-color="#ECF0EA"/><stop offset="1" stop-color="#ECF0EA"/></linearGradient><linearGradient id="aj" x1="61.593" y1="137.762" x2="61.593" y2="147.131" gradientUnits="userSpaceOnUse"><stop stop-color="#ECF0EA"/><stop offset="1" stop-color="#ECF0EA"/></linearGradient><linearGradient id="ak" x1="54.601" y1="136.238" x2="54.601" y2="145.607" gradientUnits="userSpaceOnUse"><stop stop-color="#ECF0EA"/><stop offset="1" stop-color="#ECF0EA"/></linearGradient><linearGradient id="al" x1="52.427" y1="124.887" x2="52.427" y2="134.256" gradientUnits="userSpaceOnUse"><stop stop-color="#ECF0EA"/><stop offset="1" stop-color="#ECF0EA"/></linearGradient><linearGradient id="am" x1="160.564" y1="20.588" x2="160.564" y2="38.11" gradientUnits="userSpaceOnUse"><stop stop-color="#ECF0EA"/><stop offset="1" stop-color="#ECF0EA"/></linearGradient><linearGradient id="an" x1="166.856" y1="18.437" x2="166.856" y2="27.806" gradientUnits="userSpaceOnUse"><stop stop-color="#ECF0EA"/><stop offset="1" stop-color="#ECF0EA"/></linearGradient><linearGradient id="ao" x1="164.151" y1="32.614" x2="164.151" y2="41.983" gradientUnits="userSpaceOnUse"><stop stop-color="#ECF0EA"/><stop offset="1" stop-color="#ECF0EA"/></linearGradient><linearGradient id="ap" x1="157.159" y1="31.093" x2="157.159" y2="40.462" gradientUnits="userSpaceOnUse"><stop stop-color="#ECF0EA"/><stop offset="1" stop-color="#ECF0EA"/></linearGradient><linearGradient id="aq" x1="154.985" y1="19.739" x2="154.985" y2="29.108" gradientUnits="userSpaceOnUse"><stop stop-color="#ECF0EA"/><stop offset="1" stop-color="#ECF0EA"/></linearGradient><linearGradient id="ar" x1="31.892" y1="5.712" x2="31.892" y2="24.691" gradientUnits="userSpaceOnUse"><stop stop-color="#ECF0EA"/><stop offset="1" stop-color="#ECF0EA"/></linearGradient><linearGradient id="as" x1="27.635" y1="18.717" x2="27.635" y2="28.869" gradientUnits="userSpaceOnUse"><stop stop-color="#ECF0EA"/><stop offset="1" stop-color="#ECF0EA"/></linearGradient><linearGradient id="at" x1="25.426" y1="3.239" x2="25.426" y2="13.391" gradientUnits="userSpaceOnUse"><stop stop-color="#ECF0EA"/><stop offset="1" stop-color="#ECF0EA"/></linearGradient><linearGradient id="au" x1="33.125" y1="2.341" x2="33.125" y2="12.493" gradientUnits="userSpaceOnUse"><stop stop-color="#ECF0EA"/><stop offset="1" stop-color="#ECF0EA"/></linearGradient><linearGradient id="av" x1="39.34" y1="13.212" x2="39.34" y2="23.364" gradientUnits="userSpaceOnUse"><stop stop-color="#ECF0EA"/><stop offset="1" stop-color="#ECF0EA"/></linearGradient><linearGradient id="aw" x1="76.528" y1="33.458" x2="76.528" y2="48.58" gradientUnits="userSpaceOnUse"><stop stop-color="#ECF0EA"/><stop offset="1" stop-color="#ECF0EA"/></linearGradient><linearGradient id="ax" x1="73.137" y1="43.822" x2="73.137" y2="51.912" gradientUnits="userSpaceOnUse"><stop stop-color="#ECF0EA"/><stop offset="1" stop-color="#ECF0EA"/></linearGradient><linearGradient id="ay" x1="71.377" y1="31.491" x2="71.377" y2="39.581" gradientUnits="userSpaceOnUse"><stop stop-color="#ECF0EA"/><stop offset="1" stop-color="#ECF0EA"/></linearGradient><linearGradient id="az" x1="77.51" y1="30.775" x2="77.51" y2="38.864" gradientUnits="userSpaceOnUse"><stop stop-color="#ECF0EA"/><stop offset="1" stop-color="#ECF0EA"/></linearGradient><linearGradient id="aA" x1="82.465" y1="39.434" x2="82.465" y2="47.523" gradientUnits="userSpaceOnUse"><stop stop-color="#ECF0EA"/><stop offset="1" stop-color="#ECF0EA"/></linearGradient><filter id="b" x="-335.924" y="-195.393" width="775.012" height="734.679" filterUnits="userSpaceOnUse" color-interpolation-filters="sRGB"><feFlood flood-opacity="0" result="BackgroundImageFix"/><feBlend in="SourceGraphic" in2="BackgroundImageFix" result="shape"/><feGaussianBlur stdDeviation="177" result="effect1_foregroundBlur_458_16833"/></filter><filter id="d" x="-538.783" y="-492.373" width="1033.92" height="919.663" filterUnits="userSpaceOnUse" color-interpolation-filters="sRGB"><feFlood flood-opacity="0" result="BackgroundImageFix"/><feBlend in="SourceGraphic" in2="BackgroundImageFix" result="shape"/><feGaussianBlur stdDeviation="222" result="effect1_foregroundBlur_458_16833"/></filter><filter id="f" x="-201.086" y="-458.952" width="1010.12" height="914.092" filterUnits="userSpaceOnUse" color-interpolation-filters="sRGB"><feFlood flood-opacity="0" result="BackgroundImageFix"/><feBlend in="SourceGraphic" in2="BackgroundImageFix" result="shape"/><feGaussianBlur stdDeviation="222" result="effect1_foregroundBlur_458_16833"/></filter><filter id="h" x="-142.893" y="-285.393" width="1010.12" height="931.096" filterUnits="userSpaceOnUse" color-interpolation-filters="sRGB"><feFlood flood-opacity="0" result="BackgroundImageFix"/><feBlend in="SourceGraphic" in2="BackgroundImageFix" result="shape"/><feGaussianBlur stdDeviation="222" result="effect1_foregroundBlur_458_16833"/></filter><clipPath id="j"><path fill="#fff" d="M0 0h328v211.378H0z"/></clipPath></defs></svg>