<svg width="38" height="22" fill="none" xmlns="http://www.w3.org/2000/svg"><mask id="a" style="mask-type:luminance" maskUnits="userSpaceOnUse" x="0" y="0" width="38" height="22"><path d="M37.943 0H.467v22h37.476V0Z" fill="#fff"/></mask><g mask="url(#a)"><path d="M24.786 2.352h-11.15v17.294h11.15V2.352Z" fill="#FF5A00"/><path d="M14.78 11a10.523 10.523 0 0 1 1.163-4.806 11.106 11.106 0 0 1 3.26-3.839 11.924 11.924 0 0 0-5.92-2.288 12.12 12.12 0 0 0-6.297 1.044A11.393 11.393 0 0 0 2.23 5.168a10.59 10.59 0 0 0-1.764 5.834c0 2.064.61 4.086 1.764 5.835a11.393 11.393 0 0 0 4.755 4.057 12.12 12.12 0 0 0 6.297 1.043 11.924 11.924 0 0 0 5.92-2.288 11.104 11.104 0 0 1-3.26-3.84 10.522 10.522 0 0 1-1.163-4.808Z" fill="#EB001B"/><path d="M37.944 11c0 2.064-.612 4.086-1.765 5.836a11.4 11.4 0 0 1-4.756 4.057 12.121 12.121 0 0 1-6.298 1.042 11.921 11.921 0 0 1-5.92-2.289 11.13 11.13 0 0 0 3.26-3.84A10.545 10.545 0 0 0 23.63 11c0-1.665-.398-3.309-1.165-4.807a11.13 11.13 0 0 0-3.26-3.84 11.921 11.921 0 0 1 5.92-2.29 12.12 12.12 0 0 1 6.298 1.044 11.4 11.4 0 0 1 4.756 4.057 10.593 10.593 0 0 1 1.765 5.835V11Z" fill="#F79E1B"/></g></svg>