<svg width="22" height="22" viewBox="0 0 22 22" fill="none" xmlns="http://www.w3.org/2000/svg">
<path d="M8.27671 17.5551C9.01864 18.2958 8.53251 19.5651 7.48628 19.6233C6.80514 19.6616 6.1236 19.5555 5.48637 19.3119C4.84913 19.0683 4.2706 18.6927 3.78873 18.2097C3.30618 17.7279 2.93091 17.1495 2.68752 16.5125C2.44412 15.8754 2.33809 15.1942 2.37639 14.5133C2.43215 13.5119 3.59476 13.0245 4.34518 13.6331L4.44459 13.7229L8.27671 17.5551ZM20.9345 1.0648C22.0983 2.22865 22.3092 3.98654 21.5649 5.36497L21.4558 5.55046L21.4267 5.5941C21.8386 7.07229 21.8945 8.62703 21.5898 10.131C21.2851 11.6349 20.6284 13.0453 19.6737 14.2466L19.4518 14.5169L19.2202 14.7812L16.7071 17.2932L16.6101 17.429C16.0958 18.1774 15.88 19.0912 16.0052 19.9907L16.0476 20.2343L16.1022 20.4586C16.4222 21.6128 15.0681 22.4529 14.1807 21.7328L14.0764 21.6382L0.361524 7.92301C-0.519827 7.04164 0.340914 5.56501 1.5411 5.89719C2.05265 6.03903 2.58906 6.06717 3.11264 5.97963C3.63622 5.89208 4.1343 5.69098 4.57188 5.39043L4.71251 5.28617L7.25958 2.74025C8.43164 1.67333 9.84731 0.909909 11.3827 0.516801C12.9181 0.123694 14.5265 0.112878 16.067 0.485299L16.404 0.571375L16.4489 0.543491C17.0829 0.151778 17.8218 -0.0359408 18.5658 0.00568549C19.3099 0.0473118 20.0232 0.316278 20.6096 0.776261L20.7793 0.918105L20.9345 1.0648Z" fill="#B5BBDB"/>
</svg>
