<svg width="48" height="48" viewBox="0 0 48 48" fill="none" xmlns="http://www.w3.org/2000/svg">
<circle cx="24" cy="24" r="24" fill="#7EA373"/>
<path d="M33.4141 27.2773H14.5859C14.2623 27.2773 14 27.5397 14 27.8633C14 29.2655 15.1368 30.4023 16.5391 30.4023H31.4609C32.8632 30.4023 34 29.2656 34 27.8633C34 27.5397 33.7377 27.2773 33.4141 27.2773Z" fill="white"/>
<path d="M25.5625 16.4566V16.1445C25.5625 15.2816 24.8629 14.582 24 14.582C23.1371 14.582 22.4375 15.2816 22.4375 16.1445V16.4566C22.9501 16.3794 23.472 16.3398 24 16.3398C24.528 16.3398 25.0499 16.3794 25.5625 16.4566Z" fill="white"/>
<path d="M30.4916 20.2004C28.7578 18.4666 26.4526 17.5117 24.0006 17.5117C21.5486 17.5117 19.2434 18.4666 17.5096 20.2004C15.9146 21.7954 14.9795 23.874 14.8398 26.1055H33.1613C33.0216 23.874 32.0866 21.7954 30.4916 20.2004Z" fill="white"/>
</svg>
