<svg width="22" height="22" viewBox="0 0 22 22" fill="none" xmlns="http://www.w3.org/2000/svg">
<path d="M10.989 0C4.917 0 0 4.928 0 11C0 17.072 4.917 22 10.989 22C17.072 22 22 17.072 22 11C22 4.928 17.072 0 10.989 0ZM15.3269 15.4781C14.9357 15.8666 14.3038 15.8651 13.9144 15.4747L10.1921 11.7438C10.005 11.5563 9.9 11.3023 9.9 11.0375V6.5C9.9 5.94771 10.3477 5.5 10.9 5.5H11.1C11.6523 5.5 12.1 5.94772 12.1 6.5V10.1348C12.1 10.4 12.2054 10.6544 12.3929 10.8419L15.4714 13.9204C15.8629 14.3119 15.8618 14.947 15.4689 15.3371L15.3269 15.4781Z" fill="#B5BBDB"/>
</svg>
