<svg width="24" height="24" viewBox="0 0 24 24" fill="none" xmlns="http://www.w3.org/2000/svg">
<path d="M12.0016 13.6924C13.5485 13.6924 14.9782 13.2564 16.1219 12.5158C17.0079 11.9486 18.161 12.0424 18.9391 12.7502C21.1001 14.7096 22.3282 17.4893 22.3235 20.4096V21.6611C22.3235 22.9549 21.2735 24.0002 19.9797 24.0002H4.02349C2.72974 24.0002 1.67974 22.9549 1.67974 21.6611V20.4096C1.67037 17.4939 2.89849 14.7096 5.05943 12.7549C5.83755 12.0471 6.99537 11.9533 7.87662 12.5205C9.02505 13.2564 10.4501 13.6924 12.0016 13.6924Z" fill="#DDE0F0"/>
<path d="M12.0023 11.6063C15.2073 11.6063 17.8055 9.0081 17.8055 5.80313C17.8055 2.59815 15.2073 0 12.0023 0C8.79737 0 6.19922 2.59815 6.19922 5.80313C6.19922 9.0081 8.79737 11.6063 12.0023 11.6063Z" fill="#DDE0F0"/>
</svg>
