<svg width="650" height="499" fill="none" xmlns="http://www.w3.org/2000/svg"><path d="M309.717 285.545c.643-34.715 29.369-62.335 64.156-61.693a63.39 63.39 0 0 1 16.484 2.506c7.545-35.554 39.485-61.92 77.249-61.22 29.21.543 54.327 17.141 67.103 41.198a61.963 61.963 0 0 1 24.829-4.687c34.185.632 61.378 28.804 60.745 62.917a61.493 61.493 0 0 1-4.954 23.101c20.36 10.43 34.115 31.755 33.66 56.118-.633 34.114-28.864 61.25-63.049 60.619a62.027 62.027 0 0 1-16.582-2.576l-.416.405-107.497 41.908-47.622-41.908-.574-.474a63.988 63.988 0 0 1-8.286.395c-33.394-.622-60.221-27.058-61.744-59.888-20.291-10.756-33.947-32.219-33.492-56.711l-.01-.01Z" fill="#BBCBB6" stroke="#1B2E3F" stroke-miterlimit="10" stroke-linecap="round"/><path d="m440.809 436.217-26.985-33.984h155.119l-26.985 33.984s26.985 7.924 26.985 31.686S548.306 498 548.306 498H434.461s-20.637-6.335-20.637-30.097 26.985-31.686 26.985-31.686Z" fill="#505050" stroke="#1B2E3F" stroke-miterlimit="10"/><path d="M488.432 402.233v-81.124m-24.207 81.123-19.045-69.114m71.818 69.115 15.881-63.964m-87.699 63.964-12.835-18.029m104.767 18.029 12.964-14.792" stroke="#1B2E3F" stroke-miterlimit="10" stroke-linecap="round"/><path d="m229.187 159.237 23.811 85.969H72.831l35.717-96.231 120.639 10.262Z" fill="#1B2E3F"/><path d="M444.278 122.312s-9.76 7.618-22.476 4.865c-12.707-2.753-45.22-46.28-34.936-51.185 10.284-4.904 19.035-7.41 19.035-7.41s49.561-.593 53.229 17.07c3.669 17.664-14.852 36.67-14.852 36.67v-.01Z" fill="#E7D8C9" stroke="#1B2E3F" stroke-miterlimit="10" stroke-linecap="round"/><path d="M461.605 106.77c4.202 9.897.929 21.689-14.012 21.837-14.942.148-19.174-7.401-19.866-15.117-.692-7.717 11.886-11.753 11.886-11.753" fill="#E7D8C9"/><path d="M461.605 106.77c4.202 9.897.929 21.689-14.012 21.837-14.942.148-19.174-7.401-19.866-15.117-.692-7.717 11.886-11.753 11.886-11.753" stroke="#1B2E3F" stroke-miterlimit="10" stroke-linecap="round"/><path d="M464.847 83.265c4.173 6.877 8.583 16.41-7.624 26.653-16.207 10.242-24.632 1.223-28.686-8.319-4.054-9.542 4.766-11.792 4.766-11.792" fill="#E7D8C9"/><path d="M464.847 83.265c4.173 6.877 8.583 16.41-7.624 26.653-16.207 10.242-24.632 1.223-28.686-8.319-4.054-9.542 4.766-11.792 4.766-11.792" stroke="#1B2E3F" stroke-miterlimit="10" stroke-linecap="round"/><path d="M398.515 70.654s34.402 3.138 56.819-10.085c22.417-13.213 29.181-17.664 36.271-8.437 7.09 9.226-15.841 29.179-37.349 35.07" fill="#E7D8C9"/><path d="M398.515 70.654s34.402 3.138 56.819-10.085c22.417-13.213 29.181-17.664 36.271-8.437 7.09 9.226-15.841 29.179-37.349 35.07" stroke="#1B2E3F" stroke-miterlimit="10" stroke-linecap="round"/><path d="M392.791 73.259c13.102-4.678 21.468-25.37 40.354-7.224 18.887 18.147-1.008 41.278-16.81 16.312" fill="#E7D8C9"/><path d="M392.791 73.259c13.102-4.678 21.468-25.37 40.354-7.224 18.887 18.147-1.008 41.278-16.81 16.312" stroke="#1B2E3F" stroke-miterlimit="10" stroke-linecap="round"/><path d="M156.715 77.522c-21.452 0-38.842-17.354-38.842-38.761C117.873 17.354 135.263 0 156.715 0c21.452 0 38.842 17.354 38.842 38.76 0 21.408-17.39 38.762-38.842 38.762Z" fill="#1B2E3F"/><path d="M177.201 73.811a4.218 4.218 0 0 1-4.222-4.213 4.218 4.218 0 0 1 4.222-4.214 4.218 4.218 0 0 1 4.223 4.214 4.219 4.219 0 0 1-4.223 4.213Z" fill="#6D6460" stroke="#1B2E3F" stroke-miterlimit="10" stroke-linecap="round"/><path d="M186.626 96.606c-7.96 0-14.408-6.414-14.408-14.338 0-7.924 6.448-14.338 14.408-14.338 7.96 0 14.407 6.414 14.407 14.338 0 7.924-6.457 14.338-14.407 14.338Z" fill="#E7D8C9" stroke="#1B2E3F" stroke-miterlimit="10" stroke-linecap="round"/><path d="M188.367 96.498v12.354h-20.044l3.886-26.584 16.158 14.23Z" fill="#E7D8C9"/><path d="m172.209 82.268-3.886 26.584h20.044V96.497" stroke="#1B2E3F" stroke-miterlimit="10" stroke-linecap="round"/><path d="m77.953 270.684 60.122-35.731.079.128c-8.119-13.894-16.098-38.849-10.64-47.928 3.313-5.506 18.264-11.516 49.501-10.331 147.18 5.555 243.097-43.093 247.112-45.175l-32.197-62 .109-.05c-.831.425-84.724 42.265-212.374 37.449-55.711-2.102-93.514 12.858-112.332 44.494-29.349 49.32 6.447 112.148 10.62 119.144Z" fill="#6D6460" stroke="#1B2E3F" stroke-miterlimit="10" stroke-linecap="round"/><path d="M186.627 67.94c2.759 0 5.33.78 7.516 2.121-2.888 6.74-8.139 12.118-15.753 14.19a38.06 38.06 0 0 1-5.893.869 14.126 14.126 0 0 1-.287-2.842c0-7.914 6.447-14.338 14.407-14.338h.01Z" fill="#1B2E3F"/><path d="M1.001 245.206h394.854v31.685H1.001v-31.685Zm19.183 31.685h356.498V498H20.184V276.891Z" fill="#505050" stroke="#1B2E3F" stroke-miterlimit="10"/><path d="M1.001 498h636.903" stroke="#1B2E3F" stroke-miterlimit="10" stroke-linecap="round"/><path d="m201.608 200.13 93.238 20.959c5.587 1.253 9.552 6.207 9.552 11.91 0 6.74-5.478 12.217-12.241 12.217h-90.549V200.13Z" fill="#E7D8C9" stroke="#1B2E3F" stroke-miterlimit="10" stroke-linecap="round"/><path d="m255.173 215.957 22.792 5.122c5.587 1.253 9.553 6.207 9.553 11.91 0 6.74-5.479 12.217-12.242 12.217" fill="#E7D8C9"/><path d="m255.173 215.957 22.792 5.122c5.587 1.253 9.553 6.207 9.553 11.91 0 6.74-5.479 12.217-12.242 12.217" stroke="#1B2E3F" stroke-miterlimit="10" stroke-linecap="round"/><path d="M65.88 245.206h141.483v-60.589h-98.024" fill="#6D6460"/><path d="M65.88 245.206h141.483v-60.589h-98.024" stroke="#1B2E3F" stroke-miterlimit="10" stroke-linecap="round"/></svg>