<svg width="60" height="25" fill="none" xmlns="http://www.w3.org/2000/svg"><g clip-path="url(#a)" fill="#F28500"><path d="M24.263 24.133c-.114-.305-.321-.513-.471-.784-.364-.465-.792-.867-1.22-1.27-.15-.048-.214-.187-.357-.242-.093-.118-.243-.18-.364-.27a7.244 7.244 0 0 0-.778-.486c-.514-.32-1.149-.52-1.777-.729a21.59 21.59 0 0 0-2.134-.374c-.735-.104-1.47-.201-2.026-.486-.321-.09-.557-.263-.835-.402-.257-.166-.535-.305-.75-.513-.264-.153-.428-.41-.635-.618-.07-.138-.192-.222-.25-.374-.07-.028-.092-.111-.135-.16-.05-.055-.05-.166-.136-.187a3.933 3.933 0 0 0 0 .916c.036.124.05.277.086.402.022.11.129.291.086.374-2.227-.11-3.854-.797-5.267-1.699-.699-.45-1.298-.999-1.855-1.589-.243-.325-.507-.638-.72-.998-.222-.354-.407-.757-.607-1.131-.329-.812-.635-1.644-.75-2.664-.15-.95-.114-2.164.107-3.045.079-.486.243-.895.386-1.318.093-.194.192-.388.278-.59.121-.166.186-.395.336-.54.406-.743 1.013-1.298 1.634-1.832a6.97 6.97 0 0 1 2.355-1.103c.884-.194 2.09-.229 3.047-.028 1.94.389 3.404 1.235 4.631 2.317 1.242 1.062 2.198 2.407 2.854 4.044.678 1.554.914 3.975.307 5.737-.25-.139-.5-.27-.749-.402-.3-.084-.592-.18-.942-.215-.421-.007-.835 0-1.106.131.55-.055.992.09 1.334.215.2.077.314.125.471.215.307.174.578.333.807.57.65.554 1.113 1.29 1.334 2.26 0 .028.036.021.029-.027.028-.007.042-.028.057-.056.035-.041.078-.083.114-.131.071-.084.143-.167.193-.27.15-.174.27-.368.385-.57.264-.374.464-.804.692-1.214.393-.874.714-1.817.914-2.885.4-2.373-.079-4.62-.914-6.278-.856-1.672-2.055-3.01-3.604-4.016-1.562-1-3.39-1.735-5.901-1.804-.014-.049-.036.007-.086 0-1.327-.042-2.397.139-3.46.402-.493.16-1.007.299-1.442.514-.5.16-.9.423-1.356.617-.164.153-.414.229-.585.375-.221.104-.386.27-.607.374-.357.305-.735.576-1.084.888-.343.305-.643.652-.97.971-.05.111-.136.188-.222.27a.91.91 0 0 1-.221.271c-.036.125-.15.174-.193.299-.093.069-.114.208-.221.27-.093.222-.257.382-.364.59-.129.2-.229.423-.357.617-.2.451-.414.888-.578 1.374a9.414 9.414 0 0 0-.414 1.512c-.107.506-.207 1.165-.193 1.7-.07.194-.014.554 0 .783 0 .042-.028.056-.028.083 0 .257.071.57.086.729.057.59.164 1.137.335 1.616.107.534.335.95.5 1.429.25.402.42.88.72 1.242.221.423.535.756.835 1.103.321.333.642.672 1.028.943.706.597 1.534 1.075 2.44 1.485 1.691.797 4.218 1.317 6.487 1.186.578-.077 1.163-.146 1.691-.27.485-.174 1.05-.278 1.634-.348 1.335-.083 2.49.035 3.518.326 1.042.27 1.941.68 2.72 1.214.413.236.756.541 1.105.833.357.298.643.666.97.998.044.125.13.216.194.326.085.09.042.299.25.271.128-.125-.022-.305-.03-.458-.128-.131-.156-.305-.256-.416Z"/><path d="M19.082 16.752c-.028 0-.035.02-.057.028-.05.104-.028.27 0 .374.15.299.2.687.528.812.157-.049.143-.27.136-.486-.072-.263-.171-.499-.335-.672-.115-.042-.193-.111-.272-.056Zm-1.94.756c0-.014-.022-.027-.03 0-.27-.034-.363.111-.499.215-.235.604.143 1.193.807 1.186a.575.575 0 0 0 .47-.513c-.035-.506-.256-.832-.749-.888Zm15.998-1.921c.107.437.335.749.592 1.04.257.292.556.534.92.715a4.5 4.5 0 0 0 1.142.5c.207.069.407.152.664.18.178.097.392.145.407.395-.008.298-.215.41-.479.465-.264-.056-.592-.049-.813-.146-.557-.062-1.006-.236-1.477-.395a6.665 6.665 0 0 1-2.284-1.436c-.128-.208-.307-.375-.442-.576-.136-.201-.229-.444-.371-.645-1.1-.139-1.848-.624-2.505-1.186-.607-.673-1.092-1.478-1.292-2.546-.235-1.027-.164-2.31.114-3.302.607-1.921 1.877-3.198 4.275-3.371.664.02 1.242.097 1.77.291.535.187 1.042.534 1.441.895.036.028.05.035.072.07.085.117.292.284.406.43.022.027.015.076.036.11.043.063.107.09.15.146.021.035.014.076.036.104.028.042.064.104.107.18.014.028.064.05.071.07.064.118.093.263.15.395.057.139.135.257.185.396.143.409.236.895.293 1.394.143 1.443-.15 2.733-.7 3.69a3.97 3.97 0 0 1-1.034 1.256c-.386.395-.913.631-1.434.88Zm-1.77-9.032c-.321.021-.514.167-.778.25-.171.152-.385.27-.514.465-.214.118-.271.381-.442.534a6.534 6.534 0 0 0-.371 1.186 8.36 8.36 0 0 0-.15 1.436c-.007 1.235.264 2.462.77 3.19.3.354.664.646 1.107.86.256.022.456.105.735.112.157-.056.414 0 .513-.111.229.014.279-.132.478-.146.108-.104.222-.187.372-.25.135-.145.264-.29.406-.43.072-.104.114-.25.222-.326.642-1.193.713-3.378.292-4.765a4.188 4.188 0 0 0-.628-1.256c-.271-.27-.592-.5-.956-.68-.293-.062-.57-.138-.956-.104-.022 0-.043.007-.036.035h-.064Zm7.785-1.006c.578.021 1.256-.048 1.77.035.114.173.071.382.071.576.043 2.629 0 5.452 0 8.137 0 .215.008.437 0 .645-.007.18.043.374-.071.54-.257.063-.628.035-.956.035-.35 0-.692.049-.92-.069a248.727 248.727 0 0 1 0-9.788c.014-.055.05-.09.106-.11Zm4.425 0h1.734c.157.208.207.52.257.826a230.23 230.23 0 0 1 1.512 5.84c.115.014.079-.117.115-.18.05-.048.021-.166.07-.215.022-.16.122-.243.115-.43.129-.243.171-.576.293-.825.15-.583.35-1.124.52-1.686.165-.583.386-1.11.514-1.72.243-.493.3-1.166.593-1.61h.735c.264.486.364 1.131.592 1.651.15.583.357 1.11.514 1.686.364 1.117.742 2.22 1.07 3.371.15-.215.15-.576.257-.825.064-.285.121-.576.221-.826.286-1.137.557-2.282.885-3.371.122-.569.243-1.152.443-1.651a6.132 6.132 0 0 1 1.512 0c.036.423-.164.881-.292 1.256-.071.457-.243.811-.336 1.255-.264.812-.463 1.672-.735 2.476-.206.86-.485 1.652-.699 2.512-.142.395-.242.832-.37 1.255-.144.389-.194.867-.408 1.186h-1.034c-.264-.45-.357-1.061-.593-1.54-.514-1.581-1.084-3.1-1.584-4.696-.171.174-.171.527-.293.75-.078.27-.156.54-.256.79-.143.548-.357 1.013-.479 1.575-.206.492-.356 1.04-.513 1.581-.214.472-.293 1.076-.557 1.506-.271.083-.7.014-1.035.034-.256-.284-.285-.797-.442-1.186-.121-.402-.207-.846-.364-1.22-.2-.875-.5-1.645-.7-2.512-.263-.804-.492-1.644-.734-2.476-.136-.396-.236-.819-.371-1.221-.065-.43-.364-.819-.257-1.29.014-.035.057-.056.1-.07Zm14.564 0c.578.021 1.25-.048 1.77.035.128.375.071.777.071 1.18v7.526c0 .409.05.804-.071 1.186-.4.041-.985.062-1.477.034-.143-.006-.314.035-.407-.069-.128-.375-.071-.77-.071-1.186v-7.45c0-.451-.043-.888.071-1.186a.241.241 0 0 1 .114-.07Z"/></g><defs><clipPath id="a"><path fill="#fff" d="M0 0h60v25H0z"/></clipPath></defs></svg>