<svg width="22" height="22" viewBox="0 0 22 22" fill="none" xmlns="http://www.w3.org/2000/svg">
<path d="M9.9 11.22L8.91 10.23C8.70833 10.0283 8.45167 9.9275 8.14 9.9275C7.82833 9.9275 7.57167 10.0283 7.37 10.23C7.16833 10.4317 7.0675 10.6883 7.0675 11C7.0675 11.3117 7.16833 11.5683 7.37 11.77L10.23 14.63C10.45 14.85 10.7067 14.96 11 14.96C11.2933 14.96 11.55 14.85 11.77 14.63L14.63 11.77C14.8317 11.5683 14.9325 11.3117 14.9325 11C14.9325 10.6883 14.8317 10.4317 14.63 10.23C14.4283 10.0283 14.1717 9.9275 13.86 9.9275C13.5483 9.9275 13.2917 10.0283 13.09 10.23L12.1 11.22V7.7C12.1 7.38833 11.9944 7.1269 11.7832 6.9157C11.572 6.7045 11.3109 6.59927 11 6.6C10.6883 6.6 10.4269 6.7056 10.2157 6.9168C10.0045 7.128 9.89927 7.38907 9.9 7.7V11.22ZM11 22C9.47833 22 8.04833 21.7111 6.71 21.1332C5.37167 20.5553 4.2075 19.7718 3.2175 18.7825C2.2275 17.7925 1.44393 16.6283 0.8668 15.29C0.289667 13.9517 0.000733333 12.5217 0 11C0 9.47833 0.288933 8.04833 0.8668 6.71C1.44467 5.37167 2.22823 4.2075 3.2175 3.2175C4.2075 2.2275 5.37167 1.44393 6.71 0.8668C8.04833 0.289667 9.47833 0.000733333 11 0C12.5217 0 13.9517 0.288933 15.29 0.8668C16.6283 1.44467 17.7925 2.22823 18.7825 3.2175C19.7725 4.2075 20.5564 5.37167 21.1343 6.71C21.7122 8.04833 22.0007 9.47833 22 11C22 12.5217 21.7111 13.9517 21.1332 15.29C20.5553 16.6283 19.7718 17.7925 18.7825 18.7825C17.7925 19.7725 16.6283 20.5564 15.29 21.1343C13.9517 21.7122 12.5217 22.0007 11 22Z" fill="url(#paint0_linear_157_4477)"/>
<defs>
<linearGradient id="paint0_linear_157_4477" x1="11" y1="0" x2="11" y2="22" gradientUnits="userSpaceOnUse">
<stop stop-color="#DF536C"/>
<stop offset="1" stop-color="#EC779A"/>
</linearGradient>
</defs>
</svg>
