<svg width="16" height="16" viewBox="0 0 16 16" fill="none" xmlns="http://www.w3.org/2000/svg">
<path d="M13.918 15.1037L9.2513 10.4304C8.83464 10.7642 8.35547 11.0284 7.8138 11.2232C7.27214 11.4179 6.69575 11.5152 6.08464 11.5152C4.57075 11.5152 3.28964 10.9901 2.2413 9.93968C1.19297 8.8893 0.668524 7.60636 0.667969 6.09088C0.667969 4.57483 1.19241 3.2919 2.2413 2.24208C3.29019 1.19225 4.5713 0.66706 6.08464 0.666504C7.59852 0.666504 8.87964 1.19169 9.92797 2.24208C10.9763 3.29246 11.5007 4.57539 11.5013 6.09088C11.5013 6.70286 11.4041 7.28006 11.2096 7.8225C11.0152 8.36494 10.7513 8.84479 10.418 9.26205L15.1055 13.9562C15.2582 14.1092 15.3346 14.297 15.3346 14.5195C15.3346 14.7421 15.2513 14.9368 15.0846 15.1037C14.9319 15.2567 14.7374 15.3332 14.5013 15.3332C14.2652 15.3332 14.0707 15.2567 13.918 15.1037ZM6.08464 9.84621C7.1263 9.84621 8.01186 9.48097 8.7413 8.75049C9.47075 8.02001 9.83519 7.13347 9.83463 6.09088C9.83463 5.04773 9.46991 4.16091 8.74047 3.43043C8.01102 2.69995 7.12575 2.33499 6.08464 2.33554C5.04297 2.33554 4.15741 2.70078 3.42797 3.43126C2.69852 4.16175 2.33408 5.04828 2.33464 6.09088C2.33464 7.13402 2.69936 8.02084 3.4288 8.75132C4.15825 9.4818 5.04352 9.84677 6.08464 9.84621Z" fill="#B5BBDB"/>
</svg>
