<svg width="584" height="477" viewBox="0 0 584 477" fill="none" xmlns="http://www.w3.org/2000/svg">
<g clip-path="url(#clip0_29_20)">
<path d="M481.556 334.733C486.664 334.393 487.44 328.707 487.44 328.707L475.663 291.009C475.663 291.009 462.958 335.964 481.548 334.733H481.556Z" fill="#E7D8C9" stroke="#1B2E3F" stroke-miterlimit="10" stroke-linecap="round"/>
<path d="M521.745 275.199C521.745 275.199 532.905 308.16 536.62 318.868C540.334 329.576 534.244 339.06 524.478 335.656C524.478 335.656 519.052 346.159 508.827 340.758C508.827 340.758 498.134 354.356 484.962 331.179C471.791 308.002 470.238 288.537 470.238 288.537L521.737 275.199H521.745Z" fill="#E7D8C9" stroke="#1B2E3F" stroke-miterlimit="10" stroke-linecap="round"/>
<path d="M45.1854 457.605H328.113C338.56 445.981 344.928 430.638 344.928 413.802C344.928 387.569 329.499 364.945 307.195 354.427C308.367 348.441 308.992 342.258 308.992 335.933C308.992 283.049 265.992 240.177 212.949 240.177C189.005 240.177 167.113 248.911 150.298 263.362C138.029 253.136 122.236 246.977 104.993 246.977C65.9687 246.977 34.3264 278.516 34.3264 317.431C34.3264 326.694 36.1244 335.53 39.3797 343.632C21.0913 355.295 8.94922 375.708 8.94922 398.964C8.94922 424.605 23.6971 446.786 45.1854 457.605Z" fill="#BBCBB6" stroke="#1B2E3F" stroke-miterlimit="10" stroke-linecap="round"/>
<path d="M254.24 102.744C251.895 92.4779 253.757 85.3708 229.266 85.3708H157.056C147.448 85.3708 145.587 90.3142 144.969 95.5655C144.351 100.817 147.448 105.452 168.215 105.452C188.983 105.452 195.755 105.349 203.525 114.983C211.295 124.617 254.24 102.744 254.24 102.744Z" fill="#E7D8C9" stroke="#1B2E3F" stroke-miterlimit="10" stroke-linecap="round"/>
<path d="M370.496 377.99L379.177 457.605H232.886L229.789 441.646L309.287 403.331L305.826 377.99H370.496Z" fill="#1B2E3F"/>
<path d="M469.471 377.99L478.144 457.605H331.861L328.764 441.646L408.254 403.331L404.8 377.99H469.471Z" fill="#1B2E3F"/>
<path d="M391.983 59.6277C399.056 59.6277 404.791 53.9109 404.791 46.8588C404.791 39.8067 399.056 34.0898 391.983 34.0898C384.91 34.0898 379.176 39.8067 379.176 46.8588C379.176 53.9109 384.91 59.6277 391.983 59.6277Z" fill="#E7D8C9" stroke="#1B2E3F" stroke-miterlimit="10" stroke-linecap="round"/>
<path d="M390.439 59.5328V70.5408H408.253L404.799 46.8586" fill="#E7D8C9"/>
<path d="M390.439 59.5328V70.5408H408.253L404.799 46.8586" stroke="#1B2E3F" stroke-miterlimit="10" stroke-linecap="round"/>
<path d="M388.436 66.8689C379.241 67.1769 371.985 67.7375 366.275 68.5904C360.128 69.5064 341.42 72.286 333.389 89.9114C332.732 91.3644 332.201 92.7306 331.583 94.3178C322.791 117.1 311.861 126.394 293.85 126.394C283.054 126.394 275.102 122.872 268.813 115.315C263.055 108.39 260.901 100.746 260.877 100.667C260.956 100.951 260.988 101.109 260.988 101.109L199.406 115.971C200.167 119.113 204.626 135.633 217.465 152.414C235.793 176.372 262.921 189.56 293.85 189.56C322.902 189.56 348.216 178.449 367.043 157.42C375.439 148.047 381.189 138.2 385.078 130.2C388.793 130.019 393.086 129.908 397.569 129.837V66.6399C394.472 66.6873 391.406 66.7504 388.444 66.8531L388.436 66.8689Z" fill="#E6BEAE" stroke="#1B2E3F" stroke-miterlimit="10" stroke-linecap="round"/>
<path d="M349.832 129.932L296.527 384.79H484.963L449.012 129.932H349.832Z" fill="#B2967D"/>
<path d="M509.873 185.927C502.887 157.618 496.606 134.907 491.204 118.426C487.64 107.553 484.416 99.2058 481.335 92.8963C478.959 88.0399 476.527 84.0994 473.89 80.846C464.108 68.7878 452.291 66.9873 446.121 66.9873C443.325 66.9873 439.072 66.9241 434.145 66.8452C423.777 66.6793 410.336 66.4661 397.568 66.6557V129.853C408.364 129.695 420.3 129.821 428.197 129.932C432.45 141.706 439.919 165.759 451.435 213.692C461.471 255.473 469.526 294.372 469.605 294.759L531.662 282.014C531.258 280.056 521.603 233.426 509.873 185.935V185.927Z" fill="#E6BEAE" stroke="#1B2E3F" stroke-miterlimit="10" stroke-linecap="round"/>
<path d="M382.574 384.071L392.807 186.204" stroke="#E6BEAE" stroke-miterlimit="10" stroke-linecap="round"/>
<path d="M428.196 129.932H349.831L339.605 178.836" stroke="#1B2E3F" stroke-miterlimit="10" stroke-linecap="round"/>
<path d="M375.003 419.361L328.764 441.646L331.205 456.647" stroke="#E6BEAE" stroke-miterlimit="10" stroke-linecap="round"/>
<path d="M0.396484 457.605H578.567" stroke="#1B2E3F" stroke-miterlimit="10" stroke-linecap="round"/>
<path d="M199.517 10.8971C202.426 10.8971 204.784 8.54604 204.784 5.64583C204.784 2.74562 202.426 0.394531 199.517 0.394531C196.608 0.394531 194.25 2.74562 194.25 5.64583C194.25 8.54604 196.608 10.8971 199.517 10.8971Z" fill="#E6BEAE" stroke="#1B2E3F" stroke-miterlimit="10" stroke-linecap="round"/>
<path d="M288.781 77.332H110.262V85.363H288.781V77.332Z" fill="#E6BEAE" stroke="#1B2E3F" stroke-miterlimit="10" stroke-linecap="round"/>
<path d="M266.151 77.332C266.151 40.644 236.314 10.8972 199.516 10.8972C162.717 10.8972 132.881 40.644 132.881 77.332H266.151Z" fill="#E6BEAE" stroke="#1B2E3F" stroke-miterlimit="10" stroke-linecap="round"/>
<path d="M176.935 457.605L172.555 373.047" stroke="#1B2E3F" stroke-miterlimit="10" stroke-linecap="round"/>
<path d="M153.957 457.605L132.881 391.589" stroke="#1B2E3F" stroke-miterlimit="10" stroke-linecap="round"/>
<path d="M209.742 457.605L227.104 391.589" stroke="#1B2E3F" stroke-miterlimit="10" stroke-linecap="round"/>
<path d="M132.883 457.605L110.262 429.904" stroke="#1B2E3F" stroke-miterlimit="10" stroke-linecap="round"/>
<path d="M486.776 457.605C497.471 457.605 506.141 448.961 506.141 438.297C506.141 427.634 497.471 418.99 486.776 418.99C476.08 418.99 467.41 427.634 467.41 438.297C467.41 448.961 476.08 457.605 486.776 457.605Z" fill="white" stroke="#1B2E3F" stroke-miterlimit="10" stroke-linecap="round"/>
<path d="M525.508 457.605C536.203 457.605 544.874 448.961 544.874 438.297C544.874 427.634 536.203 418.99 525.508 418.99C514.813 418.99 506.143 427.634 506.143 438.297C506.143 448.961 514.813 457.605 525.508 457.605Z" fill="white" stroke="#1B2E3F" stroke-miterlimit="10" stroke-linecap="round"/>
<path d="M564.239 457.605C574.934 457.605 583.604 448.961 583.604 438.298C583.604 427.634 574.934 418.99 564.239 418.99C553.543 418.99 544.873 427.634 544.873 438.298C544.873 448.961 553.543 457.605 564.239 457.605Z" fill="white" stroke="#1B2E3F" stroke-miterlimit="10" stroke-linecap="round"/>
<path d="M506.141 423.405C516.836 423.405 525.506 414.76 525.506 404.097C525.506 393.434 516.836 384.79 506.141 384.79C495.446 384.79 486.775 393.434 486.775 404.097C486.775 414.76 495.446 423.405 506.141 423.405Z" fill="white" stroke="#1B2E3F" stroke-miterlimit="10" stroke-linecap="round"/>
<path d="M544.873 423.405C555.569 423.405 564.239 414.76 564.239 404.097C564.239 393.434 555.569 384.79 544.873 384.79C534.178 384.79 525.508 393.434 525.508 404.097C525.508 414.76 534.178 423.405 544.873 423.405Z" fill="white" stroke="#1B2E3F" stroke-miterlimit="10" stroke-linecap="round"/>
<path d="M380.92 40.4229L383.898 14.7666L422.819 25.9799L406.329 57.3534C406.329 57.3534 404.57 36.1113 380.92 40.4229Z" fill="#1B2E3F"/>
<path d="M524.478 335.664C524.478 335.664 518.435 324.846 515.338 313.932" stroke="#1B2E3F" stroke-miterlimit="10" stroke-linecap="round"/>
<path d="M508.826 340.758C508.826 340.758 499.773 328.968 497.531 318.663" stroke="#1B2E3F" stroke-miterlimit="10" stroke-linecap="round"/>
</g>
<defs>
<clipPath id="clip0_29_20">
<rect width="584" height="477" fill="white" transform="translate(0 -0.000244141)"/>
</clipPath>
</defs>
</svg>
