<svg width="584" height="541" viewBox="0 0 584 541" fill="none" xmlns="http://www.w3.org/2000/svg">
<g clip-path="url(#clip0_709_8675)">
<path d="M318.103 540.629H543.532C551.856 531.393 556.929 519.212 556.929 505.836C556.929 484.998 544.633 467.03 526.861 458.677C527.799 453.922 528.297 449.011 528.297 443.989C528.297 401.985 494.033 367.934 451.773 367.934C432.692 367.934 415.255 374.871 401.858 386.347C392.083 378.224 379.496 373.335 365.757 373.335C334.662 373.335 309.451 398.387 309.451 429.293C309.451 436.652 310.887 443.67 313.476 450.101C298.903 459.367 289.232 475.576 289.232 494.048C289.232 514.412 300.986 532.031 318.103 540.629Z" fill="#BBCBB6" stroke="#1B2E3F" stroke-miterlimit="10" stroke-linecap="round"/>
<path d="M423.073 540.629L419.584 473.469" stroke="#1B2E3F" stroke-miterlimit="10" stroke-linecap="round"/>
<path d="M404.766 540.629L387.977 488.195" stroke="#1B2E3F" stroke-miterlimit="10" stroke-linecap="round"/>
<path d="M440.213 540.629L454.049 488.195" stroke="#1B2E3F" stroke-miterlimit="10" stroke-linecap="round"/>
<path d="M387.976 540.629L369.951 518.626" stroke="#1B2E3F" stroke-miterlimit="10" stroke-linecap="round"/>
<path d="M454.049 540.629L472.073 518.626" stroke="#1B2E3F" stroke-miterlimit="10" stroke-linecap="round"/>
<path d="M56.149 540.629H374.855C386.623 527.573 393.794 510.347 393.794 491.445C393.794 461.986 376.417 436.585 351.288 424.767C352.612 418.046 353.312 411.102 353.312 404.003C353.312 344.618 304.877 296.479 245.12 296.479C218.146 296.479 193.486 306.287 174.547 322.511C160.725 311.027 142.939 304.113 123.516 304.113C79.5593 304.113 43.912 339.529 43.912 383.231C43.912 393.632 45.9354 403.558 49.6028 412.653C29.0044 425.746 15.3242 448.67 15.3242 474.783C15.3242 503.574 31.9353 528.485 56.1416 540.629H56.149Z" fill="#BBCBB6" stroke="#1B2E3F" stroke-miterlimit="10" stroke-linecap="round"/>
<path d="M204.555 540.629L199.623 445.68" stroke="#1B2E3F" stroke-miterlimit="10" stroke-linecap="round"/>
<path d="M178.675 540.629L154.938 466.496" stroke="#1B2E3F" stroke-miterlimit="10" stroke-linecap="round"/>
<path d="M228.791 540.629L248.348 466.496" stroke="#1B2E3F" stroke-miterlimit="10" stroke-linecap="round"/>
<path d="M154.929 540.629L129.451 509.523" stroke="#1B2E3F" stroke-miterlimit="10" stroke-linecap="round"/>
<path d="M248.348 540.629L273.826 509.523" stroke="#1B2E3F" stroke-miterlimit="10" stroke-linecap="round"/>
<path d="M0.371094 540.629H583.627" stroke="#1B2E3F" stroke-miterlimit="10" stroke-linecap="round"/>
<path d="M268.196 380.59H136.445C136.445 380.59 146.175 171.73 378.128 171.73V230.195C378.128 230.195 253.318 239.253 268.189 380.59H268.196Z" fill="#E6BEAE" stroke="#1B2E3F" stroke-miterlimit="10" stroke-linecap="round"/>
<path d="M460.128 170.833C460.128 170.833 412.861 252.896 412.861 481.889H281.594C281.594 481.889 281.594 286.361 385.568 133.184L460.128 170.833Z" fill="#E6BEAE" stroke="#1B2E3F" stroke-miterlimit="10" stroke-linecap="round"/>
<path d="M439.485 107.524C446.18 111.574 454.883 109.46 458.93 102.813C462.977 96.1658 460.835 87.4862 454.14 83.4431C447.444 79.4001 438.741 81.5069 434.694 88.1539C430.647 94.8008 432.79 103.48 439.485 107.524Z" fill="#E7D8C9" stroke="#1B2E3F" stroke-miterlimit="10" stroke-linecap="round"/>
<path d="M438.077 106.552L431.762 116.93L448.611 127.123L458.929 102.813" fill="#E7D8C9"/>
<path d="M438.077 106.552L431.762 116.93L448.611 127.123L458.929 102.813" stroke="#1B2E3F" stroke-miterlimit="10" stroke-linecap="round"/>
<path d="M440.035 83.0795L452.644 43.5242L486.119 76.3287L454.355 113.592C454.355 113.592 464.881 92.5529 440.035 83.0795Z" fill="#1B2E3F"/>
<path d="M400.244 302.756C383.73 302.756 367.201 298.861 351.527 291.19C327.507 279.432 306.261 259.313 288.393 231.397L345.449 195.069C364.627 225.025 386.892 238.994 408.145 234.394C423.952 230.974 434.962 217.962 436.472 207.361C437.766 198.259 431.823 190.091 418.797 183.073L418.083 182.673C395.774 170.039 340.324 147.116 311.617 157.079C306.209 158.956 300.079 162.361 295.616 173.355L232.861 148.043C243.722 121.262 263.316 102.323 289.509 93.2726C318.788 83.1612 355.514 85.6093 398.66 100.543C426.452 110.164 447.973 121.989 451.283 123.852C489.333 144.49 508.845 179.23 503.489 216.85C497.784 256.946 464.48 291.294 422.487 300.374C415.13 301.969 407.683 302.756 400.237 302.756H400.244Z" fill="#1B2E3F"/>
<path d="M290.727 0.37085H242.872C167.605 0.37085 106.584 61.2246 106.584 136.285C106.584 211.345 167.605 272.199 242.872 272.199H290.727V0.37085Z" fill="#B2967D" stroke="#1B2E3F" stroke-miterlimit="10"/>
<path d="M192.139 10.104H290.727" stroke="#1B2E3F" stroke-miterlimit="10"/>
<path d="M164.348 25.4751H262.928" stroke="#1B2E3F" stroke-miterlimit="10"/>
<path d="M133.551 55.5718H232.131" stroke="#1B2E3F" stroke-miterlimit="10"/>
<path d="M192.139 262.466H290.727" stroke="#1B2E3F" stroke-miterlimit="10"/>
<path d="M164.348 247.095H262.928" stroke="#1B2E3F" stroke-miterlimit="10"/>
<path d="M133.551 217.005H232.131" stroke="#1B2E3F" stroke-miterlimit="10"/>
<path d="M290.728 272.199C365.998 272.199 427.016 211.348 427.016 136.285C427.016 61.2216 365.998 0.37085 290.728 0.37085C215.458 0.37085 154.439 61.2216 154.439 136.285C154.439 211.348 215.458 272.199 290.728 272.199Z" fill="#B2967D" stroke="#1B2E3F" stroke-miterlimit="10"/>
<path d="M386.428 136.285C386.428 188.993 343.58 231.724 290.727 231.724" stroke="#1B2E3F" stroke-miterlimit="10"/>
<path d="M195.018 136.285C195.018 83.5766 237.866 40.8462 290.719 40.8462" stroke="#1B2E3F" stroke-miterlimit="10"/>
<path d="M319.064 153.132C313.916 155.15 314.98 161.241 314.98 161.241L339.461 196.085C339.461 196.085 337.81 145.788 319.071 153.132H319.064Z" fill="#E7D8C9" stroke="#1B2E3F" stroke-miterlimit="10" stroke-linecap="round"/>
<path d="M297.192 227.376C297.192 227.376 274.898 197.198 267.563 187.42C260.228 177.643 263.39 165.922 274.563 166.218C274.563 166.218 276.705 153.666 289.002 155.862C289.002 155.862 295.555 138.407 316.712 157.887C337.868 177.368 345.85 196.842 345.85 196.842L297.199 227.369H297.192V227.376Z" fill="#E7D8C9" stroke="#1B2E3F" stroke-miterlimit="10" stroke-linecap="round"/>
<path d="M274.562 166.211C274.562 166.211 284.33 175.336 291.092 185.529" stroke="#1B2E3F" stroke-miterlimit="10" stroke-linecap="round"/>
<path d="M289.01 155.87C289.01 155.87 302.192 165.009 307.882 174.854" stroke="#1B2E3F" stroke-miterlimit="10" stroke-linecap="round"/>
<path d="M400.244 302.756C383.73 302.756 367.201 298.861 351.527 291.19C327.506 279.432 306.261 259.313 288.393 231.397L345.449 195.069C364.627 225.025 386.891 238.994 408.144 234.394C423.952 230.974 434.962 217.962 436.472 207.361C437.766 198.259 431.822 190.091 418.797 183.073L450.985 123.681C489.236 144.297 508.86 179.119 503.496 216.842C497.791 256.939 464.487 291.287 422.494 300.367C415.137 301.962 407.691 302.748 400.244 302.748V302.756Z" fill="#1B2E3F"/>
<path d="M412.958 481.897V540.629H237.764L313.879 481.897H412.958Z" fill="#1B2E3F"/>
<path d="M268.389 380.59V439.33H93.1953L169.31 380.59H268.389Z" fill="#1B2E3F"/>
</g>
<defs>
<clipPath id="clip0_709_8675">
<rect width="584" height="541" fill="white"/>
</clipPath>
</defs>
</svg>
