<svg width="529" height="314" viewBox="0 0 529 314" fill="none" xmlns="http://www.w3.org/2000/svg">
<path d="M1.00065 312.999H60.4121" stroke="#1B2E3F" stroke-miterlimit="10" stroke-linecap="round"/>
<path d="M433.77 312.999H433.761H403.38" stroke="#1B2E3F" stroke-miterlimit="10" stroke-linecap="round"/>
<path d="M500.322 312.999H528" stroke="#1B2E3F" stroke-miterlimit="10" stroke-linecap="round"/>
<path d="M350.025 296.88C350.025 302.756 348.411 308.259 345.598 312.957H53.4268C50.614 308.259 48.9995 302.756 48.9995 296.88C48.9995 283.002 58.0094 271.235 70.4922 267.103C68.0955 261.361 66.7696 255.063 66.7696 248.449C66.7696 221.704 88.4343 200.018 115.153 200.018C120.241 200.018 125.145 200.807 129.755 202.268C136.701 184.041 154.322 171.091 174.971 171.091C185.906 171.091 195.998 174.728 204.098 180.854C212.642 173.268 223.876 168.664 236.193 168.664C250.318 168.664 263.028 174.723 271.866 184.386C276.021 188.923 279.322 194.248 281.514 200.118C282.529 200.057 283.544 200.018 284.571 200.018C311.295 200.018 332.954 221.704 332.954 248.449C332.954 255.141 331.601 261.516 329.148 267.314C341.31 271.618 350.025 283.23 350.025 296.88Z" fill="#BBCBB6" stroke="#1B2E3F" stroke-miterlimit="10" stroke-linecap="round"/>
<path d="M204.273 313V247.484" stroke="#1B2E3F" stroke-miterlimit="10" stroke-linecap="round"/>
<path d="M233.002 313L255.611 257.183" stroke="#1B2E3F" stroke-miterlimit="10" stroke-linecap="round"/>
<path d="M170.357 313L151.517 261.344" stroke="#1B2E3F" stroke-miterlimit="10" stroke-linecap="round"/>
<path d="M255.612 313L270.84 298.445" stroke="#1B2E3F" stroke-miterlimit="10" stroke-linecap="round"/>
<path d="M146.494 313L131.111 301.057" stroke="#1B2E3F" stroke-miterlimit="10" stroke-linecap="round"/>
<path d="M213.547 91.5059L196.059 199.762L307.602 192.832L294.84 91.5059H213.547Z" fill="#B2967D" stroke="#1B2E3F" stroke-miterlimit="10"/>
<path d="M98.1328 25.8208L92.4446 23.3972C87.4197 21.3804 86.6982 -2.4239 75.8027 1.41898C64.9071 5.27845 72.0216 17.2138 72.0216 17.2138C72.0216 17.2138 68.2157 15.3629 62.9172 13.2547C51.8558 8.84743 34.3183 3.30307 31.3499 11.1133C29.4759 16.0435 33.1243 19.8947 37.9088 22.7083C30.5456 21.1563 26.267 22.8577 24.9983 27.4227C23.1161 34.1457 34.7993 37.9055 43.3731 39.7564C34.8573 38.7604 22.9917 38.7604 22.5108 46.3051C21.7728 58.1242 40.3217 53.9162 48.0663 56.9705C55.811 60.0083 76.2671 70.1509 76.2671 70.1509" fill="#E7D8C9"/>
<path d="M98.1328 25.8208L92.4446 23.3972C87.4197 21.3804 86.6982 -2.4239 75.8027 1.41898C64.9071 5.27845 72.0216 17.2138 72.0216 17.2138C72.0216 17.2138 68.2157 15.3629 62.9172 13.2547C51.8558 8.84743 34.3183 3.30307 31.3498 11.1133C29.4759 16.0435 33.1243 19.8947 37.9088 22.7083C30.5456 21.1563 26.267 22.8577 24.9983 27.4227C23.1161 34.1457 34.7993 37.9055 43.3731 39.7564C34.8573 38.7604 22.9917 38.7604 22.5108 46.3051C21.7728 58.1242 40.3217 53.9162 48.0663 56.9705C55.811 60.0083 76.2671 70.1509 76.2671 70.1509" stroke="#1B2E3F" stroke-miterlimit="10" stroke-linecap="round"/>
<path d="M37.9098 22.7173C44.0707 25.365 51.2598 27.3986 51.2598 27.3986L37.9098 22.7173Z" fill="#E7D8C9"/>
<path d="M37.9098 22.7173C44.0707 25.365 51.2598 27.3986 51.2598 27.3986" stroke="#1B2E3F" stroke-miterlimit="10" stroke-linecap="round"/>
<path d="M43.3798 39.7646C47.1692 40.8686 49.1758 41.0097 49.1758 41.0097L43.3798 39.7646Z" fill="#E7D8C9"/>
<path d="M43.3798 39.7646C47.1692 40.8686 49.1758 41.0097 49.1758 41.0097" stroke="#1B2E3F" stroke-miterlimit="10" stroke-linecap="round"/>
<path d="M55.0918 20.4258C55.0918 20.4258 47.712 31.2575 49.6275 48.9451L55.0918 20.4258Z" fill="#E7D8C9"/>
<path d="M55.0918 20.4258C55.0918 20.4258 47.712 31.2575 49.6275 48.9451" stroke="#1B2E3F" stroke-miterlimit="10" stroke-linecap="round"/>
<path d="M247.497 47.8244C254.006 47.8244 259.279 42.5621 259.279 36.0714C259.279 29.5807 254.006 24.3184 247.497 24.3184C240.987 24.3184 235.714 29.5807 235.714 36.0714C235.714 42.5621 240.987 47.8244 247.497 47.8244Z" fill="#E7D8C9" stroke="#1B2E3F" stroke-miterlimit="10" stroke-linecap="round"/>
<path d="M246.078 47.7325V57.867H262.471L259.295 36.0625L246.086 47.7325H246.078Z" fill="#E7D8C9"/>
<path d="M259.285 36.0708L262.461 57.8753H246.068V47.7408" stroke="#1B2E3F" stroke-miterlimit="10" stroke-linecap="round"/>
<path d="M354.519 190.591L305.357 161.293L305.29 161.4C311.932 150.005 318.45 129.545 313.989 122.092C311.285 117.577 299.055 112.647 273.516 113.618C153.184 118.174 74.7508 78.2765 71.4755 76.575L97.7939 25.7295L97.7111 25.688C98.391 26.0366 166.982 60.3486 271.352 56.3978C316.907 54.6797 347.811 66.947 363.201 92.8844C387.189 133.33 357.927 184.856 354.511 190.6L354.519 190.591Z" fill="#E6BEAE" stroke="#1B2E3F" stroke-miterlimit="10" stroke-linecap="round"/>
<path d="M239.537 27.3989C239.537 27.3989 254.611 30.5778 259.279 39.7661L277.248 3.16243L228.906 1.00439L239.545 27.3989H239.537Z" fill="#1B2E3F"/>
<path d="M520.266 271.432C520.266 288.248 512.479 303.238 500.324 312.998H172.122C164.792 305.703 160.248 295.602 160.248 284.43C160.248 265.473 173.324 249.587 190.945 245.296C189.776 240.108 189.162 234.713 189.162 229.177C189.162 189.03 221.376 156.412 261.343 155.814C265.928 139.778 277.819 126.831 293.184 120.838C299.17 118.497 305.688 117.211 312.504 117.211C326.849 117.211 339.859 122.905 349.428 132.134C361.733 122.772 377.089 117.211 393.74 117.211C434.229 117.211 467.04 150.062 467.04 190.582C467.04 200.443 465.1 209.847 461.576 218.437C463.375 218.255 465.199 218.155 467.04 218.155C496.435 218.155 520.266 242.009 520.266 271.432Z" fill="#BBCBB6" stroke="#1B2E3F" stroke-miterlimit="10" stroke-linecap="round"/>
<path d="M354.262 136.102H351.368C346.711 136.102 342.936 132.323 342.936 127.661V112.862C342.936 108.2 346.711 104.42 351.368 104.42H354.262C358.92 104.42 362.695 108.2 362.695 112.862V127.661C362.695 132.323 358.92 136.102 354.262 136.102Z" fill="#E7D8C9" stroke="#1B2E3F" stroke-miterlimit="10" stroke-linecap="round"/>
<path d="M393.77 136.102H390.876C386.219 136.102 382.443 132.323 382.443 127.661V112.862C382.443 108.2 386.219 104.42 390.876 104.42H393.77C398.427 104.42 402.203 108.2 402.203 112.862V127.661C402.203 132.323 398.427 136.102 393.77 136.102Z" fill="#E7D8C9" stroke="#1B2E3F" stroke-miterlimit="10" stroke-linecap="round"/>
<path d="M374.022 136.093H371.128C366.471 136.093 362.695 132.314 362.695 127.652V106.761C362.695 102.099 366.471 98.3193 371.128 98.3193H374.022C378.679 98.3193 382.455 102.099 382.455 106.761V127.652C382.455 132.314 378.679 136.093 374.022 136.093Z" fill="#E7D8C9" stroke="#1B2E3F" stroke-miterlimit="10" stroke-linecap="round"/>
<path d="M347.711 312.999V246.475" stroke="#1B2E3F" stroke-miterlimit="10" stroke-linecap="round"/>
<path d="M378.294 312.999L402.365 256.327" stroke="#1B2E3F" stroke-miterlimit="10" stroke-linecap="round"/>
<path d="M311.609 312.999L291.551 260.544" stroke="#1B2E3F" stroke-miterlimit="10" stroke-linecap="round"/>
<path d="M402.364 312.999L418.574 298.216" stroke="#1B2E3F" stroke-miterlimit="10" stroke-linecap="round"/>
<path d="M286.201 312.999L269.816 300.873" stroke="#1B2E3F" stroke-miterlimit="10" stroke-linecap="round"/>
</svg>
