<svg width="16" height="16" viewBox="0 0 16 16" fill="none" xmlns="http://www.w3.org/2000/svg">
<g clip-path="url(#clip0_378_8513)">
<path d="M8.14601 8.73337L7.48602 9.39337C7.35157 9.52782 7.28435 9.69893 7.28435 9.90671C7.28435 10.1145 7.35157 10.2856 7.48602 10.42C7.62046 10.5545 7.79157 10.6217 7.99935 10.6217C8.20713 10.6217 8.37824 10.5545 8.51268 10.42L10.4193 8.51337C10.566 8.36671 10.6393 8.1956 10.6393 8.00004C10.6393 7.80449 10.566 7.63337 10.4193 7.48671L8.51268 5.58004C8.37824 5.4456 8.20713 5.37838 7.99935 5.37838C7.79157 5.37838 7.62046 5.4456 7.48601 5.58004C7.35157 5.71449 7.28435 5.8856 7.28435 6.09337C7.28435 6.30115 7.35157 6.47226 7.48601 6.60671L8.14601 7.26671L5.79935 7.26671C5.59157 7.26671 5.41728 7.33711 5.27648 7.47791C5.13568 7.61871 5.06553 7.79275 5.06601 8.00004C5.06601 8.20782 5.13642 8.38211 5.27722 8.52291C5.41802 8.66371 5.59206 8.73386 5.79935 8.73337L8.14601 8.73337ZM15.3327 8.00004C15.3327 9.01449 15.1401 9.96782 14.7548 10.86C14.3696 11.7523 13.8472 12.5284 13.1877 13.1884C12.5277 13.8484 11.7516 14.3708 10.8593 14.7555C9.96713 15.1403 9.01379 15.3329 7.99935 15.3334C6.9849 15.3334 6.03157 15.1408 5.13935 14.7555C4.24713 14.3703 3.47102 13.8479 2.81102 13.1884C2.15102 12.5284 1.62864 11.7523 1.24388 10.86C0.859127 9.96782 0.666504 9.01449 0.666015 8.00004C0.666015 6.9856 0.858637 6.03226 1.24388 5.14004C1.62913 4.24782 2.1515 3.47171 2.81102 2.81171C3.47102 2.15171 4.24713 1.62909 5.13935 1.24384C6.03157 0.858598 6.9849 0.66622 7.99935 0.66671C9.01379 0.66671 9.96713 0.859332 10.8593 1.24458C11.7516 1.62982 12.5277 2.1522 13.1877 2.81171C13.8477 3.47171 14.3703 4.24782 14.7555 5.14004C15.1408 6.03226 15.3332 6.9856 15.3327 8.00004Z" fill="#7EA373"/>
</g>
<defs>
<clipPath id="clip0_378_8513">
<rect width="16" height="16" fill="white" transform="translate(0 16) rotate(-90)"/>
</clipPath>
</defs>
</svg>
