<svg width="16" height="16" fill="none" xmlns="http://www.w3.org/2000/svg"><g clip-path="url(#a)"><path d="m8.146 8.733-.66.66a.695.695 0 0 0-.202.514c0 .207.068.379.202.513a.695.695 0 0 0 .513.202.695.695 0 0 0 .514-.202l1.906-1.907A.703.703 0 0 0 10.64 8a.703.703 0 0 0-.22-.513L8.513 5.58a.695.695 0 0 0-.514-.202.695.695 0 0 0-.513.202.695.695 0 0 0-.202.513c0 .208.068.38.202.514l.66.66H5.799a.71.71 0 0 0-.523.21.707.707 0 0 0-.21.523c0 .208.07.382.211.523.141.14.315.21.522.21h2.347ZM15.333 8a7.136 7.136 0 0 1-.578 2.86 7.416 7.416 0 0 1-1.567 2.328 7.399 7.399 0 0 1-2.329 1.567 7.153 7.153 0 0 1-2.86.578 7.136 7.136 0 0 1-2.86-.578 7.416 7.416 0 0 1-2.328-1.567 7.4 7.4 0 0 1-1.567-2.328A7.153 7.153 0 0 1 .666 8c0-1.014.193-1.968.578-2.86A7.417 7.417 0 0 1 2.81 2.812a7.41 7.41 0 0 1 2.328-1.568A7.128 7.128 0 0 1 8 .667c1.015 0 1.968.192 2.86.578a7.416 7.416 0 0 1 2.329 1.567 7.41 7.41 0 0 1 1.567 2.328c.386.892.578 1.846.578 2.86Z" fill="#7EA373"/></g><defs><clipPath id="a"><path fill="#fff" transform="rotate(-90 8 8)" d="M0 0h16v16H0z"/></clipPath></defs></svg>