<svg width="22" height="22" viewBox="0 0 22 22" fill="none" xmlns="http://www.w3.org/2000/svg">
<path fill-rule="evenodd" clip-rule="evenodd" d="M21.4173 3.79067C21.7436 4.65512 21.9168 5.56967 21.9291 6.49341C21.9972 7.65524 21.9976 8.03521 21.9999 10.9761L22 11.0171C22 13.9967 21.9841 14.3687 21.9316 15.542C21.9133 16.4555 21.741 17.3556 21.4197 18.2093C21.1364 18.9383 20.7039 19.6003 20.1501 20.1533C19.5963 20.7062 18.9332 21.1378 18.203 21.4207C17.3482 21.7409 16.4452 21.9138 15.5324 21.9317C14.3657 22 13.9834 22 11 22C8.01665 22 7.64403 21.9841 6.46756 21.9317C5.55297 21.9017 4.65023 21.7161 3.79819 21.3829C3.0677 21.1006 2.40424 20.6694 1.85016 20.1166C1.29608 19.5639 0.863579 18.9018 0.580297 18.1727C0.258995 17.3178 0.0867391 16.4177 0.0684139 15.5054C-1.36594e-08 14.3394 0 13.9589 0 10.9805C0 8.00212 0.0158818 7.63012 0.0684139 6.4556C0.085664 5.54466 0.258788 4.64336 0.580297 3.79067C0.863103 3.06139 1.29528 2.39907 1.84917 1.8461C2.40306 1.29312 3.06648 0.86167 3.79697 0.579333C4.65135 0.259139 5.55394 0.0859243 6.46634 0.0670808C7.63304 8.19564e-08 8.01542 0 10.9988 0C13.9821 0 14.3547 0.0146359 15.53 0.0670808C16.4427 0.0857902 17.3458 0.259005 18.2006 0.579333C18.9309 0.861865 19.5943 1.29339 20.1481 1.84634C20.702 2.39929 21.1342 3.0615 21.4173 3.79067ZM5.34362 10.9744C5.34362 14.0894 7.87127 16.6128 10.9915 16.6128C12.4894 16.6128 13.9258 16.0188 14.985 14.9614C16.0442 13.904 16.6393 12.4698 16.6393 10.9744C16.6393 9.47896 16.0442 8.04483 14.985 6.98742C13.9258 5.93001 12.4894 5.33596 10.9915 5.33596C7.87127 5.33596 5.34362 7.85942 5.34362 10.9744ZM16.3599 6.34243C16.5197 6.40845 16.6911 6.44234 16.8641 6.44218C17.591 6.44218 18.1798 5.85431 18.1798 5.1274C18.1798 4.95482 18.1457 4.78393 18.0796 4.62449C18.0134 4.46505 17.9164 4.32018 17.7943 4.19814C17.672 4.07612 17.5268 3.97931 17.3672 3.91327C17.2075 3.84722 17.0363 3.81323 16.8635 3.81323C16.6906 3.81323 16.5194 3.84722 16.3596 3.91327C16.2 3.97931 16.0548 4.07612 15.9327 4.19814C15.8104 4.32018 15.7134 4.46505 15.6473 4.62449C15.5811 4.78393 15.5471 4.95482 15.5471 5.1274C15.5469 5.30011 15.5808 5.47115 15.647 5.63074C15.7131 5.79032 15.8101 5.93532 15.9324 6.05745C16.0547 6.17957 16.2 6.27641 16.3599 6.34243Z" fill="#B5BBDB"/>
</svg>
