<svg width="21" height="24" viewBox="0 0 21 24" fill="none" xmlns="http://www.w3.org/2000/svg">
<path d="M20.9886 6.31736C19.6874 6.31736 18.4868 5.88629 17.5227 5.15907C16.4169 4.32542 15.6224 3.10255 15.3419 1.6931C15.2724 1.34485 15.235 0.985472 15.2314 0.617188H11.5143V10.7742L11.5099 16.3377C11.5099 17.825 10.5413 19.0862 9.19861 19.5298C8.80895 19.6584 8.38812 19.7195 7.94992 19.6954C7.39059 19.6647 6.86644 19.4959 6.41087 19.2234C5.44139 18.6436 4.78409 17.5917 4.76628 16.3884C4.73822 14.5078 6.25857 12.9745 8.13784 12.9745C8.5088 12.9745 8.86506 13.0351 9.19861 13.1451V10.3689V9.37097C8.8468 9.31886 8.48876 9.2917 8.12671 9.2917C6.06975 9.2917 4.14594 10.1467 2.77077 11.6871C1.73138 12.8512 1.10792 14.3364 1.01173 15.8937C0.885704 17.9395 1.6343 19.8842 3.08606 21.3191C3.29937 21.5297 3.52337 21.7252 3.75761 21.9056C5.0023 22.8635 6.52398 23.3827 8.12671 23.3827C8.48876 23.3827 8.8468 23.356 9.19861 23.3039C10.6958 23.0821 12.0772 22.3968 13.1674 21.3191C14.5069 19.9951 15.247 18.2374 15.255 16.3666L15.2359 8.05859C15.8749 8.55157 16.5737 8.95949 17.3236 9.27611C18.4899 9.7682 19.7266 10.0176 20.9993 10.0171V7.31801V6.31647C21.0002 6.31736 20.9895 6.31736 20.9886 6.31736Z" fill="#B5BBDB"/>
</svg>
