<svg width="429" height="314" viewBox="0 0 429 314" fill="none" xmlns="http://www.w3.org/2000/svg">
<path d="M1.00195 284.512H405.632V300.147C405.632 307.239 399.875 313 392.787 313H13.8541C6.76636 313 1.00944 307.239 1.00944 300.147V284.512H1.00195Z" fill="#BBCBB6" stroke="#1B2E3F" stroke-miterlimit="10" stroke-linecap="round"/>
<path d="M77.375 226.173L5.30871 276.11C-2.72108 281.669 1.21906 294.267 10.9759 294.267H395.651C403.718 294.267 408.436 285.177 403.8 278.571L368.728 228.635C366.866 225.979 363.823 224.4 360.579 224.4H83.0422C81.0161 224.4 79.0348 225.021 77.375 226.173Z" fill="#BBCBB6" stroke="#1B2E3F" stroke-miterlimit="10" stroke-linecap="round"/>
<path d="M82.6064 230.206L28.8951 274.891C24.1923 278.804 26.9587 286.465 33.0745 286.465H379.477C384.382 286.465 387.537 281.258 385.279 276.904L362.042 232.219C360.913 230.057 358.677 228.695 356.24 228.695H86.7859C85.2607 228.695 83.7803 229.226 82.6064 230.206Z" fill="#1B2E3F"/>
<path d="M63.8931 300.514H29.5982C27.9011 300.514 26.5254 301.891 26.5254 303.589C26.5254 305.287 27.9011 306.664 29.5982 306.664H63.8931C65.5902 306.664 66.966 305.287 66.966 303.589C66.966 301.891 65.5902 300.514 63.8931 300.514Z" fill="#BBCBB6" stroke="#1B2E3F" stroke-miterlimit="10" stroke-linecap="round"/>
<path d="M109.532 300.514H75.2369C73.5398 300.514 72.1641 301.891 72.1641 303.589C72.1641 305.287 73.5398 306.664 75.2369 306.664H109.532C111.229 306.664 112.605 305.287 112.605 303.589C112.605 301.891 111.229 300.514 109.532 300.514Z" fill="#BBCBB6" stroke="#1B2E3F" stroke-miterlimit="10" stroke-linecap="round"/>
<path d="M164.924 300.514H130.63C128.932 300.514 127.557 301.891 127.557 303.589C127.557 305.287 128.932 306.664 130.63 306.664H164.924C166.622 306.664 167.997 305.287 167.997 303.589C167.997 301.891 166.622 300.514 164.924 300.514Z" fill="#BBCBB6" stroke="#1B2E3F" stroke-miterlimit="10" stroke-linecap="round"/>
<path d="M208.191 267.492C232.124 267.492 251.525 263.664 251.525 258.941C251.525 254.219 232.124 250.39 208.191 250.39C184.259 250.39 164.857 254.219 164.857 258.941C164.857 263.664 184.259 267.492 208.191 267.492Z" stroke="white" stroke-miterlimit="10" stroke-linecap="round"/>
<path d="M208.192 276.312C253.336 276.312 289.933 269.671 289.933 261.477C289.933 253.284 253.336 246.642 208.192 246.642C163.048 246.642 126.451 253.284 126.451 261.477C126.451 269.671 163.048 276.312 208.192 276.312Z" stroke="white" stroke-miterlimit="10" stroke-linecap="round"/>
<path d="M166.086 172.302L147.095 167.304C126.228 161.806 112.771 141.554 115.776 120.173L127.387 37.6635C130.886 12.8335 154.953 -3.61753 179.342 2.15792L395.234 53.3066C414.434 57.8551 427.996 75.0094 427.996 94.7522C427.996 118.886 407.974 138.203 383.87 137.32L220.492 131.328" fill="#E7D8C9"/>
<path d="M166.086 172.302L147.095 167.304C126.228 161.806 112.771 141.554 115.776 120.173L127.387 37.6635C130.886 12.8335 154.953 -3.61753 179.342 2.15792L395.234 53.3066C414.434 57.8551 427.996 75.0094 427.996 94.7522C427.996 118.886 407.974 138.203 383.87 137.32L220.492 131.328" stroke="#1B2E3F" stroke-miterlimit="10" stroke-linecap="round"/>
<path d="M156.82 56.9648L143.303 136.437C139.535 158.581 153.605 179.85 175.452 185.027L208.199 192.793" fill="#E7D8C9"/>
<path d="M156.82 56.9648L143.303 136.437C139.535 158.581 153.605 179.85 175.452 185.027L208.199 192.793" stroke="#1B2E3F" stroke-miterlimit="10" stroke-linecap="round"/>
<path d="M203.917 73.8574C203.917 73.8574 189.106 150.36 171.304 205.197C163.618 228.859 175.536 254.52 197.315 261.335C216.44 267.32 236.821 256.637 244.821 236.393C255.228 210.082 270.637 167.432 289.934 103.43" fill="#E7D8C9"/>
<path d="M203.917 73.8574C203.917 73.8574 189.106 150.36 171.304 205.197C163.618 228.86 175.536 254.52 197.315 261.335C216.44 267.32 236.821 256.637 244.821 236.393C255.228 210.082 270.637 167.432 289.934 103.43" stroke="#1B2E3F" stroke-miterlimit="10" stroke-linecap="round"/>
<path d="M428 94.7446C428 129.173 424.381 155.148 374.841 168.419C325.302 181.691 285.445 229.48 257.751 188.498C235.329 155.312 280.66 133.519 280.66 133.519L325.631 108.091" fill="#E7D8C9"/>
<path d="M428 94.7446C428 129.173 424.381 155.148 374.841 168.419C325.302 181.691 285.445 229.48 257.751 188.498C235.329 155.312 280.66 133.519 280.66 133.519L325.631 108.091" stroke="#1B2E3F" stroke-miterlimit="10" stroke-linecap="round"/>
</svg>
