<svg width="48" height="16" fill="none" xmlns="http://www.w3.org/2000/svg"><g clip-path="url(#a)"><mask id="b" style="mask-type:luminance" maskUnits="userSpaceOnUse" x="0" y="0" width="48" height="16"><path d="M47.598 0H.314v16h47.284V0Z" fill="#fff"/></mask><g mask="url(#b)" fill="#1B2E3F"><path d="M20.803 15.77h-3.83L19.368.28h3.83l-2.395 15.49ZM34.69.66A9.08 9.08 0 0 0 31.253 0c-3.783 0-6.447 2.109-6.463 5.124-.031 2.225 1.907 3.46 3.357 4.202 1.482.758 1.986 1.253 1.986 1.928-.015 1.038-1.198 1.516-2.3 1.516-1.53 0-2.35-.246-3.595-.824l-.504-.247-.536 3.477c.898.428 2.554.807 4.272.824 4.019 0 6.636-2.076 6.666-5.29.016-1.763-1.008-3.114-3.215-4.218-1.34-.708-2.16-1.186-2.16-1.911.016-.66.694-1.335 2.206-1.335 1.246-.033 2.16.28 2.854.593l.346.165.521-3.345Zm5.09 9.623 1.53-4.334c-.017.033.314-.906.503-1.483l.268 1.335s.725 3.707.883 4.482H39.78ZM44.508.28h-2.963c-.913 0-1.608.28-2.002 1.285l-5.69 14.203h4.02s.662-1.911.803-2.323h4.918c.11.544.457 2.323.457 2.323h3.547L44.508.281ZM13.775.281l-3.751 10.562-.41-2.142c-.693-2.472-2.868-5.157-5.296-6.492l3.436 13.544h4.05L17.826.281h-4.05Z"/><path d="M6.54.28H.377L.314.593C5.122 1.88 8.305 4.977 9.614 8.7l-1.34-7.118C8.054.593 7.375.312 6.54.28Z"/></g></g><defs><clipPath id="a"><path fill="#fff" d="M0 0h48v16H0z"/></clipPath></defs></svg>