<svg width="24" height="24" viewBox="0 0 24 24" fill="none" xmlns="http://www.w3.org/2000/svg">
<path d="M21.4141 15.2773H2.58594C2.26234 15.2773 2 15.5397 2 15.8633C2 17.2655 3.13676 18.4023 4.53906 18.4023H19.4609C20.8632 18.4023 22 17.2656 22 15.8633C22 15.5397 21.7377 15.2773 21.4141 15.2773Z" fill="#7EA373"/>
<path d="M13.5625 4.45656V4.14453C13.5625 3.2816 12.8629 2.58203 12 2.58203C11.1371 2.58203 10.4375 3.2816 10.4375 4.14453V4.45656C10.9501 4.37941 11.472 4.33984 12 4.33984C12.528 4.33984 13.0499 4.37941 13.5625 4.45656Z" fill="#7EA373"/>
<path d="M18.4916 8.20039C16.7578 6.46656 14.4526 5.51172 12.0006 5.51172C9.54859 5.51172 7.2434 6.46656 5.50957 8.20039C3.91461 9.79535 2.97949 11.874 2.83984 14.1055H21.1613C21.0216 11.874 20.0866 9.79535 18.4916 8.20039Z" fill="#7EA373"/>
</svg>
