<svg width="24" height="24" fill="none" xmlns="http://www.w3.org/2000/svg"><path d="M12 23c6.05 0 11-4.95 11-11S18.05 1 12 1 1 5.95 1 12s4.95 11 11 11Zm.33-16.181c.22-.198.484-.319.77-.319.297 0 .55.121.781.319.209.231.319.495.319.781 0 .297-.11.55-.319.781a1.127 1.127 0 0 1-.781.319c-.286 0-.55-.11-.77-.319-.209-.231-.33-.484-.33-.781 0-.286.121-.55.33-.781Zm-2.75 5.148s2.387-1.892 3.256-1.969c.814-.066.649.869.572 1.353l-.011.066c-.154.583-.341 1.287-.528 1.958-.418 1.529-.825 3.025-.726 3.3.11.374.792-.099 1.287-.429.066-.044.121-.088.176-.121 0 0 .088-.088.176.033a.61.61 0 0 0 .066.088c.099.154.154.209.022.297l-.044.022c-.242.165-1.276.891-1.694 1.155-.451.297-2.178 1.287-1.914-.638.231-1.353.539-2.519.781-3.432.451-1.65.649-2.398-.363-1.749-.407.242-.649.396-.792.495-.121.088-.132.088-.209-.055l-.033-.066-.055-.088c-.077-.11-.077-.121.033-.22Z" fill="#7EA373"/></svg>