<svg width="24" height="24" fill="none" xmlns="http://www.w3.org/2000/svg"><path d="M12 23c6.05 0 11-4.95 11-11S18.05 1 12 1 1 5.95 1 12s4.95 11 11 11Zm.33-16.181c.22-.198.484-.32.77-.32.297 0 .55.122.781.32.209.23.319.495.319.78 0 .298-.11.55-.319.782a1.127 1.127 0 0 1-.781.319c-.286 0-.55-.11-.77-.32-.209-.23-.33-.483-.33-.78 0-.286.121-.55.33-.781Zm-2.75 5.148s2.387-1.892 3.256-1.97c.814-.065.649.87.572 1.354l-.011.066c-.154.583-.341 1.287-.528 1.958-.418 1.529-.825 3.025-.726 3.3.11.374.792-.1 1.287-.43.066-.043.121-.087.176-.12 0 0 .088-.088.176.033a.61.61 0 0 0 .066.088c.099.154.154.209.022.297l-.044.022c-.242.165-1.276.89-1.694 1.155-.451.297-2.178 1.287-1.914-.638.231-1.353.539-2.52.781-3.432.451-1.65.649-2.398-.363-1.75a15.17 15.17 0 0 0-.792.496c-.121.088-.132.088-.209-.055l-.033-.066-.055-.088c-.077-.11-.077-.121.033-.22Z" fill="#DDE0F0"/></svg>